SplineFontDB: 3.0
FontName: Shabnam-Bold
FullName: Shabnam Bold
FamilyName: Shabnam
Weight: Bold
Copyright: Copyright (c) 2003 by Bitstream, Inc. All Rights Reserved.\nDejaVu changes are in public domain\nCopyright (c) 2015 by Saber Rastikerdar. All Rights Reserved.
Version: 0.6
ItalicAngle: 0
UnderlinePosition: -100
UnderlineWidth: 100
Ascent: 1536
Descent: 512
InvalidEm: 0
LayerCount: 2
Layer: 0 1 "Back" 1
Layer: 1 1 "Fore" 0
XUID: [1021 502 1027637223 15615968]
UniqueID: 4239297
UseUniqueID: 1
FSType: 0
OS2Version: 1
OS2_WeightWidthSlopeOnly: 0
OS2_UseTypoMetrics: 1
CreationTime: 1431850356
ModificationTime: 1451548119
PfmFamily: 33
TTFWeight: 700
TTFWidth: 5
LineGap: 0
VLineGap: 0
Panose: 2 11 6 3 3 8 4 2 2 4
OS2TypoAscent: 2000
OS2TypoAOffset: 0
OS2TypoDescent: -1000
OS2TypoDOffset: 0
OS2TypoLinegap: 0
OS2WinAscent: 2000
OS2WinAOffset: 0
OS2WinDescent: 1000
OS2WinDOffset: 0
HheadAscent: 2000
HheadAOffset: 0
HheadDescent: -1000
HheadDOffset: 0
OS2SubXSize: 1331
OS2SubYSize: 1433
OS2SubXOff: 0
OS2SubYOff: 286
OS2SupXSize: 1331
OS2SupYSize: 1433
OS2SupXOff: 0
OS2SupYOff: 983
OS2StrikeYSize: 102
OS2StrikeYPos: 530
OS2Vendor: 'PfEd'
OS2CodePages: 600001ff.dfff0000
Lookup: 1 0 0 "'case' Case-Sensitive Forms in Latin lookup 0" { "'case' Case-Sensitive Forms in Latin lookup 0 subtable"  } ['case' ('DFLT' <'dflt' > 'latn' <'CAT ' 'ESP ' 'GAL ' 'dflt' > ) ]
Lookup: 6 1 0 "'ccmp' Glyph Composition/Decomposition lookup 2" { "'ccmp' Glyph Composition/Decomposition lookup 2 subtable"  } ['ccmp' ('arab' <'KUR ' 'SND ' 'URD ' 'dflt' > 'hebr' <'dflt' > 'nko ' <'dflt' > ) ]
Lookup: 6 0 0 "'ccmp' Glyph Composition/Decomposition lookup 3" { "'ccmp' Glyph Composition/Decomposition lookup 3 subtable"  } ['ccmp' ('cyrl' <'MKD ' 'SRB ' 'dflt' > 'grek' <'dflt' > 'latn' <'ISM ' 'KSM ' 'LSM ' 'MOL ' 'NSM ' 'ROM ' 'SKS ' 'SSM ' 'dflt' > ) ]

StartChar: exclam
Encoding: 33 33 1
Width: 932
VWidth: 2462
GlyphClass: 2
Flags: W
LayerCount: 2
Fore
SplineSet
299.9921875 133.516601562 m 0,0,1
 299.9921875 147.431393353 299.9921875 147.431393353 301.965012512 160.627959136 c 0,2,3
 302.464541508 163.969394495 302.464541508 163.969394495 303.092067587 167.270493895 c 128,-1,4
 303.719593666 170.571593295 303.719593666 170.571593295 304.477039333 173.840283122 c 128,-1,5
 305.234485001 177.108972949 305.234485001 177.108972949 306.124430888 180.344161213 c 128,-1,6
 307.014376775 183.579349477 307.014376775 183.579349477 308.032589736 186.763125985 c 0,7,8
 310.074703875 193.147084965 310.074703875 193.147084965 312.639672643 199.336569143 c 128,-1,9
 315.204641411 205.52605332 315.204641411 205.52605332 318.277649632 211.485158175 c 0,10,11
 324.38167076 223.320642435 324.38167076 223.320642435 332.473488653 234.251380306 c 0,12,13
 340.41298474 244.979308809 340.41298474 244.979308809 350.259148394 254.826714254 c 0,14,15
 358.412128165 262.978871156 358.412128165 262.978871156 367.255433319 269.881586579 c 128,-1,16
 376.098738472 276.784302001 376.098738472 276.784302001 385.803882317 282.492552269 c 128,-1,17
 395.509026162 288.200802538 395.509026162 288.200802538 405.74610177 292.442875434 c 0,18,19
 436.266618134 305.090820312 436.266618134 305.090820312 471.567382812 305.090820312 c 0,20,21
 506.245820755 305.090820312 506.245820755 305.090820312 537.29425979 292.224249939 c 128,-1,22
 568.342698826 279.357679565 568.342698826 279.357679565 592.876166265 254.824212127 c 0,23,24
 643.140625 204.55593342 643.140625 204.55593342 643.140625 133.516601562 c 0,25,26
 643.140625 98.2148603208 643.140625 98.2148603208 630.492680121 67.6943439577 c 0,27,28
 624.145847833 52.3789231084 624.145847833 52.3789231084 614.649441046 38.4325694747 c 128,-1,29
 605.153034259 24.486215841 605.153034259 24.486215841 592.873852189 12.2076534613 c 0,30,31
 567.901557337 -12.7659017889 567.901557337 -12.7659017889 537.388238214 -25.4113971225 c 128,-1,32
 506.868457478 -38.0595703125 506.868457478 -38.0595703125 471.567382812 -38.0595703125 c 0,33,34
 454.277883695 -38.0595703125 454.277883695 -38.0595703125 437.707124117 -34.7989782011 c 128,-1,35
 421.136364538 -31.5383860897 421.136364538 -31.5383860897 405.835259376 -25.1970786027 c 128,-1,36
 390.534154214 -18.8557711157 390.534154214 -18.8557711157 376.51143025 -9.4392651974 c 128,-1,37
 362.488706285 -0.0227592791258 362.488706285 -0.0227592791258 350.258079203 12.2075579946 c 0,38,39
 325.72642313 36.7385926193 325.72642313 36.7385926193 312.859305315 67.7876549759 c 128,-1,40
 299.9921875 98.8367173325 299.9921875 98.8367173325 299.9921875 133.516601562 c 0,0,1
324.707253626 1709.4375 m 1,41,-1
 609.071783415 1709.4375 l 1,42,-1
 585.287588693 505.989257812 l 1,43,-1
 349.679821202 505.989257812 l 1,44,-1
 324.707253626 1709.4375 l 1,41,-1
EndSplineSet
EndChar

StartChar: parenleft
Encoding: 40 40 2
Width: 908
VWidth: 2462
GlyphClass: 2
Flags: W
GlyphCompositionVertical: 3  uni239D%0,0,48,2944 uni239C%1,48,48,2974 uni239B%0,48,0,2984
LayerCount: 2
Fore
SplineSet
660.914624367 1542.28748526 m 2,0,1
 597.376133797 1430.6057599 597.376133797 1430.6057599 550.037332292 1320.73833102 c 128,-1,2
 502.698530787 1210.87090213 502.698530787 1210.87090213 471.487160106 1102.83102776 c 0,3,4
 405.978515625 876.070408686 405.978515625 876.070408686 405.978515625 643.3125 c 128,-1,5
 405.978515625 410.561074379 405.978515625 410.561074379 471.996861658 182.267220643 c 0,6,7
 492.98692429 109.68271672 492.98692429 109.68271672 521.002946354 36.5525536916 c 128,-1,8
 549.064722273 -36.6935837471 549.064722273 -36.6935837471 584.014344262 -110.16769996 c 0,9,10
 601.509586138 -146.948189268 601.509586138 -146.948189268 620.750697215 -183.845945609 c 128,-1,11
 639.991808293 -220.74370195 639.991808293 -220.74370195 660.9806611 -257.75759383 c 2,12,-1
 694.85114979 -317.48828125 l 1,13,-1
 471.803123078 -317.48828125 l 1,14,-1
 460.023950965 -298.893933863 l 2,15,16
 383.90638747 -178.736387619 383.90638747 -178.736387619 326.764970029 -60.661628719 c 128,-1,17
 269.623552587 57.4131301809 269.623552587 57.4131301809 231.533558933 173.473049763 c 0,18,19
 192.77117133 291.580625908 192.77117133 291.580625908 173.383485495 408.952312596 c 128,-1,20
 153.96484375 526.503532891 153.96484375 526.503532891 153.96484375 643.3125 c 0,21,22
 153.96484375 720.847716019 153.96484375 720.847716019 162.537147037 798.706775868 c 128,-1,23
 171.102790096 876.503252731 171.102790096 876.503252731 188.238771167 954.657010321 c 0,24,25
 196.799489666 993.699378684 196.799489666 993.699378684 207.49873757 1032.8227615 c 128,-1,26
 218.189569387 1071.91637065 218.189569387 1071.91637065 231.016111514 1111.08940475 c 0,27,28
 268.793283966 1226.46560408 268.793283966 1226.46560408 326.369415504 1345.12153021 c 0,29,30
 383.75845429 1463.3908919 383.75845429 1463.3908919 460.036737444 1583.51013219 c 2,31,-1
 471.820987942 1602.06738281 l 1,32,-1
 694.924883831 1602.06738281 l 1,33,-1
 660.914624367 1542.28748526 l 2,0,1
EndSplineSet
EndChar

StartChar: parenright
Encoding: 41 41 3
Width: 908
VWidth: 2462
GlyphClass: 2
Flags: W
GlyphCompositionVertical: 3  uni23A0%0,0,48,2944 uni239F%1,48,48,2974 uni239E%0,48,0,2984
LayerCount: 2
Fore
SplineSet
123.1049525 1602.06738281 m 1,0,-1
 346.130878056 1602.06738281 l 1,1,-1
 357.90135867 1583.41044703 l 2,2,3
 510.316449594 1341.82315282 510.316449594 1341.82315282 586.360211966 1111.13926557 c 0,4,5
 625.096603382 993.631085907 625.096603382 993.631085907 644.518516535 876.614129432 c 128,-1,6
 663.940429688 759.597172958 663.940429688 759.597172958 663.940429688 643.3125 c 0,7,8
 663.940429688 619.947315122 663.940429688 619.947315122 663.163270589 596.551828897 c 128,-1,9
 662.386111491 573.156342671 662.386111491 573.156342671 660.832227514 549.736553036 c 0,10,11
 657.726213479 502.907263814 657.726213479 502.907263814 651.512863143 455.946105187 c 128,-1,12
 645.303123301 409.00922403 645.303123301 409.00922403 635.987684898 361.959487967 c 0,13,14
 631.333462915 338.44671749 631.333462915 338.44671749 625.90392072 314.906432369 c 128,-1,15
 620.474378526 291.366147249 620.474378526 291.366147249 614.269774989 267.79656861 c 0,16,17
 601.869128778 220.6947357 601.869128778 220.6947357 586.371705836 173.473023347 c 0,18,19
 548.350615226 57.6244237742 548.350615226 57.6244237742 490.90936805 -61.017110963 c 0,20,21
 433.642261949 -179.295921097 433.642261949 -179.295921097 357.878295754 -298.894087032 c 2,22,-1
 346.099102561 -317.48828125 l 1,23,-1
 123.053588404 -317.48828125 l 1,24,-1
 156.923525465 -257.757788363 l 2,25,26
 220.454054872 -145.720088736 220.454054872 -145.720088736 267.420893237 -36.2851597847 c 0,27,28
 314.280303363 72.9007286605 314.280303363 72.9007286605 345.907639202 182.267926011 c 0,29,30
 352.513373793 205.109257987 352.513373793 205.109257987 358.458459599 227.995309125 c 0,31,32
 359.94442985 233.716342309 359.94442985 233.716342309 361.388848428 239.439306422 c 128,-1,33
 362.833267007 245.162270534 362.833267007 245.162270534 364.236338957 250.887990419 c 128,-1,34
 365.639410908 256.613710303 365.639410908 256.613710303 367.001143529 262.342185325 c 128,-1,35
 368.362876151 268.070660346 368.362876151 268.070660346 369.683565579 273.803110903 c 0,36,37
 374.965977736 296.727272309 374.965977736 296.727272309 379.586789229 319.691461179 c 128,-1,38
 384.207459523 342.654618944 384.207459523 342.654618944 388.168549219 365.662123073 c 128,-1,39
 392.128309123 388.667441393 392.128309123 388.667441393 395.42814591 411.718627176 c 0,40,41
 400.927762539 450.133006042 400.927762539 450.133006042 404.594830799 488.670109147 c 0,42,43
 406.427822341 507.937490592 406.427822341 507.937490592 407.802521857 527.235709319 c 128,-1,44
 409.177221373 546.533928045 409.177221373 546.533928045 410.093713413 565.864141611 c 128,-1,45
 411.010224503 585.194280339 411.010224503 585.194280339 411.468491157 604.556106148 c 128,-1,46
 411.926757812 623.917931957 411.926757812 623.917931957 411.926757812 643.3125 c 0,47,48
 411.926757812 876.043246362 411.926757812 876.043246362 345.92148848 1102.77938478 c 0,49,50
 314.358380983 1211.19973423 314.358380983 1211.19973423 267.135229683 1320.99604885 c 0,51,52
 219.798653376 1431.05927192 219.798653376 1431.05927192 156.854537193 1542.37939208 c 2,53,-1
 123.1049525 1602.06738281 l 1,0,-1
EndSplineSet
EndChar

StartChar: period
Encoding: 46 46 4
Width: 599
VWidth: 2462
GlyphClass: 2
Flags: W
LayerCount: 2
Fore
SplineSet
130.233398438 130.4765625 m 0,0,1
 130.233398438 165.777637164 130.233398438 165.777637164 142.881571627 196.297417902 c 0,2,3
 149.228967645 211.613553426 149.228967645 211.613553426 158.723764528 225.557928895 c 128,-1,4
 168.218561411 239.502304364 168.218561411 239.502304364 180.500266675 251.784629478 c 0,5,6
 230.768668336 302.051757812 230.768668336 302.051757812 301.810546875 302.051757812 c 0,7,8
 325.27515771 302.051757812 325.27515771 302.051757812 346.562647241 296.512607718 c 0,9,10
 350.886128231 295.388010326 350.886128231 295.388010326 355.133615524 294.029908165 c 128,-1,11
 359.366076461 292.674897672 359.366076461 292.674897672 363.522428234 291.087429357 c 0,12,13
 365.596731799 290.294275014 365.596731799 290.294275014 367.648321719 289.443893596 c 128,-1,14
 369.699911638 288.593512177 369.699911638 288.593512177 371.727220527 287.686558201 c 0,15,16
 375.786323856 285.870643554 375.786323856 285.870643554 379.7447812 283.828365561 c 128,-1,17
 383.69604841 281.79042551 383.69604841 281.79042551 387.547996552 279.527163206 c 0,18,19
 397.103324293 273.9138087 397.103324293 273.9138087 406.006946797 266.95208626 c 128,-1,20
 414.910569301 259.990363821 414.910569301 259.990363821 423.117279059 251.784271247 c 128,-1,21
 431.289298919 243.612251388 431.289298919 243.612251388 438.19903824 234.775699696 c 128,-1,22
 445.10877756 225.939148005 445.10877756 225.939148005 450.826767443 216.236389955 c 128,-1,23
 456.544757327 206.533631904 456.544757327 206.533631904 460.779371068 196.314478207 c 0,24,25
 467.114167661 181.029281357 467.114167661 181.029281357 470.249466643 164.456207307 c 128,-1,26
 473.384765625 147.883133257 473.384765625 147.883133257 473.384765625 130.4765625 c 0,27,28
 473.384765625 121.829517295 473.384765625 121.829517295 472.612648964 113.391471012 c 128,-1,29
 471.840532304 104.953424729 471.840532304 104.953424729 470.287239539 96.6931509744 c 128,-1,30
 468.733946774 88.4328772195 468.733946774 88.4328772195 466.347959843 80.3744269422 c 128,-1,31
 463.961972913 72.3159766649 463.961972913 72.3159766649 460.779600425 64.6372470947 c 0,32,33
 448.177473141 34.2283538789 448.177473141 34.2283538789 423.116568515 9.16619010135 c 128,-1,34
 398.056046295 -15.8930730495 398.056046295 -15.8930730495 367.645850507 -28.4962738194 c 0,35,36
 352.313414544 -34.8493782714 352.313414544 -34.8493782714 335.641773453 -38.0097505161 c 0,37,38
 319.334185031 -41.099609375 319.334185031 -41.099609375 301.810546875 -41.099609375 c 0,39,40
 230.768371608 -41.099609375 230.768371608 -41.099609375 180.500983241 9.16777899286 c 128,-1,41
 130.233398438 59.4315436836 130.233398438 59.4315436836 130.233398438 130.4765625 c 0,0,1
EndSplineSet
EndChar

StartChar: colon
Encoding: 58 58 5
Width: 783
VWidth: 2462
GlyphClass: 2
Flags: W
LayerCount: 2
Fore
SplineSet
225.026367188 856.4765625 m 0,0,1
 225.026367188 873.766555364 225.026367188 873.766555364 228.286542134 890.336468191 c 128,-1,2
 231.546717081 906.906381017 231.546717081 906.906381017 237.887899825 922.207319858 c 128,-1,3
 244.229082569 937.508258698 244.229082569 937.508258698 253.646233871 951.531363889 c 128,-1,4
 263.063385174 965.55446908 263.063385174 965.55446908 275.295708873 977.787102646 c 0,5,6
 278.360041979 980.850822273 278.360041979 980.850822273 281.520042707 983.742258221 c 128,-1,7
 284.680043435 986.633694169 284.680043435 986.633694169 287.933563898 989.346623937 c 0,8,9
 294.520470657 994.839288856 294.520470657 994.839288856 301.431357368 999.548196038 c 128,-1,10
 308.419692148 1004.31115927 308.419692148 1004.31115927 315.721551259 1008.2705272 c 128,-1,11
 323.079471485 1012.26229973 323.079471485 1012.26229973 330.763223659 1015.44659261 c 0,12,13
 335.892325492 1017.57220743 335.892325492 1017.57220743 341.196574224 1019.34408274 c 128,-1,14
 346.500822956 1021.11595804 346.500822956 1021.11595804 351.894448584 1022.51026922 c 128,-1,15
 357.288074212 1023.9045804 357.288074212 1023.9045804 362.800402377 1024.9501229 c 128,-1,16
 368.312730541 1025.99566541 368.312730541 1025.99566541 373.917288137 1026.68203477 c 128,-1,17
 379.521845732 1027.36840412 379.521845732 1027.36840412 385.184708375 1027.71008097 c 128,-1,18
 390.847571018 1028.05175781 390.847571018 1028.05175781 396.6015625 1028.05175781 c 0,19,20
 413.961972314 1028.05175781 413.961972314 1028.05175781 430.53415307 1024.90156092 c 128,-1,21
 447.106333826 1021.75136403 447.106333826 1021.75136403 462.423394463 1015.40358462 c 0,22,23
 492.936713563 1002.7580893 492.936713563 1002.7580893 517.909984965 977.783557511 c 128,-1,24
 542.882514447 952.809767682 542.882514447 952.809767682 555.527608059 922.297417902 c 0,25,26
 561.875334655 906.9804847 561.875334655 906.9804847 565.025557953 890.408490368 c 128,-1,27
 568.17578125 873.836496037 568.17578125 873.836496037 568.17578125 856.4765625 c 0,28,29
 568.17578125 833.112761681 568.17578125 833.112761681 562.618394774 811.792050855 c 0,30,31
 556.954016056 790.064547323 556.954016056 790.064547323 545.587120742 770.695170941 c 0,32,33
 541.836598883 764.304220069 541.836598883 764.304220069 537.458371858 758.17306957 c 128,-1,34
 533.080144833 752.041919071 533.080144833 752.041919071 528.211033795 746.320452871 c 128,-1,35
 523.341922757 740.598986671 523.341922757 740.598986671 517.909271247 735.165924065 c 0,36,37
 513.840406673 731.09705949 513.840406673 731.09705949 509.613316693 727.3464137 c 128,-1,38
 505.386226713 723.59576791 505.386226713 723.59576791 500.924230656 720.109517427 c 128,-1,39
 496.4622346 716.623266943 496.4622346 716.623266943 491.851942875 713.482990938 c 128,-1,40
 487.208591374 710.320060209 487.208591374 710.320060209 482.392149569 707.493844463 c 128,-1,41
 477.575707764 704.667628717 477.575707764 704.667628717 472.569785436 702.173356996 c 128,-1,42
 467.563863107 699.679085276 467.563863107 699.679085276 462.421043069 697.547994079 c 0,43,44
 459.333421853 696.268539938 459.333421853 696.268539938 456.186831334 695.115995439 c 128,-1,45
 453.040240815 693.96345094 453.040240815 693.96345094 449.854335749 692.943983571 c 128,-1,46
 446.668430683 691.924516203 446.668430683 691.924516203 443.433182247 691.033580467 c 128,-1,47
 440.197933812 690.142644731 440.197933812 690.142644731 436.928974262 689.384121811 c 128,-1,48
 433.660014712 688.625598892 433.660014712 688.625598892 430.351337726 687.997229597 c 0,49,50
 414.043676713 684.900390625 414.043676713 684.900390625 396.6015625 684.900390625 c 0,51,52
 373.238738356 684.900390625 373.238738356 684.900390625 351.917463322 690.457924165 c 0,53,54
 341.102356207 693.277600152 341.102356207 693.277600152 330.78283262 697.554366751 c 128,-1,55
 320.463309034 701.831133349 320.463309034 701.831133349 310.823842424 707.488042775 c 0,56,57
 291.822177131 718.6378749 291.822177131 718.6378749 275.292163473 735.1666378 c 0,58,59
 250.319414819 760.140646812 250.319414819 760.140646812 237.674312067 790.654304895 c 0,60,61
 235.121950441 796.813360418 235.121950441 796.813360418 233.078077411 803.219509755 c 128,-1,62
 231.034204381 809.625659092 231.034204381 809.625659092 229.528508795 816.137421079 c 128,-1,63
 228.022813208 822.649183065 228.022813208 822.649183065 227.01813364 829.349554545 c 128,-1,64
 226.013454072 836.049926025 226.013454072 836.049926025 225.51991063 842.815429793 c 128,-1,65
 225.026367188 849.580933561 225.026367188 849.580933561 225.026367188 856.4765625 c 0,0,1
225.026367188 130.4765625 m 0,66,67
 225.026367188 153.536694446 225.026367188 153.536694446 230.768164348 175.157311259 c 128,-1,68
 236.509961509 196.777928072 236.509961509 196.777928072 247.745364936 216.12483846 c 128,-1,69
 258.980768362 235.471748849 258.980768362 235.471748849 275.295708873 251.787102646 c 0,70,71
 278.360041979 254.850822273 278.360041979 254.850822273 281.520042707 257.742258221 c 128,-1,72
 284.680043435 260.633694169 284.680043435 260.633694169 287.933563898 263.346623937 c 0,73,74
 294.520470657 268.839288856 294.520470657 268.839288856 301.431357368 273.548196038 c 128,-1,75
 308.419692148 278.311159271 308.419692148 278.311159271 315.721551259 282.270527201 c 128,-1,76
 323.079471485 286.262299728 323.079471485 286.262299728 330.763223659 289.446592612 c 0,77,78
 361.179447361 302.051757812 361.179447361 302.051757812 396.6015625 302.051757812 c 128,-1,79
 432.02465418 302.051757812 432.02465418 302.051757812 462.440119336 289.44690697 c 0,80,81
 472.676839085 285.204826973 472.676839085 285.204826973 482.329876125 279.534202983 c 128,-1,82
 491.878895908 273.924683362 491.878895908 273.924683362 500.855923152 266.908360936 c 0,83,84
 503.078773945 265.171571837 503.078773945 265.171571837 505.26247401 263.35128455 c 128,-1,85
 507.446174075 261.530997263 507.446174075 261.530997263 509.5775222 259.638923918 c 128,-1,86
 511.708870325 257.746850573 511.708870325 257.746850573 513.788853443 255.785778233 c 128,-1,87
 515.868836561 253.824705894 515.868836561 253.824705894 517.910334825 251.78320763 c 0,88,89
 523.361743078 246.331389374 523.361743078 246.331389374 528.240512146 240.605418156 c 128,-1,90
 533.119281215 234.879446938 533.119281215 234.879446938 537.509318358 228.741324605 c 128,-1,91
 541.899355501 222.603202272 541.899355501 222.603202272 545.652976039 216.213605032 c 0,92,93
 556.997933532 196.899887017 556.997933532 196.899887017 562.635786024 175.230934829 c 0,94,95
 565.426389005 164.506239376 565.426389005 164.506239376 566.814536435 153.203662839 c 0,96,97
 568.17578125 142.109955086 568.17578125 142.109955086 568.17578125 130.4765625 c 0,98,99
 568.17578125 59.4334106346 568.17578125 59.4334106346 517.909629496 9.16725888058 c 128,-1,100
 467.644034592 -41.099609375 467.644034592 -41.099609375 396.6015625 -41.099609375 c 128,-1,101
 325.561340358 -41.099609375 325.561340358 -41.099609375 275.293951991 9.16777899286 c 128,-1,102
 225.026367188 59.4315436836 225.026367188 59.4315436836 225.026367188 130.4765625 c 0,66,67
EndSplineSet
EndChar

StartChar: afii57388
Encoding: 1548 1548 7
Width: 790
VWidth: 2510
GlyphClass: 2
Flags: W
LayerCount: 2
Fore
SplineSet
413.274414062 -1.099609375 m 0,0,1
 336.284179688 -1.099609375 336.284179688 -1.099609375 287.848632812 38.1318359375 c 128,-1,2
 239.438476562 77.3408203125 239.438476562 77.3408203125 223.311523438 152.719726562 c 0,3,4
 208.909179688 220.05078125 208.909179688 220.05078125 234.116210938 329.833007812 c 0,5,6
 279.127929688 525.872070312 279.127929688 525.872070312 483.5234375 723.192382812 c 2,7,-1
 507.748046875 746.578125 l 1,8,-1
 633.57421875 654.526367188 l 1,9,-1
 602.090820312 621.544921875 l 2,10,11
 463.072265625 475.915039062 463.072265625 475.915039062 440.626953125 355.391601562 c 1,12,13
 449.419921875 354.733398438 449.419921875 354.733398438 457.48046875 353.700195312 c 128,-1,14
 465.541992188 352.666992188 465.541992188 352.666992188 473.341796875 351.17578125 c 128,-1,15
 481.142578125 349.684570312 481.142578125 349.684570312 488.416992188 347.7109375 c 128,-1,16
 495.692382812 345.736328125 495.692382812 345.736328125 502.686523438 343.237304688 c 128,-1,17
 509.680664062 340.737304688 509.680664062 340.737304688 516.370117188 337.643554688 c 128,-1,18
 523.060546875 334.549804688 523.060546875 334.549804688 529.46484375 330.861328125 c 0,19,20
 570.462890625 307.241210938 570.462890625 307.241210938 588.705078125 262.853515625 c 0,21,22
 605.428710938 222.157226562 605.428710938 222.157226562 602.1015625 164.21484375 c 0,23,24
 599.705078125 124.646484375 599.705078125 124.646484375 587.020507812 94.40234375 c 0,25,26
 573.3359375 61.7744140625 573.3359375 61.7744140625 548.232421875 40.0703125 c 0,27,28
 500.616210938 -1.099609375 500.616210938 -1.099609375 413.274414062 -1.099609375 c 0,0,1
EndSplineSet
EndChar

StartChar: uni0615
Encoding: 1557 1557 8
Width: 0
VWidth: 2669
GlyphClass: 4
Flags: W
AnchorPoint: "Anchor-10" 662.887 1573.29 mark 0
AnchorPoint: "Anchor-9" 662.887 1573.29 mark 0
AnchorPoint: "Anchor-1" 662.887 2414.85 basemark 0
AnchorPoint: "Anchor-1" 662.887 1573.29 mark 0
LayerCount: 2
Fore
SplineSet
535.133789062 1774.22167969 m 1,0,-1
 668.065429688 1774.22167969 l 2,1,2
 704.3203125 1774.22167969 704.3203125 1774.22167969 731.337890625 1776.25390625 c 0,3,4
 744.921875 1777.27539062 744.921875 1777.27539062 756.827148438 1778.94140625 c 128,-1,5
 768.733398438 1780.60742188 768.733398438 1780.60742188 778.993164062 1782.92871094 c 128,-1,6
 789.42578125 1785.2890625 789.42578125 1785.2890625 797.82421875 1788.35058594 c 128,-1,7
 806.22265625 1791.41210938 806.22265625 1791.41210938 812.8515625 1795.328125 c 128,-1,8
 819.443359375 1799.43359375 819.443359375 1799.43359375 825.467773438 1803.39941406 c 128,-1,9
 831.4921875 1807.36523438 831.4921875 1807.36523438 837.002929688 1811.22949219 c 128,-1,10
 842.513671875 1815.09375 842.513671875 1815.09375 847.479492188 1818.83886719 c 128,-1,11
 852.4453125 1822.58496094 852.4453125 1822.58496094 856.895507812 1826.23339844 c 128,-1,12
 861.346679688 1829.88183594 861.346679688 1829.88183594 865.276367188 1833.43457031 c 128,-1,13
 869.206054688 1836.98632812 869.206054688 1836.98632812 872.62109375 1840.44726562 c 0,14,15
 883.764648438 1851.73144531 883.764648438 1851.73144531 889.666992188 1864.21191406 c 0,16,17
 892.661132812 1870.54394531 892.661132812 1870.54394531 894.172851562 1877.13574219 c 128,-1,18
 895.684570312 1883.72851562 895.684570312 1883.72851562 895.684570312 1890.49707031 c 0,19,20
 895.684570312 1902.09765625 895.684570312 1902.09765625 893.431640625 1912.66894531 c 128,-1,21
 891.178710938 1923.24121094 891.178710938 1923.24121094 886.709960938 1932.68457031 c 128,-1,22
 882.240234375 1942.12890625 882.240234375 1942.12890625 875.5859375 1950.46777344 c 128,-1,23
 868.930664062 1958.80761719 868.930664062 1958.80761719 860.116210938 1965.98925781 c 128,-1,24
 851.30078125 1973.171875 851.30078125 1973.171875 840.3671875 1979.17382812 c 2,25,-1
 839.358398438 1979.72753906 l 2,26,27
 825.161132812 1984.67871094 825.161132812 1984.67871094 810.700195312 1981.09863281 c 2,28,-1
 800.225585938 1977.78808594 l 2,29,30
 798.212890625 1977.05566406 798.212890625 1977.05566406 796.03125 1976.21582031 c 128,-1,31
 793.849609375 1975.375 793.849609375 1975.375 791.509765625 1974.4296875 c 128,-1,32
 789.168945312 1973.48535156 789.168945312 1973.48535156 786.654296875 1972.4296875 c 0,33,34
 782.897460938 1970.85351562 782.897460938 1970.85351562 778.517578125 1968.94335938 c 128,-1,35
 774.137695312 1967.03417969 774.137695312 1967.03417969 769.126953125 1964.78710938 c 0,36,37
 740.615234375 1952.00097656 740.615234375 1952.00097656 723.08984375 1945.0859375 c 0,38,39
 685.702148438 1929.98828125 685.702148438 1929.98828125 648.434570312 1899.27734375 c 128,-1,40
 611.166015625 1868.56640625 611.166015625 1868.56640625 573.862304688 1822.28417969 c 2,41,-1
 535.133789062 1774.22167969 l 1,0,-1
697.84375 1702.51660156 m 2,42,-1
 355.794921875 1702.51660156 l 1,43,-1
 355.794921875 1774.22167969 l 1,44,-1
 460.665039062 1774.22167969 l 1,45,-1
 460.665039062 2290.80761719 l 1,46,-1
 533.665039062 2290.80761719 l 1,47,-1
 533.665039062 1778.09960938 l 1,48,-1
 589.678710938 1891.67578125 l 2,49,50
 594.83984375 1902.14160156 594.83984375 1902.14160156 601.2734375 1912.04199219 c 128,-1,51
 607.708007812 1921.94335938 607.708007812 1921.94335938 615.432617188 1931.30273438 c 128,-1,52
 623.158203125 1940.66308594 623.158203125 1940.66308594 632.174804688 1949.45898438 c 128,-1,53
 641.192382812 1958.25585938 641.192382812 1958.25585938 651.50390625 1966.5 c 128,-1,54
 661.814453125 1974.74316406 661.814453125 1974.74316406 673.438476562 1982.42578125 c 128,-1,55
 685.0625 1990.10839844 685.0625 1990.10839844 697.983398438 1997.22558594 c 128,-1,56
 710.903320312 2004.34375 710.903320312 2004.34375 725.157226562 2010.90234375 c 128,-1,57
 739.411132812 2017.45996094 739.411132812 2017.45996094 754.965820312 2023.44238281 c 0,58,59
 778.693359375 2032.48242188 778.693359375 2032.48242188 803.2578125 2035.22949219 c 0,60,61
 809.397460938 2035.91601562 809.397460938 2035.91601562 815.60546875 2036.20800781 c 128,-1,62
 821.813476562 2036.5 821.813476562 2036.5 828.096679688 2036.39746094 c 128,-1,63
 834.37890625 2036.29394531 834.37890625 2036.29394531 840.73828125 2035.79589844 c 128,-1,64
 847.096679688 2035.296875 847.096679688 2035.296875 853.529296875 2034.40234375 c 0,65,66
 879.307617188 2030.81640625 879.307617188 2030.81640625 906.198242188 2020.828125 c 0,67,68
 927.928710938 2012.46972656 927.928710938 2012.46972656 942.330078125 1997.59863281 c 128,-1,69
 956.731445312 1982.72753906 956.731445312 1982.72753906 964.001953125 1960.8359375 c 128,-1,70
 971.2734375 1938.94433594 971.2734375 1938.94433594 971.2734375 1909.91699219 c 0,71,72
 971.2734375 1883.91796875 971.2734375 1883.91796875 966.806640625 1861.0078125 c 128,-1,73
 962.340820312 1838.09863281 962.340820312 1838.09863281 953.39453125 1818.22851562 c 128,-1,74
 944.44921875 1798.35839844 944.44921875 1798.35839844 931.069335938 1781.49804688 c 128,-1,75
 917.689453125 1764.63867188 917.689453125 1764.63867188 899.8125 1750.67285156 c 0,76,77
 879.369140625 1734.77441406 879.369140625 1734.77441406 850.252929688 1724.09179688 c 128,-1,78
 821.135742188 1713.41015625 821.135742188 1713.41015625 782.9140625 1707.96289062 c 128,-1,79
 744.692382812 1702.51660156 744.692382812 1702.51660156 697.84375 1702.51660156 c 2,42,-1
EndSplineSet
EndChar

StartChar: uni061B
Encoding: 1563 1563 9
Width: 790
VWidth: 2510
GlyphClass: 2
Flags: W
LayerCount: 2
Fore
SplineSet
216.973632812 170.4765625 m 0,0,1
 216.973632812 205.154296875 216.973632812 205.154296875 229.840820312 236.202148438 c 128,-1,2
 242.70703125 267.250976562 242.70703125 267.250976562 267.240234375 291.784179688 c 0,3,4
 317.5078125 342.051757812 317.5078125 342.051757812 388.548828125 342.051757812 c 0,5,6
 390.857421875 342.051757812 390.857421875 342.051757812 393.151367188 341.998046875 c 128,-1,7
 395.4453125 341.944335938 395.4453125 341.944335938 397.72265625 341.8359375 c 0,8,9
 402.307617188 341.618164062 402.307617188 341.618164062 406.786132812 341.182617188 c 128,-1,10
 411.315429688 340.744140625 411.315429688 340.744140625 415.760742188 340.081054688 c 128,-1,11
 420.232421875 339.415039062 420.232421875 339.415039062 424.598632812 338.526367188 c 128,-1,12
 428.99609375 337.6328125 428.99609375 337.6328125 433.305664062 336.51171875 c 0,13,14
 440.494140625 334.640625 440.494140625 334.640625 447.471679688 332.119140625 c 128,-1,15
 454.44921875 329.59765625 454.44921875 329.59765625 461.165039062 326.443359375 c 128,-1,16
 467.880859375 323.290039062 467.880859375 323.290039062 474.288085938 319.52734375 c 0,17,18
 479.080078125 316.711914062 479.080078125 316.711914062 483.7265625 313.543945312 c 0,19,20
 486.0390625 311.967773438 486.0390625 311.967773438 488.3046875 310.311523438 c 128,-1,21
 490.5703125 308.655273438 490.5703125 308.655273438 492.805664062 306.909179688 c 128,-1,22
 495.030273438 305.169921875 495.030273438 305.169921875 497.202148438 303.359375 c 128,-1,23
 499.374023438 301.548828125 499.374023438 301.548828125 501.5234375 299.641601562 c 0,24,25
 502.944335938 298.379882812 502.944335938 298.379882812 504.34375 297.086914062 c 128,-1,26
 505.7421875 295.793945312 505.7421875 295.793945312 507.118164062 294.470703125 c 128,-1,27
 508.493164062 293.1484375 508.493164062 293.1484375 509.860351562 291.78125 c 0,28,29
 516.014648438 285.625976562 516.014648438 285.625976562 521.419921875 279.143554688 c 128,-1,30
 526.912109375 272.556640625 526.912109375 272.556640625 531.62109375 265.645507812 c 128,-1,31
 536.384765625 258.657226562 536.384765625 258.657226562 540.34375 251.35546875 c 128,-1,32
 544.3359375 243.998046875 544.3359375 243.998046875 547.520507812 236.313476562 c 0,33,34
 560.124023438 205.8984375 560.124023438 205.8984375 560.124023438 170.4765625 c 0,35,36
 560.124023438 153.116210938 560.124023438 153.116210938 556.973632812 136.543945312 c 128,-1,37
 553.823242188 119.971679688 553.823242188 119.971679688 547.4765625 104.654296875 c 0,38,39
 534.831054688 74.1396484375 534.831054688 74.1396484375 509.85546875 49.166015625 c 0,40,41
 493.328125 32.6396484375 493.328125 32.6396484375 474.329101562 21.490234375 c 0,42,43
 454.958007812 10.12109375 454.958007812 10.12109375 433.229492188 4.45703125 c 0,44,45
 411.911132812 -1.099609375 411.911132812 -1.099609375 388.548828125 -1.099609375 c 0,46,47
 317.5078125 -1.099609375 317.5078125 -1.099609375 267.241210938 49.16796875 c 128,-1,48
 216.973632812 99.431640625 216.973632812 99.431640625 216.973632812 170.4765625 c 0,0,1
398.908203125 523.569335938 m 0,49,50
 382.366210938 523.569335938 382.366210938 523.569335938 367.173828125 525.341796875 c 0,51,52
 359.421875 526.24609375 359.421875 526.24609375 351.9921875 527.612304688 c 128,-1,53
 344.5625 528.977539062 344.5625 528.977539062 337.435546875 530.826171875 c 0,54,55
 322.895507812 534.599609375 322.895507812 534.599609375 309.84765625 540.32421875 c 0,56,57
 299.901367188 544.6875 299.901367188 544.6875 290.712890625 550.25 c 128,-1,58
 281.525390625 555.813476562 281.525390625 555.813476562 273.254882812 562.51171875 c 0,59,60
 256.733398438 575.892578125 256.733398438 575.892578125 243.939453125 593.703125 c 0,61,62
 235.575195312 605.346679688 235.575195312 605.346679688 228.845703125 618.861328125 c 128,-1,63
 222.116210938 632.375976562 222.116210938 632.375976562 217.258789062 646.807617188 c 128,-1,64
 212.40234375 661.23828125 212.40234375 661.23828125 208.959960938 677.329101562 c 0,65,66
 201.526367188 711.571289062 201.526367188 711.571289062 204.547851562 757.374023438 c 0,67,68
 207.409179688 800.756835938 207.409179688 800.756835938 219.749023438 854.501953125 c 0,69,70
 264.76171875 1050.54199219 264.76171875 1050.54199219 469.157226562 1247.86230469 c 2,71,-1
 493.381835938 1271.24804688 l 1,72,-1
 619.209960938 1179.19433594 l 1,73,-1
 587.721679688 1146.21289062 l 2,74,75
 577.518554688 1135.52734375 577.518554688 1135.52734375 567.979492188 1125.03515625 c 128,-1,76
 558.440429688 1114.54394531 558.440429688 1114.54394531 549.626953125 1104.32128906 c 128,-1,77
 540.813476562 1094.09765625 540.813476562 1094.09765625 532.669921875 1084.0859375 c 0,78,79
 527.446289062 1077.66210938 527.446289062 1077.66210938 522.461914062 1071.28222656 c 128,-1,80
 517.477539062 1064.90136719 517.477539062 1064.90136719 512.756835938 1058.59765625 c 128,-1,81
 508.036132812 1052.29296875 508.036132812 1052.29296875 503.555664062 1046.03515625 c 128,-1,82
 499.076171875 1039.77734375 499.076171875 1039.77734375 494.856445312 1033.59765625 c 128,-1,83
 490.63671875 1027.41699219 490.63671875 1027.41699219 486.658203125 1021.28710938 c 0,84,85
 484.177734375 1017.46582031 484.177734375 1017.46582031 481.793945312 1013.66503906 c 128,-1,86
 479.41015625 1009.86523438 479.41015625 1009.86523438 477.125 1006.09082031 c 0,87,88
 472.567382812 998.5625 472.567382812 998.5625 468.388671875 991.116210938 c 0,89,90
 466.3046875 987.40234375 466.3046875 987.40234375 464.317382812 983.711914062 c 128,-1,91
 462.330078125 980.021484375 462.330078125 980.021484375 460.438476562 976.354492188 c 0,92,93
 456.669921875 969.05078125 456.669921875 969.05078125 453.275390625 961.827148438 c 0,94,95
 439.84375 933.244140625 439.84375 933.244140625 432.166015625 905.739257812 c 0,96,97
 430.465820312 899.651367188 430.465820312 899.651367188 428.842773438 892.5859375 c 128,-1,98
 427.219726562 885.520507812 427.219726562 885.520507812 426.216796875 880.063476562 c 1,99,100
 430.014648438 879.784179688 430.014648438 879.784179688 433.407226562 879.4609375 c 128,-1,101
 436.799804688 879.137695312 436.799804688 879.137695312 440.02734375 878.748046875 c 128,-1,102
 443.254882812 878.359375 443.254882812 878.359375 446.658203125 877.865234375 c 0,103,104
 453.063476562 876.935546875 453.063476562 876.935546875 459.209960938 875.719726562 c 128,-1,105
 465.356445312 874.504882812 465.356445312 874.504882812 471.245117188 872.991210938 c 128,-1,106
 477.209960938 871.458984375 477.209960938 871.458984375 482.91015625 869.624023438 c 128,-1,107
 488.611328125 867.790039062 488.611328125 867.790039062 494.057617188 865.635742188 c 0,108,109
 496.258789062 864.764648438 496.258789062 864.764648438 498.41015625 863.84375 c 128,-1,110
 500.5625 862.923828125 500.5625 862.923828125 502.693359375 861.939453125 c 128,-1,111
 504.82421875 860.955078125 504.82421875 860.955078125 506.904296875 859.920898438 c 128,-1,112
 508.983398438 858.885742188 508.983398438 858.885742188 511.0390625 857.78515625 c 128,-1,113
 513.094726562 856.68359375 513.094726562 856.68359375 515.095703125 855.530273438 c 0,114,115
 535.200195312 843.950195312 535.200195312 843.950195312 550.323242188 826.555664062 c 128,-1,116
 565.446289062 809.161132812 565.446289062 809.161132812 574.336914062 787.524414062 c 0,117,118
 578.713867188 776.875 578.713867188 776.875 581.659179688 765.28125 c 128,-1,119
 584.60546875 753.686523438 584.60546875 753.686523438 586.235351562 741.15234375 c 0,120,121
 589.358398438 717.147460938 589.358398438 717.147460938 587.734375 688.883789062 c 0,122,123
 585.3671875 649.801757812 585.3671875 649.801757812 572.17578125 618.129882812 c 128,-1,124
 558.985351562 586.458007812 558.985351562 586.458007812 533.865234375 564.739257812 c 0,125,126
 486.249023438 523.569335938 486.249023438 523.569335938 398.908203125 523.569335938 c 0,49,50
EndSplineSet
EndChar

StartChar: uni061F
Encoding: 1567 1567 10
Width: 1322
VWidth: 2510
GlyphClass: 2
Flags: W
LayerCount: 2
Fore
SplineSet
548.572265625 170.4765625 m 0,0,1
 548.572265625 176.258789062 548.572265625 176.258789062 548.91015625 181.938476562 c 128,-1,2
 549.248046875 187.619140625 549.248046875 187.619140625 549.930664062 193.1953125 c 0,3,4
 550.068359375 194.317382812 550.068359375 194.317382812 550.219726562 195.432617188 c 128,-1,5
 550.37109375 196.547851562 550.37109375 196.547851562 550.537109375 197.665039062 c 128,-1,6
 550.705078125 198.791015625 550.705078125 198.791015625 550.881835938 199.884765625 c 128,-1,7
 551.059570312 200.978515625 551.059570312 200.978515625 551.258789062 202.114257812 c 0,8,9
 551.647460938 204.31640625 551.647460938 204.31640625 552.091796875 206.50390625 c 2,10,-1
 553.043945312 210.888671875 l 2,11,12
 553.546875 213.061523438 553.546875 213.061523438 554.106445312 215.213867188 c 0,13,14
 555.515625 220.629882812 555.515625 220.629882812 557.279296875 225.89453125 c 128,-1,15
 559.048828125 231.177734375 559.048828125 231.177734375 561.173828125 236.307617188 c 0,16,17
 562.024414062 238.361328125 562.024414062 238.361328125 562.946289062 240.421875 c 128,-1,18
 563.846679688 242.430664062 563.846679688 242.430664062 564.811523438 244.4375 c 128,-1,19
 565.774414062 246.436523438 565.774414062 246.436523438 566.802734375 248.430664062 c 128,-1,20
 567.822265625 250.404296875 567.822265625 250.404296875 568.896484375 252.352539062 c 128,-1,21
 569.965820312 254.291992188 569.965820312 254.291992188 571.104492188 256.232421875 c 0,22,23
 576.729492188 265.803710938 576.729492188 265.803710938 583.729492188 274.754882812 c 128,-1,24
 590.61328125 283.555664062 590.61328125 283.555664062 598.840820312 291.78515625 c 128,-1,25
 607.012695312 299.95703125 607.012695312 299.95703125 615.848632812 306.866210938 c 128,-1,26
 624.684570312 313.775390625 624.684570312 313.775390625 634.38671875 319.493164062 c 128,-1,27
 644.08984375 325.2109375 644.08984375 325.2109375 654.310546875 329.446289062 c 0,28,29
 684.7265625 342.051757812 684.7265625 342.051757812 720.147460938 342.051757812 c 0,30,31
 722.454101562 342.051757812 722.454101562 342.051757812 724.740234375 341.998046875 c 128,-1,32
 727.026367188 341.944335938 727.026367188 341.944335938 729.3125 341.8359375 c 128,-1,33
 731.59765625 341.727539062 731.59765625 341.727539062 733.862304688 341.564453125 c 128,-1,34
 736.126953125 341.401367188 736.126953125 341.401367188 738.388671875 341.181640625 c 128,-1,35
 740.650390625 340.961914062 740.650390625 340.961914062 742.890625 340.686523438 c 0,36,37
 748.518554688 339.995117188 748.518554688 339.995117188 754.028320312 338.952148438 c 128,-1,38
 759.537109375 337.908203125 759.537109375 337.908203125 764.919921875 336.5078125 c 128,-1,39
 770.3203125 335.1015625 770.3203125 335.1015625 775.592773438 333.334960938 c 128,-1,40
 780.865234375 331.568359375 780.865234375 331.568359375 785.985351562 329.447265625 c 0,41,42
 789.400390625 328.03125 789.400390625 328.03125 792.7578125 326.453125 c 128,-1,43
 796.114257812 324.875976562 796.114257812 324.875976562 799.391601562 323.146484375 c 128,-1,44
 802.66796875 321.41796875 802.66796875 321.41796875 805.875 319.534179688 c 0,45,46
 815.422851562 313.92578125 815.422851562 313.92578125 824.407226562 306.904296875 c 0,47,48
 828.837890625 303.44140625 828.837890625 303.44140625 833.100585938 299.657226562 c 128,-1,49
 837.364257812 295.873046875 837.364257812 295.873046875 841.454101562 291.784179688 c 0,50,51
 843.900390625 289.336914062 843.900390625 289.336914062 846.23046875 286.836914062 c 128,-1,52
 848.561523438 284.336914062 848.561523438 284.336914062 850.799804688 281.751953125 c 128,-1,53
 853.0390625 279.166992188 853.0390625 279.166992188 855.15625 276.529296875 c 128,-1,54
 857.274414062 273.891601562 857.274414062 273.891601562 859.29296875 271.16796875 c 128,-1,55
 861.311523438 268.4453125 861.311523438 268.4453125 863.204101562 265.669921875 c 0,56,57
 872.763671875 251.646484375 872.763671875 251.646484375 879.118164062 236.314453125 c 0,58,59
 882.298828125 228.638671875 882.298828125 228.638671875 884.680664062 220.616210938 c 128,-1,60
 887.0625 212.59375 887.0625 212.59375 888.631835938 204.311523438 c 0,61,62
 889.671875 198.825195312 889.671875 198.825195312 890.362304688 193.19140625 c 128,-1,63
 891.051757812 187.55859375 891.051757812 187.55859375 891.387695312 181.90625 c 128,-1,64
 891.723632812 176.252929688 891.723632812 176.252929688 891.723632812 170.4765625 c 0,65,66
 891.723632812 147.111328125 891.723632812 147.111328125 886.166015625 125.793945312 c 0,67,68
 883.345703125 114.9765625 883.345703125 114.9765625 879.069335938 104.657226562 c 128,-1,69
 874.79296875 94.3369140625 874.79296875 94.3369140625 869.1328125 84.6943359375 c 0,70,71
 857.981445312 65.693359375 857.981445312 65.693359375 841.454101562 49.16796875 c 0,72,73
 829.173828125 36.88671875 829.173828125 36.88671875 815.228515625 27.3916015625 c 128,-1,74
 801.284179688 17.8955078125 801.284179688 17.8955078125 785.96875 11.548828125 c 128,-1,75
 770.651367188 5.201171875 770.651367188 5.201171875 754.079101562 2.05078125 c 128,-1,76
 737.5078125 -1.099609375 737.5078125 -1.099609375 720.147460938 -1.099609375 c 0,77,78
 684.846679688 -1.099609375 684.846679688 -1.099609375 654.326171875 11.548828125 c 128,-1,79
 623.813476562 24.1943359375 623.813476562 24.1943359375 598.840820312 49.1669921875 c 0,80,81
 586.501953125 61.5048828125 586.501953125 61.5048828125 577.157226562 75.224609375 c 0,82,83
 567.608398438 89.240234375 567.608398438 89.240234375 561.221679688 104.653320312 c 0,84,85
 558.026367188 112.36328125 558.026367188 112.36328125 555.634765625 120.401367188 c 128,-1,86
 553.243164062 128.439453125 553.243164062 128.439453125 551.668945312 136.7265625 c 0,87,88
 548.572265625 153.034179688 548.572265625 153.034179688 548.572265625 170.4765625 c 0,0,1
600.747070312 496.590820312 m 1,89,-1
 600.747070312 560.853515625 l 2,90,91
 600.732421875 562.841796875 600.732421875 562.841796875 600.686523438 565.122070312 c 128,-1,92
 600.638671875 567.4296875 600.638671875 567.4296875 600.560546875 569.883789062 c 2,93,-1
 600.369140625 574.984375 l 2,94,95
 600.256835938 577.622070312 600.256835938 577.622070312 600.112304688 580.408203125 c 128,-1,96
 599.965820312 583.208984375 599.965820312 583.208984375 599.786132812 586.172851562 c 1,97,-1
 599.393554688 592.256835938 l 2,98,99
 599.178710938 595.391601562 599.178710938 595.391601562 598.930664062 598.68359375 c 128,-1,100
 598.682617188 601.966796875 598.682617188 601.966796875 598.400390625 605.415039062 c 128,-1,101
 598.1171875 608.865234375 598.1171875 608.865234375 597.80078125 612.471679688 c 128,-1,102
 597.482421875 616.086914062 597.482421875 616.086914062 597.137695312 619.78125 c 0,103,104
 595.383789062 637.840820312 595.383789062 637.840820312 592.6640625 653.115234375 c 0,105,106
 590.127929688 667.362304688 590.127929688 667.362304688 586.64453125 679.4765625 c 2,107,-1
 583.48828125 688.349609375 l 2,108,109
 581.634765625 693.10546875 581.634765625 693.10546875 579.420898438 697.912109375 c 2,110,-1
 574.551757812 707.733398438 l 2,111,112
 573.23046875 710.223632812 573.23046875 710.223632812 571.803710938 712.749023438 c 128,-1,113
 570.375976562 715.275390625 570.375976562 715.275390625 568.85546875 717.813476562 c 0,114,115
 565.765625 722.96484375 565.765625 722.96484375 562.293945312 728.171875 c 128,-1,116
 558.779296875 733.442382812 558.779296875 733.442382812 554.865234375 738.78515625 c 0,117,118
 542.086914062 756.1953125 542.086914062 756.1953125 522.009765625 778.424804688 c 128,-1,119
 501.932617188 800.653320312 501.932617188 800.653320312 475.240234375 826.739257812 c 2,120,-1
 368.120117188 931.422851562 l 2,121,122
 340.846679688 957.51171875 340.846679688 957.51171875 317.345703125 982.569335938 c 128,-1,123
 293.844726562 1007.62695312 293.844726562 1007.62695312 274.51953125 1031.28320312 c 0,124,125
 235.05859375 1079.58886719 235.05859375 1079.58886719 212.612304688 1122.33398438 c 128,-1,126
 190.157226562 1164.90136719 190.157226562 1164.90136719 178.798828125 1210.46679688 c 128,-1,127
 167.440429688 1256.03320312 167.440429688 1256.03320312 167.487304688 1303.53027344 c 0,128,129
 167.46875 1342.56933594 167.46875 1342.56933594 173.059570312 1379.02832031 c 128,-1,130
 178.650390625 1415.48828125 178.650390625 1415.48828125 189.874023438 1449.20996094 c 128,-1,131
 201.09765625 1482.93066406 201.09765625 1482.93066406 217.821289062 1513.60839844 c 128,-1,132
 234.544921875 1544.28515625 234.544921875 1544.28515625 256.944335938 1571.92578125 c 128,-1,133
 279.34375 1599.56542969 279.34375 1599.56542969 307.1328125 1623.69726562 c 0,134,135
 447.655273438 1745.33398438 447.655273438 1745.33398438 674.322265625 1744.53710938 c 0,136,137
 695.428710938 1744.45996094 695.428710938 1744.45996094 716.333007812 1743.45117188 c 128,-1,138
 737.237304688 1742.44335938 737.237304688 1742.44335938 757.93359375 1740.50097656 c 0,139,140
 768.286132812 1739.52929688 768.286132812 1739.52929688 778.58203125 1738.32519531 c 128,-1,141
 788.87890625 1737.12109375 788.87890625 1737.12109375 799.124023438 1735.68261719 c 0,142,143
 819.6171875 1732.80566406 819.6171875 1732.80566406 839.885742188 1728.99609375 c 128,-1,144
 860.170898438 1725.18457031 860.170898438 1725.18457031 880.212890625 1720.44433594 c 128,-1,145
 900.25390625 1715.70410156 900.25390625 1715.70410156 920.122070312 1710.01757812 c 0,146,147
 974.974609375 1694.203125 974.974609375 1694.203125 1029.33886719 1670.58105469 c 0,148,149
 1047.40820312 1662.72949219 1047.40820312 1662.72949219 1065.42382812 1654.02246094 c 128,-1,150
 1083.44042969 1645.31542969 1083.44042969 1645.31542969 1101.35449219 1635.78027344 c 128,-1,151
 1119.26855469 1626.24511719 1119.26855469 1626.24511719 1137.12792969 1615.86035156 c 2,152,-1
 1166.54492188 1598.75585938 l 1,153,-1
 1081.96191406 1377.8671875 l 1,154,-1
 1041.09179688 1402.34472656 l 2,155,156
 1021.37597656 1414.15234375 1021.37597656 1414.15234375 1004.12011719 1423.9453125 c 128,-1,157
 986.864257812 1433.73730469 986.864257812 1433.73730469 972.208007812 1441.44628906 c 0,158,159
 961.828125 1446.90625 961.828125 1446.90625 952.154296875 1451.63378906 c 128,-1,160
 942.48046875 1456.36132812 942.48046875 1456.36132812 933.908203125 1460.18261719 c 128,-1,161
 925.334960938 1464.00390625 925.334960938 1464.00390625 917.678710938 1467.0234375 c 0,162,163
 881.826171875 1481.0703125 881.826171875 1481.0703125 847.372070312 1490.41699219 c 0,164,165
 813.221679688 1499.68066406 813.221679688 1499.68066406 780.432617188 1504.28710938 c 0,166,167
 747.922851562 1508.85546875 747.922851562 1508.85546875 716.852539062 1508.79785156 c 0,168,169
 704.59765625 1508.8125 704.59765625 1508.8125 693.06640625 1508.44628906 c 128,-1,170
 681.53515625 1508.07910156 681.53515625 1508.07910156 670.52734375 1507.33007812 c 128,-1,171
 659.631835938 1506.58789062 659.631835938 1506.58789062 649.323242188 1505.47363281 c 128,-1,172
 639.014648438 1504.359375 639.014648438 1504.359375 629.311523438 1502.88085938 c 0,173,174
 610.15625 1499.96191406 610.15625 1499.96191406 593.024414062 1495.51757812 c 0,175,176
 576.2421875 1491.16308594 576.2421875 1491.16308594 561.432617188 1485.34179688 c 0,177,178
 533.375976562 1474.31347656 533.375976562 1474.31347656 512.858398438 1457.72949219 c 0,179,180
 502.946289062 1449.3671875 502.946289062 1449.3671875 494.625976562 1440.796875 c 128,-1,181
 486.3046875 1432.22753906 486.3046875 1432.22753906 479.360351562 1423.20703125 c 128,-1,182
 472.416015625 1414.1875 472.416015625 1414.1875 466.772460938 1404.76757812 c 128,-1,183
 461.12890625 1395.34863281 461.12890625 1395.34863281 456.415039062 1385.01074219 c 0,184,185
 437.473632812 1343.47167969 437.473632812 1343.47167969 437.370117188 1291.32226562 c 0,186,187
 437.3828125 1287.94335938 437.3828125 1287.94335938 437.510742188 1284.33789062 c 128,-1,188
 437.639648438 1280.73242188 437.639648438 1280.73242188 437.873046875 1277.28125 c 128,-1,189
 438.112304688 1273.75195312 438.112304688 1273.75195312 438.463867188 1270.24609375 c 128,-1,190
 438.815429688 1266.73925781 438.815429688 1266.73925781 439.282226562 1263.22460938 c 128,-1,191
 439.74609375 1259.72167969 439.74609375 1259.72167969 440.32421875 1256.23144531 c 128,-1,192
 440.901367188 1252.74023438 440.901367188 1252.74023438 441.592773438 1249.2578125 c 0,193,194
 442.978515625 1242.27832031 442.978515625 1242.27832031 444.817382812 1235.34179688 c 128,-1,195
 446.663085938 1228.38183594 446.663085938 1228.38183594 448.96484375 1221.45703125 c 128,-1,196
 451.276367188 1214.50292969 451.276367188 1214.50292969 454.045898438 1207.58886719 c 0,197,198
 459.627929688 1193.65625 459.627929688 1193.65625 467.024414062 1179.95507812 c 0,199,200
 471.94921875 1171.02050781 471.94921875 1171.02050781 477.9453125 1161.72558594 c 0,201,202
 480.974609375 1157.02929688 480.974609375 1157.02929688 484.26953125 1152.25976562 c 128,-1,203
 487.563476562 1147.49121094 487.563476562 1147.49121094 491.116210938 1142.66308594 c 0,204,205
 505.504882812 1123.11132812 505.504882812 1123.11132812 523.802734375 1102.95214844 c 0,206,207
 533.282226562 1092.50878906 533.282226562 1092.50878906 543.334960938 1082.34765625 c 128,-1,208
 553.387695312 1072.18554688 553.387695312 1072.18554688 565.327148438 1061.0078125 c 2,209,-1
 674.865234375 952.693359375 l 2,210,211
 731.227539062 898.881835938 731.227539062 898.881835938 767.04296875 853.301757812 c 0,212,213
 804.859375 805.176757812 804.859375 805.176757812 821.247070312 764.685546875 c 0,214,215
 825.674804688 753.6640625 825.674804688 753.6640625 829.525390625 742.158203125 c 128,-1,216
 833.376953125 730.65234375 833.376953125 730.65234375 836.641601562 718.70703125 c 128,-1,217
 839.90625 706.762695312 839.90625 706.762695312 842.603515625 694.3984375 c 128,-1,218
 845.299804688 682.03515625 845.299804688 682.03515625 847.462890625 669.127929688 c 0,219,220
 856.025390625 618.02734375 856.025390625 618.02734375 856.025390625 558.696289062 c 2,221,-1
 856.025390625 496.590820312 l 1,222,-1
 600.747070312 496.590820312 l 1,89,-1
EndSplineSet
EndChar

StartChar: uni0621
Encoding: 1569 1569 11
Width: 1063
VWidth: 2669
GlyphClass: 2
Flags: W
AnchorPoint: "Anchor-7" 534.82 -183.02 basechar 0
AnchorPoint: "Anchor-10" 470.085 1538.21 basechar 0
LayerCount: 2
Fore
SplineSet
95.2958984375 -3.513671875 m 1,0,-1
 95.2958984375 244.404296875 l 1,1,-1
 125.295898438 252.149414062 l 2,2,3
 197.950195312 270.909179688 197.950195312 270.909179688 265.1484375 294.388671875 c 128,-1,4
 332.346679688 317.868164062 332.346679688 317.868164062 393.93359375 345.9296875 c 1,5,6
 389.3515625 347.215820312 389.3515625 347.215820312 385.6796875 348.297851562 c 128,-1,7
 382.008789062 349.379882812 382.008789062 349.379882812 377.892578125 350.653320312 c 0,8,9
 363.862304688 354.994140625 363.862304688 354.994140625 350.61328125 359.837890625 c 128,-1,10
 337.36328125 364.682617188 337.36328125 364.682617188 324.72265625 370.111328125 c 128,-1,11
 312.081054688 375.540039062 312.081054688 375.540039062 300.216796875 381.5 c 0,12,13
 227.719726562 417.915039062 227.719726562 417.915039062 184.044921875 473.563476562 c 0,14,15
 177.321289062 482.129882812 177.321289062 482.129882812 171.140625 491.036132812 c 128,-1,16
 164.9609375 499.942382812 164.9609375 499.942382812 159.340820312 509.161132812 c 128,-1,17
 153.721679688 518.379882812 153.721679688 518.379882812 148.65625 527.918945312 c 128,-1,18
 143.590820312 537.45703125 143.590820312 537.45703125 139.094726562 547.290039062 c 128,-1,19
 134.59765625 557.123046875 134.59765625 557.123046875 130.666015625 567.254882812 c 128,-1,20
 126.734375 577.387695312 126.734375 577.387695312 123.379882812 587.795898438 c 0,21,22
 113.361328125 618.873046875 113.361328125 618.873046875 108.397460938 652.482421875 c 128,-1,23
 103.43359375 686.091796875 103.43359375 686.091796875 103.43359375 722.059570312 c 0,24,25
 103.43359375 988.3671875 103.43359375 988.3671875 304.891601562 1111.58984375 c 0,26,27
 503.1796875 1233.76855469 503.1796875 1233.76855469 803.268554688 1168.72363281 c 2,28,-1
 834.794921875 1161.890625 l 1,29,-1
 834.794921875 900.634765625 l 1,30,-1
 784.276367188 914.40234375 l 2,31,32
 679.901367188 942.849609375 679.901367188 942.849609375 604.540039062 940.6953125 c 0,33,34
 481.2890625 938.280273438 481.2890625 938.280273438 421.372070312 880.3125 c 0,35,36
 392.305664062 852.19140625 392.305664062 852.19140625 377.267578125 809.758789062 c 128,-1,37
 362.229492188 767.327148438 362.229492188 767.327148438 362.229492188 707.772460938 c 0,38,39
 362.229492188 632.19140625 362.229492188 632.19140625 412.23046875 584.934570312 c 128,-1,40
 462.231445312 537.676757812 462.231445312 537.676757812 575.134765625 515.446289062 c 0,41,42
 640.875976562 502.779296875 640.875976562 502.779296875 695.171875 503.397460938 c 128,-1,43
 749.466796875 504.014648438 749.466796875 504.014648438 795.057617188 517.3125 c 0,44,45
 803.83203125 519.87109375 803.83203125 519.87109375 812.48046875 522.771484375 c 128,-1,46
 821.12890625 525.670898438 821.12890625 525.670898438 829.662109375 528.916015625 c 128,-1,47
 838.196289062 532.161132812 838.196289062 532.161132812 846.612304688 535.750976562 c 128,-1,48
 855.02734375 539.340820312 855.02734375 539.340820312 863.333007812 543.278320312 c 128,-1,49
 871.638671875 547.215820312 871.638671875 547.215820312 879.833984375 551.501953125 c 2,50,-1
 938.37109375 582.115234375 l 1,51,-1
 938.37109375 320.885742188 l 1,52,-1
 921.317382812 308.942382812 l 2,53,54
 877.34375 278.145507812 877.34375 278.145507812 550.25390625 136.294921875 c 1,55,56
 414.573242188 83.0458984375 414.573242188 83.0458984375 311.051757812 50.00390625 c 0,57,58
 211.196289062 18.1298828125 211.196289062 18.1298828125 142.638671875 5.3271484375 c 2,59,-1
 95.2958984375 -3.513671875 l 1,0,-1
EndSplineSet
EndChar

StartChar: uni0627
Encoding: 1575 1575 17
Width: 535
VWidth: 2669
GlyphClass: 2
Flags: W
AnchorPoint: "Anchor-10" 241.585 1519.19 basechar 0
AnchorPoint: "Anchor-7" 240.005 -259.855 basechar 0
LayerCount: 2
Fore
SplineSet
120.102539062 1424.4609375 m 1,0,-1
 374.426757812 1424.4609375 l 5,1,-1
 374.426757812 0.7158203125 l 1,2,-1
 120.102539062 0.7158203125 l 1,3,-1
 120.102539062 1424.4609375 l 1,0,-1
EndSplineSet
Substitution2: "'fina' Terminal Forms in Arabic lookup 9 subtable" uniFE8E
EndChar

StartChar: uni062D
Encoding: 1581 1581 23
Width: 1405
VWidth: 2669
GlyphClass: 2
Flags: W
AnchorPoint: "Anchor-10" 607.886 1532.69 basechar 0
AnchorPoint: "Anchor-7" 317.376 -884.215 basechar 0
LayerCount: 2
Fore
SplineSet
960.287109375 510.322265625 m 0,0,1
 312.981445312 271.737304688 312.981445312 271.737304688 298.938476562 -107.788085938 c 0,2,3
 290.453797036 -323.388084555 290.453797036 -323.388084555 424.106293049 -422.896678996 c 128,-1,4
 557.758789062 -522.405273438 557.758789062 -522.405273438 835.391601562 -522.240234375 c 2,5,-1
 1313.53613281 -521.95703125 l 1,6,-1
 1313.53613281 -778.915039062 l 1,7,-1
 822.02734375 -777.919921875 l 2,8,9
 406.9453125 -776.962890625 406.9453125 -776.962890625 222.608398438 -600.662109375 c 128,-1,10
 38.271484375 -424.361328125 38.271484375 -424.361328125 51.2158203125 -120.750488281 c 128,-1,11
 64.16015625 182.860351562 64.16015625 182.860351562 269.5234375 388.868164062 c 128,-1,12
 474.885742188 594.875976562 474.885742188 594.875976562 862.721679688 716.9921875 c 1,13,14
 633.655119357 796.253100119 633.655119357 796.253100119 571.327559679 807.12655006 c 132,-1,15
 509 818 509 818 474.395507812 812.149414062 c 0,16,17
 388.098445092 800.278923609 388.098445092 800.278923609 322.9609375 651.344726562 c 2,18,-1
 307.744140625 616.551757812 l 1,19,-1
 93.1318359375 697.420898438 l 1,20,-1
 107.71875 735.06640625 l 2,21,22
 138.59765625 814.762695312 138.59765625 814.762695312 166.2578125 866.194335938 c 0,23,24
 229.345703125 985.057617188 229.345703125 985.057617188 333.940429688 1032.32128906 c 128,-1,25
 438.534179688 1079.58496094 438.534179688 1079.58496094 556.308105469 1055.578125 c 128,-1,26
 674.08203125 1031.57128906 674.08203125 1031.57128906 895.311523438 948.091796875 c 2,27,-1
 1294.92382812 797.979492188 l 1,28,-1
 1294.81835938 579.625976562 l 1,29,-1
 1258.38183594 576.3828125 l 2,30,31
 1103.77991611 562.623382097 1103.77991611 562.623382097 960.287109375 510.322265625 c 0,0,1
EndSplineSet
Substitution2: "'fina' Terminal Forms in Arabic lookup 9 subtable" uniFEA2
Substitution2: "'medi' Medial Forms in Arabic lookup 11 subtable" uniFEA4
Substitution2: "'init' Initial Forms in Arabic lookup 13 subtable" uniFEA3
EndChar

StartChar: uni062F
Encoding: 1583 1583 25
Width: 1099
VWidth: 2669
GlyphClass: 2
Flags: W
AnchorPoint: "Anchor-10" 369.752 1377.28 basechar 0
AnchorPoint: "Anchor-7" 424.105 -274.98 basechar 0
LayerCount: 2
Fore
SplineSet
528.805664062 -1.0966796875 m 2,0,-1
 83.607421875 -1.0947265625 l 1,1,-1
 83.607421875 268.044921875 l 1,2,-1
 123.763671875 267.888671875 l 2,3,4
 543.932828277 266.249973009 543.932828277 266.249973009 608.079695388 274.96287713 c 0,5,6
 756.286201687 295.093386031 756.286201687 295.093386031 724.501424851 380.521387223 c 4,7,8
 699.639226743 447.343561262 699.639226743 447.343561262 540.302734375 631.422851562 c 2,9,-1
 330.389648438 873.9296875 l 1,10,-1
 501.075195312 1064.42578125 l 1,11,-1
 699.514648438 837.1484375 l 2,12,13
 799.142578125 723.04296875 799.142578125 723.04296875 826.151367188 692.034179688 c 128,-1,14
 853.16015625 661.025390625 853.16015625 661.025390625 878.940917969 631.427246094 c 0,15,16
 1044.66774746 441.161081525 1044.66774746 441.161081525 977.265625 235.282226562 c 0,17,18
 896.158203125 -1.857421875 896.158203125 -1.857421875 528.805664062 -1.0966796875 c 2,0,-1
EndSplineSet
Substitution2: "'fina' Terminal Forms in Arabic lookup 9 subtable" uniFEAA
EndChar

StartChar: uni0631
Encoding: 1585 1585 27
Width: 850
VWidth: 2669
GlyphClass: 2
Flags: W
AnchorPoint: "Anchor-10" 499.307 1001.1 basechar 0
AnchorPoint: "Anchor-7" 379.173 -856.523 basechar 0
LayerCount: 2
Fore
SplineSet
162.813476562 -273.03125 m 5,0,1
 493.177734375 -271.315281899 493.177734375 -271.315281899 493.177734375 18.8984375 c 6,2,-1
 493.178710938 639.200195312 l 5,3,-1
 758.537109375 640.709960938 l 5,4,-1
 758.537109375 21.470703125 l 6,5,6
 758.531182372 -536.263202348 758.531182372 -536.263202348 165.399414062 -539.599609375 c 6,7,-1
 20.5654296875 -540.415039062 l 5,8,-1
 20.5703125 -272.93359375 l 5,9,-1
 162.813476562 -273.03125 l 5,0,1
EndSplineSet
PairPos2: "'kern' Horizontal Kerning lookup 15-2" uniFB90 dx=-150 dy=0 dh=-150 dv=0 dx=0 dy=0 dh=0 dv=0
PairPos2: "'kern' Horizontal Kerning lookup 15-2" uniFB8E dx=-150 dy=0 dh=-150 dv=0 dx=0 dy=0 dh=0 dv=0
PairPos2: "'kern' Horizontal Kerning lookup 15-2" uni06A9 dx=-150 dy=0 dh=-150 dv=0 dx=0 dy=0 dh=0 dv=0
PairPos2: "'kern' Horizontal Kerning lookup 15-2" uni064A dx=-50 dy=0 dh=-50 dv=0 dx=0 dy=0 dh=0 dv=0
PairPos2: "'kern' Horizontal Kerning lookup 15-2" uni0649 dx=-50 dy=0 dh=-50 dv=0 dx=0 dy=0 dh=0 dv=0
PairPos2: "'kern' Horizontal Kerning lookup 15-2" uni0648 dx=-50 dy=0 dh=-50 dv=0 dx=0 dy=0 dh=0 dv=0
PairPos2: "'kern' Horizontal Kerning lookup 15-2" uniFEEB dx=-150 dy=0 dh=-150 dv=0 dx=0 dy=0 dh=0 dv=0
PairPos2: "'kern' Horizontal Kerning lookup 15-2" uni0647 dx=-150 dy=0 dh=-150 dv=0 dx=0 dy=0 dh=0 dv=0
PairPos2: "'kern' Horizontal Kerning lookup 15-2" uniFEE7 dx=-150 dy=0 dh=-150 dv=0 dx=0 dy=0 dh=0 dv=0
PairPos2: "'kern' Horizontal Kerning lookup 15-2" uni0646 dx=-50 dy=0 dh=-50 dv=0 dx=0 dy=0 dh=0 dv=0
PairPos2: "'kern' Horizontal Kerning lookup 15-2" uniFEE3 dx=-150 dy=0 dh=-150 dv=0 dx=0 dy=0 dh=0 dv=0
PairPos2: "'kern' Horizontal Kerning lookup 15-2" uni0645 dx=-150 dy=0 dh=-150 dv=0 dx=0 dy=0 dh=0 dv=0
PairPos2: "'kern' Horizontal Kerning lookup 15-2" uni0644 dx=-50 dy=0 dh=-50 dv=0 dx=0 dy=0 dh=0 dv=0
PairPos2: "'kern' Horizontal Kerning lookup 15-2" uniFEDB dx=-150 dy=0 dh=-150 dv=0 dx=0 dy=0 dh=0 dv=0
PairPos2: "'kern' Horizontal Kerning lookup 15-2" uni0643 dx=-150 dy=0 dh=-150 dv=0 dx=0 dy=0 dh=0 dv=0
PairPos2: "'kern' Horizontal Kerning lookup 15-2" uniFED7 dx=-150 dy=0 dh=-150 dv=0 dx=0 dy=0 dh=0 dv=0
PairPos2: "'kern' Horizontal Kerning lookup 15-2" uni0642 dx=-50 dy=0 dh=-50 dv=0 dx=0 dy=0 dh=0 dv=0
PairPos2: "'kern' Horizontal Kerning lookup 15-2" uniFED3 dx=-150 dy=0 dh=-150 dv=0 dx=0 dy=0 dh=0 dv=0
PairPos2: "'kern' Horizontal Kerning lookup 15-2" uni0641 dx=-150 dy=0 dh=-150 dv=0 dx=0 dy=0 dh=0 dv=0
PairPos2: "'kern' Horizontal Kerning lookup 15-2" uniFECF dx=-150 dy=0 dh=-150 dv=0 dx=0 dy=0 dh=0 dv=0
PairPos2: "'kern' Horizontal Kerning lookup 15-2" uniFECB dx=-150 dy=0 dh=-150 dv=0 dx=0 dy=0 dh=0 dv=0
PairPos2: "'kern' Horizontal Kerning lookup 15-2" uniFEC7 dx=-150 dy=0 dh=-150 dv=0 dx=0 dy=0 dh=0 dv=0
PairPos2: "'kern' Horizontal Kerning lookup 15-2" uni0638 dx=-150 dy=0 dh=-150 dv=0 dx=0 dy=0 dh=0 dv=0
PairPos2: "'kern' Horizontal Kerning lookup 15-2" uniFEC3 dx=-150 dy=0 dh=-150 dv=0 dx=0 dy=0 dh=0 dv=0
PairPos2: "'kern' Horizontal Kerning lookup 15-2" uni0637 dx=-150 dy=0 dh=-150 dv=0 dx=0 dy=0 dh=0 dv=0
PairPos2: "'kern' Horizontal Kerning lookup 15-2" uniFEBF dx=-150 dy=0 dh=-150 dv=0 dx=0 dy=0 dh=0 dv=0
PairPos2: "'kern' Horizontal Kerning lookup 15-2" uni0636 dx=-150 dy=0 dh=-150 dv=0 dx=0 dy=0 dh=0 dv=0
PairPos2: "'kern' Horizontal Kerning lookup 15-2" uniFEBB dx=-150 dy=0 dh=-150 dv=0 dx=0 dy=0 dh=0 dv=0
PairPos2: "'kern' Horizontal Kerning lookup 15-2" uni0635 dx=-150 dy=0 dh=-150 dv=0 dx=0 dy=0 dh=0 dv=0
PairPos2: "'kern' Horizontal Kerning lookup 15-2" uniFEB7 dx=-150 dy=0 dh=-150 dv=0 dx=0 dy=0 dh=0 dv=0
PairPos2: "'kern' Horizontal Kerning lookup 15-2" uni0634 dx=-150 dy=0 dh=-150 dv=0 dx=0 dy=0 dh=0 dv=0
PairPos2: "'kern' Horizontal Kerning lookup 15-2" uniFEB3 dx=-150 dy=0 dh=-150 dv=0 dx=0 dy=0 dh=0 dv=0
PairPos2: "'kern' Horizontal Kerning lookup 15-2" uni0633 dx=-150 dy=0 dh=-150 dv=0 dx=0 dy=0 dh=0 dv=0
PairPos2: "'kern' Horizontal Kerning lookup 15-2" uni0632 dx=-50 dy=0 dh=-50 dv=0 dx=0 dy=0 dh=0 dv=0
PairPos2: "'kern' Horizontal Kerning lookup 15-2" uni0631 dx=-50 dy=0 dh=-50 dv=0 dx=0 dy=0 dh=0 dv=0
PairPos2: "'kern' Horizontal Kerning lookup 15-2" uniFEA7 dx=-150 dy=0 dh=-150 dv=0 dx=0 dy=0 dh=0 dv=0
PairPos2: "'kern' Horizontal Kerning lookup 15-2" uniFEA3 dx=-150 dy=0 dh=-150 dv=0 dx=0 dy=0 dh=0 dv=0
PairPos2: "'kern' Horizontal Kerning lookup 15-2" uniFE9F dx=-150 dy=0 dh=-150 dv=0 dx=0 dy=0 dh=0 dv=0
PairPos2: "'kern' Horizontal Kerning lookup 15-2" uniFE9B dx=-150 dy=0 dh=-150 dv=0 dx=0 dy=0 dh=0 dv=0
PairPos2: "'kern' Horizontal Kerning lookup 15-2" uni062B dx=-150 dy=0 dh=-150 dv=0 dx=0 dy=0 dh=0 dv=0
PairPos2: "'kern' Horizontal Kerning lookup 15-2" uniFE97 dx=-150 dy=0 dh=-150 dv=0 dx=0 dy=0 dh=0 dv=0
PairPos2: "'kern' Horizontal Kerning lookup 15-2" uni062A dx=-150 dy=0 dh=-150 dv=0 dx=0 dy=0 dh=0 dv=0
PairPos2: "'kern' Horizontal Kerning lookup 15-2" uni0629 dx=-150 dy=0 dh=-150 dv=0 dx=0 dy=0 dh=0 dv=0
PairPos2: "'kern' Horizontal Kerning lookup 15-2" uniFE91 dx=-50 dy=0 dh=-50 dv=0 dx=0 dy=0 dh=0 dv=0
PairPos2: "'kern' Horizontal Kerning lookup 15-2" uni0628 dx=-150 dy=0 dh=-150 dv=0 dx=0 dy=0 dh=0 dv=0
PairPos2: "'kern' Horizontal Kerning lookup 15-2" uni0627 dx=-200 dy=0 dh=-200 dv=0 dx=0 dy=0 dh=0 dv=0
PairPos2: "'kern' Horizontal Kerning lookup 15-2" uni0622 dx=-200 dy=0 dh=-200 dv=0 dx=0 dy=0 dh=0 dv=0
PairPos2: "'kern' Horizontal Kerning lookup 15-2" uni0621 dx=-150 dy=0 dh=-150 dv=0 dx=0 dy=0 dh=0 dv=0
PairPos2: "'kern' Horizontal Kerning lookup 15-2" uniFB94 dx=-150 dy=0 dh=-150 dv=0 dx=0 dy=0 dh=0 dv=0
PairPos2: "'kern' Horizontal Kerning lookup 15-2" uniFB92 dx=-150 dy=0 dh=-150 dv=0 dx=0 dy=0 dh=0 dv=0
PairPos2: "'kern' Horizontal Kerning lookup 15-2" afii57509 dx=-150 dy=0 dh=-150 dv=0 dx=0 dy=0 dh=0 dv=0
PairPos2: "'kern' Horizontal Kerning lookup 15-2" afii57508 dx=-50 dy=0 dh=-50 dv=0 dx=0 dy=0 dh=0 dv=0
PairPos2: "'kern' Horizontal Kerning lookup 15-2" uniFB7C dx=-150 dy=0 dh=-150 dv=0 dx=0 dy=0 dh=0 dv=0
PairPos2: "'kern' Horizontal Kerning lookup 15-2" afii57506 dx=-150 dy=0 dh=-150 dv=0 dx=0 dy=0 dh=0 dv=0
PairPos2: "'kern' Horizontal Kerning lookup 15-2" afii57440 dx=-100 dy=0 dh=-100 dv=0 dx=0 dy=0 dh=0 dv=0
Substitution2: "'fina' Terminal Forms in Arabic lookup 9 subtable" uniFEAE
EndChar

StartChar: uni0633
Encoding: 1587 1587 29
Width: 2600
VWidth: 2669
GlyphClass: 2
Flags: W
AnchorPoint: "Anchor-10" 591.097 1055.42 basechar 0
AnchorPoint: "Anchor-7" 345.455 -624.706 basechar 0
LayerCount: 2
Fore
SplineSet
1423.94433594 47.81640625 m 1,0,1
 1400 -448 1400 -448 778.311523438 -466.791015625 c 1,2,-1
 749.728515625 -466.791015625 l 2,3,4
 425 -467 425 -467 254.524414062 -328.331054688 c 0,5,6
 83.876953125 -189.900183184 83.876953125 -189.900183184 83.876953125 81.5224609375 c 2,7,-1
 83.876953125 362.864257812 l 2,8,9
 84 439 84 439 119.92578125 486.458007812 c 0,10,11
 155.72879313 533.642578125 155.72879313 533.642578125 223.729492188 533.642578125 c 2,12,-1
 341.977539062 533.642578125 l 1,13,-1
 341.977539062 82.732421875 l 2,14,15
 342 -59 342 -59 439.670898438 -128.188476562 c 0,16,17
 536.756292623 -197.825195312 536.756292623 -197.825195312 751.955078125 -197.825195312 c 2,18,-1
 777.630859375 -197.825195312 l 1,19,-1
 805.8125 -197.225585938 l 2,20,21
 1078 -191 1078 -191 1144.08691406 -45.0185546875 c 0,22,23
 1169.20158595 11.4532779988 1169.20158595 11.4532779988 1169.16015625 86.9462890625 c 2,24,-1
 1168.82519531 697.310546875 l 1,25,-1
 1438.76171875 697.547851562 l 1,26,-1
 1439.46777344 438.43359375 l 6,27,28
 1440 259 1440 259 1591.97753906 256.846679688 c 0,29,30
 1733.49021521 254.993580665 1733.49021521 254.993580665 1732.87695312 445.84765625 c 2,31,-1
 1732.04492188 704.78515625 l 1,32,-1
 1985.19824219 704.78515625 l 1,33,-1
 1985.96777344 439.77734375 l 2,34,35
 1986 340 1986 340 2021.01074219 298.0078125 c 0,36,37
 2056 257 2056 257 2122.90966797 257.702148438 c 0,38,39
 2190 259 2190 259 2220.16308594 304.526367188 c 0,40,41
 2250.09863281 350.150323595 2250.09863281 350.150323595 2250.09863281 461.303710938 c 2,42,-1
 2250.09863281 706.783203125 l 1,43,-1
 2508.19824219 706.783203125 l 1,44,-1
 2508.19824219 467.463867188 l 2,45,46
 2508 241 2508 241 2411.2109375 119.866210938 c 0,47,48
 2314 -2 2314 -2 2126.00585938 -1.669921875 c 0,49,50
 1938 -2 1938 -2 1852.7734375 134.484375 c 1,51,52
 1772 -3 1772 -3 1609.47265625 -1.09765625 c 0,53,54
 1495 0 1495 0 1423.94433594 47.81640625 c 1,0,1
EndSplineSet
Substitution2: "'fina' Terminal Forms in Arabic lookup 9 subtable" uniFEB2
Substitution2: "'medi' Medial Forms in Arabic lookup 11 subtable" uniFEB4
Substitution2: "'init' Initial Forms in Arabic lookup 13 subtable" uniFEB3
EndChar

StartChar: uni0635
Encoding: 1589 1589 31
Width: 2702
VWidth: 2669
GlyphClass: 2
Flags: W
AnchorPoint: "Anchor-10" 551.026 1055.42 basechar 0
AnchorPoint: "Anchor-7" 248.526 -613.175 basechar 0
LayerCount: 2
Fore
SplineSet
1708.63183594 281.57421875 m 1,0,-1
 2039.24316406 281.57421875 l 2,1,2
 2146.20117188 281.30859375 2146.20117188 281.30859375 2220.36865234 313.268066406 c 128,-1,3
 2294.53613281 345.227539062 2294.53613281 345.227539062 2321.03027344 392.173828125 c 128,-1,4
 2347.52539062 439.120117188 2347.52539062 439.120117188 2343.35351562 520.358398438 c 128,-1,5
 2339.18164062 601.596679688 2339.18164062 601.596679688 2306.12402344 636.065429688 c 128,-1,6
 2273.06738281 670.534179688 2273.06738281 670.534179688 2196.36425781 668.5859375 c 0,7,8
 2093.41079798 665.970942689 2093.41079798 665.970942689 1850.66992188 428.864257812 c 0,9,10
 1781.1640625 360.971679688 1781.1640625 360.971679688 1708.63183594 281.57421875 c 1,0,-1
1392.83886719 82.140625 m 2,11,12
 1393.01040665 -447.011329048 1393.01040665 -447.011329048 746.311523438 -466.791015625 c 1,13,-1
 717.731445312 -466.791015625 l 2,14,15
 393.172851562 -466.899414062 393.172851562 -466.899414062 222.525390625 -328.331054688 c 128,-1,16
 51.876953125 -189.763671875 51.876953125 -189.763671875 51.876953125 81.5224609375 c 2,17,-1
 51.876953125 362.8671875 l 2,18,19
 51.94921875 439.276367188 51.94921875 439.276367188 87.9267578125 486.458984375 c 128,-1,20
 123.903320312 533.642578125 123.903320312 533.642578125 191.729492188 533.642578125 c 2,21,-1
 309.977539062 533.642578125 l 1,22,-1
 309.977539062 82.734375 l 2,23,24
 309.987304688 -58.5498046875 309.987304688 -58.5498046875 407.670898438 -128.1875 c 128,-1,25
 505.354492188 -197.825195312 505.354492188 -197.825195312 719.955078125 -197.825195312 c 2,26,-1
 745.631835938 -197.825195312 l 1,27,-1
 773.83203125 -197.225585938 l 2,28,29
 963.903320312 -193.34375 963.903320312 -193.34375 1050.53125 -123.534179688 c 128,-1,30
 1137.16015625 -53.724609375 1137.16015625 -53.724609375 1137.16015625 86.943359375 c 2,31,-1
 1136.77734375 697.3203125 l 1,32,-1
 1397.65234375 697.453125 l 1,33,-1
 1397.77050781 530.4765625 l 1,34,35
 1411.50625203 421.525601439 1411.50625203 421.525601439 1489.71582031 389.624023438 c 1,36,37
 1617.73046875 537.298828125 1617.73046875 537.298828125 1690.71582031 610.284179688 c 0,38,39
 1877.703125 797.271484375 1877.703125 797.271484375 2019.75488281 876.077148438 c 128,-1,40
 2161.80664062 954.8828125 2161.80664062 954.8828125 2357.05566406 901.5625 c 0,41,42
 2606.69838401 833.656084134 2606.69838401 833.656084134 2610.2265625 476.671875 c 0,43,44
 2612.1636256 207.430005379 2612.1636256 207.430005379 2386.22753906 72.1015625 c 0,45,46
 2265.4296875 0.2578125 2265.4296875 0.2578125 2119.63574219 0.1904296875 c 2,47,-1
 1708 0 l 2,48,49
 1493.68359375 0 1493.68359375 0 1392.83886719 82.8408203125 c 1,50,-1
 1392.83886719 82.140625 l 2,11,12
EndSplineSet
Substitution2: "'fina' Terminal Forms in Arabic lookup 9 subtable" uniFEBA
Substitution2: "'medi' Medial Forms in Arabic lookup 11 subtable" uniFEBC
Substitution2: "'init' Initial Forms in Arabic lookup 13 subtable" uniFEBB
EndChar

StartChar: uni0637
Encoding: 1591 1591 33
Width: 1519
VWidth: 2669
GlyphClass: 2
Flags: W
AnchorPoint: "Anchor-10" 452.291 1707.62 basechar 0
AnchorPoint: "Anchor-7" 669.781 -248.76 basechar 0
LayerCount: 2
Fore
SplineSet
526.140625 282.286132812 m 1,0,-1
 856.751953125 282.286132812 l 2,1,2
 966 282 966 282 1037.87744141 313.979980469 c 0,3,4
 1112 346 1112 346 1148.68261719 412.332519531 c 0,5,6
 1179 468 1179 468 1167 547 c 4,7,8
 1159 600 1159 600 1131.45338892 628.688736691 c 0,9,10
 1024 740 1024 740 803.16015625 552.853515625 c 0,11,12
 672 442 672 442 526.140625 282.286132812 c 1,0,-1
321 416.405273438 m 1,13,-1
 321 1505.50976562 l 1,14,-1
 575.32421875 1505.50976562 l 1,15,-1
 575.32421875 687.419921875 l 1,16,17
 706.51244377 806.988435705 706.51244377 806.988435705 850.095577354 878.771073322 c 128,-1,18
 993.678710938 950.553710938 993.678710938 950.553710938 1174.41894531 902.314453125 c 0,19,20
 1424.74463554 834.69772133 1424.74463554 834.69772133 1427.734375 477.393554688 c 0,21,22
 1430.208946 208.457812161 1430.208946 208.457812161 1203.73632812 72.8134765625 c 0,23,24
 1082.94607505 0.969194526619 1082.94607505 0.969194526619 937.14453125 0.90234375 c 2,25,-1
 525.55078125 0.7119140625 l 1,26,-1
 50.4853515625 -0.0654296875 l 1,27,-1
 50.4853515625 268.866210938 l 1,28,-1
 198.908203125 268.866210938 l 1,29,-1
 321 416.405273438 l 1,13,-1
EndSplineSet
Substitution2: "'fina' Terminal Forms in Arabic lookup 9 subtable" uniFEC2
Substitution2: "'medi' Medial Forms in Arabic lookup 11 subtable" uniFEC4
Substitution2: "'init' Initial Forms in Arabic lookup 13 subtable" uniFEC3
EndChar

StartChar: uni0639
Encoding: 1593 1593 35
Width: 1426
VWidth: 2669
GlyphClass: 2
Flags: W
AnchorPoint: "Anchor-10" 682.834 1661.64 basechar 0
AnchorPoint: "Anchor-7" 314.885 -861.54 basechar 0
LayerCount: 2
Fore
SplineSet
1333.09277344 -777.373046875 m 1,0,-1
 840.678710938 -776.390625 l 2,1,2
 464.5078125 -775.672851562 464.5078125 -775.672851562 268.537109375 -613.4453125 c 128,-1,3
 72.5673828125 -451.217773438 72.5673828125 -451.217773438 73.201171875 -133.91796875 c 0,4,5
 73.9764761512 297.53199115 73.9764761512 297.53199115 474.712890625 532.587890625 c 1,6,7
 337.838658136 609.533845237 337.838658136 609.533845237 302.662109375 775.623046875 c 0,8,9
 276.314817942 900.025689633 276.314817942 900.025689633 331.225585938 1027.57617188 c 0,10,11
 406.092937153 1201.47004278 406.092937153 1201.47004278 606.1875 1249.44140625 c 0,12,13
 847.69921875 1307.25488281 847.69921875 1307.25488281 1077.8046875 1194.2578125 c 2,14,-1
 1107.94921875 1179.45507812 l 1,15,-1
 1044.61230469 961.248046875 l 1,16,-1
 1004.24609375 976.278320312 l 2,17,18
 795.268356952 1054.09015199 795.268356952 1054.09015199 651.259765625 1001.16503906 c 0,19,20
 546.676771613 962.725703468 546.676771613 962.725703468 546.062014002 852.947918435 c 0,21,22
 545.765625 800.021484375 545.765625 800.021484375 565.560546875 766.955078125 c 0,23,24
 606.616663739 698.376314521 606.616663739 698.376314521 753.4609375 683.087890625 c 1,25,-1
 1176.98632812 734.54296875 l 1,26,-1
 1176.74902344 483.869140625 l 1,27,-1
 1138.67480469 482.068359375 l 2,28,29
 1095.69824219 480.03515625 1095.69824219 480.03515625 1051.29003906 478.361328125 c 0,30,31
 865.373046875 474.2421875 865.373046875 474.2421875 653.356445312 348.567382812 c 0,32,33
 314.027165309 148.50077708 314.027165309 148.50077708 313.125976562 -139.21875 c 0,34,35
 312.528320312 -332.98828125 312.528320312 -332.98828125 438.86328125 -428.432617188 c 128,-1,36
 565.198242188 -523.877929688 565.198242188 -523.877929688 836.736328125 -524.638671875 c 2,37,-1
 1334.63183594 -525.6640625 l 1,38,-1
 1333.09277344 -777.373046875 l 1,0,-1
EndSplineSet
Substitution2: "'fina' Terminal Forms in Arabic lookup 9 subtable" uniFECA
Substitution2: "'medi' Medial Forms in Arabic lookup 11 subtable" uniFECC
Substitution2: "'init' Initial Forms in Arabic lookup 13 subtable" uniFECB
EndChar

StartChar: afii57440
Encoding: 1600 1600 37
Width: 776
VWidth: 2669
GlyphClass: 2
Flags: W
AnchorPoint: "Anchor-10" 388.41 1574.29 basechar 0
AnchorPoint: "Anchor-7" 388.41 -108.815 basechar 0
LayerCount: 2
Fore
SplineSet
-51.3642578125 -0.099609375 m 1,0,-1
 -51.3642578125 268.864257812 l 1,1,-1
 826.184570312 268.864257812 l 1,2,-1
 826.184570312 -0.099609375 l 5,3,-1
 -51.3642578125 -0.099609375 l 1,0,-1
EndSplineSet
EndChar

StartChar: uni0643
Encoding: 1603 1603 40
Width: 1964
VWidth: 2669
GlyphClass: 2
Flags: W
AnchorPoint: "Anchor-10" 610.51 1718.5 basechar 0
AnchorPoint: "Anchor-7" 435.06 -261.065 basechar 0
LayerCount: 2
Fore
SplineSet
724.733398438 832.333007812 m 2,0,1
 789.12219861 824.217773438 789.12219861 824.217773438 851.122805159 824.217773438 c 128,-1,2
 913.123411708 824.217773438 913.123411708 824.217773438 970.097350385 846.361528791 c 128,-1,3
 1027.07128906 868.505284145 1027.07128906 868.505284145 1027.07128906 897.313476562 c 0,4,5
 1027.07128906 919.323567417 1027.07128906 919.323567417 970.120117188 928.333170427 c 0,6,7
 856.239589996 946.348925096 856.239589996 946.348925096 810.0859375 1006.71386719 c 0,8,9
 742.066857036 1095.67860288 742.066857036 1095.67860288 773.069335938 1193.37109375 c 0,10,11
 829.256835938 1369.9765625 829.256835938 1369.9765625 1126.59082031 1392.07324219 c 2,12,-1
 1196.40722656 1397.26074219 l 1,13,-1
 1196.40722656 1219.95117188 l 1,14,-1
 1136.67773438 1215.09179688 l 2,15,16
 937.093156736 1198.85737944 937.093156736 1198.85737944 948.779470249 1124.18759376 c 4,17,18
 952.2451478 1102.04362169 952.2451478 1102.04362169 1046.01930172 1088.25048541 c 0,19,20
 1207.63867188 1064.47807154 1207.63867188 1064.47807154 1207.63867188 916.422851562 c 0,21,22
 1207.63867188 847.119818985 1207.63867188 847.119818985 1177.94628906 799.946289062 c 0,23,24
 1048.82617188 594.807617188 1048.82617188 594.807617188 706.567382812 648.303710938 c 2,25,-1
 651.60546875 656.896484375 l 1,26,-1
 651.60546875 841.549804688 l 1,27,-1
 724.733398438 832.333007812 l 2,0,1
1833.99316406 529.063476562 m 2,28,29
 1833.99316406 273.022340321 1833.99316406 273.022340321 1724.53710938 135.702148438 c 0,30,31
 1614.9201847 -1.099609375 1614.9201847 -1.099609375 1401.68066406 -1.099609375 c 2,32,-1
 472.109375 -1.099609375 l 2,33,34
 266 -1 266 -1 158.953579387 126.055206243 c 128,-1,35
 51.9071587743 253.110412486 51.9071587743 253.110412486 51.90625 491.553710938 c 2,36,-1
 51.9052734375 747.783203125 l 1,37,-1
 310.004882812 747.783203125 l 1,38,-1
 310.004882812 502.443359375 l 2,39,40
 310 376 310 376 351.051122374 321.933105469 c 128,-1,41
 392.102244748 267.866210938 392.102244748 267.866210938 476.774414062 267.866210938 c 2,42,-1
 1409.09570312 267.866210938 l 2,43,44
 1494 268 1494 268 1535.15234375 321.728515625 c 0,45,46
 1575.89257812 375.860794414 1575.89257812 375.860794414 1575.89257812 501.233398438 c 2,47,-1
 1575.89257812 1423.90527344 l 1,48,-1
 1833.99316406 1423.90527344 l 1,49,-1
 1833.99316406 529.063476562 l 2,28,29
EndSplineSet
Substitution2: "'fina' Terminal Forms in Arabic lookup 9 subtable" uniFEDA
Substitution2: "'medi' Medial Forms in Arabic lookup 11 subtable" uniFEDC
Substitution2: "'init' Initial Forms in Arabic lookup 13 subtable" uniFEDB
EndChar

StartChar: uni0644
Encoding: 1604 1604 41
Width: 1524
VWidth: 2669
GlyphClass: 2
Flags: W
AnchorPoint: "Anchor-10" 453.222 1325.25 basechar 0
AnchorPoint: "Anchor-7" 414.672 -593.955 basechar 0
LayerCount: 2
Fore
SplineSet
309.977539062 82.7314453125 m 2,0,1
 309.977539062 -77.982312084 309.977539062 -77.982312084 407.935892356 -155.449163854 c 128,-1,2
 505.894245651 -232.916015625 505.894245651 -232.916015625 719.955078125 -232.916015625 c 2,3,-1
 745.631835938 -232.916015625 l 1,4,-1
 773.814453125 -232.315429688 l 2,5,6
 962 -228 962 -228 1050.40039062 -150.314453125 c 0,7,8
 1138.58323118 -72.3683878796 1138.58323118 -72.3683878796 1140.79296875 87.3310546875 c 2,9,-1
 1141.47460938 136.59375 l 1,10,11
 1140.80078125 181.182870231 1140.80078125 181.182870231 1140.80078125 484.077148438 c 2,12,-1
 1140.80078125 1423.33691406 l 5,13,-1
 1393.91601562 1423.33691406 l 5,14,-1
 1393.91601562 484.0703125 l 1,15,-1
 1393.51757812 140.114257812 l 1,16,-1
 1392.83691406 81.8232421875 l 2,17,18
 1390 -196 1390 -196 1230.01897221 -343.982425215 c 128,-1,19
 1070.03794441 -491.964850429 1070.03794441 -491.964850429 746.3125 -501.881835938 c 1,20,-1
 717.717773438 -501.881835938 l 2,21,22
 392 -502 392 -502 221.938476562 -353.946464835 c 128,-1,23
 51.876953125 -205.892929671 51.876953125 -205.892929671 51.876953125 81.5224609375 c 2,24,-1
 51.876953125 362.848632812 l 2,25,26
 52 439 52 439 87.8641987715 486.321289062 c 128,-1,27
 123.728397543 533.642578125 123.728397543 533.642578125 191.729492188 533.642578125 c 2,28,-1
 309.977539062 533.642578125 l 1,29,-1
 309.977539062 82.7314453125 l 2,0,1
EndSplineSet
Substitution2: "'fina' Terminal Forms in Arabic lookup 9 subtable" uniFEDE
Substitution2: "'medi' Medial Forms in Arabic lookup 11 subtable" uniFEE0
Substitution2: "'init' Initial Forms in Arabic lookup 13 subtable" uniFEDF
EndChar

StartChar: uni0645
Encoding: 1605 1605 42
Width: 1353
VWidth: 2669
GlyphClass: 2
Flags: W
AnchorPoint: "Anchor-10" 649.625 1328.64 basechar 0
AnchorPoint: "Anchor-7" 133.113 -723.833 basechar 0
LayerCount: 2
Fore
SplineSet
947.216796875 582.51953125 m 0,0,1
 912.26953125 597.026367188 912.26953125 597.026367188 838.940840212 596.985808896 c 128,-1,2
 765.612149174 596.945250605 765.612149174 596.945250605 729.381835938 591.853515625 c 1,3,4
 723.33203125 552.103515625 723.33203125 552.103515625 723.33203125 427.890489557 c 128,-1,5
 723.33203125 303.677463489 723.33203125 303.677463489 763.622338725 262.400743463 c 132,-1,6
 803.9126462 221.124023437 803.9126462 221.124023437 880.14453125 221.124023438 c 0,7,8
 890.72265625 221.124023438 890.72265625 221.124023438 902.001953125 221.943359375 c 0,9,10
 1012.54882812 229.739597879 1012.54882812 229.739597879 1012.54882812 461.465820312 c 0,11,12
 1012.54882812 555.415145077 1012.54882812 555.415145077 947.216796875 582.51953125 c 0,0,1
951.90625 841.380859375 m 1,13,14
 1090.4296875 840.041992188 1090.4296875 840.041992188 1176.96567925 747.953445583 c 128,-1,15
 1263.501671 655.864898979 1263.501671 655.864898979 1261.69921875 440.888671875 c 0,16,17
 1262.02321325 146.317674121 1262.02321325 146.317674121 1089.72070312 34.2314453125 c 0,18,19
 1001.90376778 -23.1276322566 1001.90376778 -23.1276322566 849.862461043 -16.216754432 c 128,-1,20
 697.82115431 -9.30587660735 697.82115431 -9.30587660735 599.643554688 83.814453125 c 0,21,22
 463.833007812 209.34375 463.833007812 209.34375 472.276367188 476.491210938 c 0,23,24
 473.740234375 527.049804688 473.740234375 527.049804688 475.639648438 563.349609375 c 1,25,26
 304.959960938 515.837890625 304.959960938 515.837890625 304.959960938 202.919921875 c 2,27,-1
 304.959960938 -511.770507812 l 1,28,-1
 51.7001953125 -511.770507812 l 1,29,-1
 51.7001953125 238.33984375 l 1,30,-1
 52.2626953125 238.33984375 l 1,31,32
 62.3185681946 596.786155464 62.3185681946 596.786155464 250.329101562 746.342773438 c 0,33,34
 350.781219681 826.249555022 350.781219681 826.249555022 501.661132812 841.381835938 c 1,35,-1
 951.90625 841.380859375 l 1,13,14
EndSplineSet
Substitution2: "'init' Initial Forms in Arabic lookup 13 subtable" uniFEE3
Substitution2: "'medi' Medial Forms in Arabic lookup 11 subtable" uniFEE4
Substitution2: "'fina' Terminal Forms in Arabic lookup 9 subtable" uniFEE2
EndChar

StartChar: uni0647
Encoding: 1607 1607 44
Width: 1005
VWidth: 2439
GlyphClass: 2
Flags: W
AnchorPoint: "Anchor-10" 465.816 1305.04 basechar 0
AnchorPoint: "Anchor-7" 354.65 -229.616 basechar 0
LayerCount: 2
Fore
SplineSet
320.159179688 393.814453125 m 1,0,1
 303.910898277 312.853305288 303.910898277 312.853305288 392.207402263 279.066301082 c 128,-1,2
 480.50390625 245.279296875 480.50390625 245.279296875 561.514648438 263.895507812 c 128,-1,3
 642.525390625 282.51171875 642.525390625 282.51171875 657.094726562 324.892578125 c 128,-1,4
 671.6640625 367.2734375 671.6640625 367.2734375 631.512695312 439.787109375 c 128,-1,5
 591.362304688 512.30078125 591.362304688 512.30078125 486.719726562 609.05078125 c 1,6,7
 344.904296875 463.487304688 344.904296875 463.487304688 320.159179688 393.814453125 c 1,0,1
116.513671875 145.735351562 m 0,8,9
 -44.8953863965 334.266085354 -44.8953863965 334.266085354 212.314453125 666.668945312 c 0,10,11
 255.87109375 722.959960938 255.87109375 722.959960938 306.01953125 775.938476562 c 1,12,-1
 265.176757812 811.055664062 l 1,13,-1
 423.3984375 980.305664062 l 1,14,-1
 451.987304688 959.56640625 l 2,15,16
 778.1484375 722.952148438 778.1484375 722.952148438 864.477539062 513.421875 c 0,17,18
 992.801846062 198.626870564 992.801846062 198.626870564 763.232421875 59.4716796875 c 0,19,20
 668.904296875 2.296875 668.904296875 2.296875 503.6484375 3.84033203125 c 128,-1,21
 338.392578125 5.3837890625 338.392578125 5.3837890625 252.272460938 46.5698242188 c 128,-1,22
 166.15234375 87.755859375 166.15234375 87.755859375 116.513671875 145.735351562 c 0,8,9
EndSplineSet
Substitution2: "'fina' Terminal Forms in Arabic lookup 9 subtable" uniFEEA
Substitution2: "'medi' Medial Forms in Arabic lookup 11 subtable" uniFEEC
Substitution2: "'init' Initial Forms in Arabic lookup 13 subtable" uniFEEB
EndChar

StartChar: uni0648
Encoding: 1608 1608 45
Width: 953
VWidth: 2669
GlyphClass: 2
Flags: W
AnchorPoint: "Anchor-10" 397.751 1280.08 basechar 0
AnchorPoint: "Anchor-7" 401.271 -702.646 basechar 0
LayerCount: 2
Fore
SplineSet
609.162109375 325.892578125 m 4,0,1
 609 533 609 533 517 566 c 4,2,3
 444 592 444 592 387 546 c 4,4,5
 346 513 346 513 337.360351562 464.873046875 c 4,6,7
 317 357 317 357 357.786132812 302.787109375 c 4,8,9
 384 269 384 269 466.525390625 260.049804688 c 5,10,11
 543 260 543 260 607.64453125 267.333007812 c 5,12,13
 609 298 609 298 609.162109375 325.892578125 c 4,0,1
859.9765625 25.0908203125 m 6,14,15
 860.001953125 -539.788085938 860.001953125 -539.788085938 238.899414062 -539.788085938 c 4,16,17
 214.610351562 -539.788085938 214.610351562 -539.788085938 159.404296875 -539.548828125 c 6,18,-1
 119.600585938 -539.375 l 5,19,-1
 119.456054688 -271.721679688 l 5,20,-1
 259.453125 -271.8203125 l 6,21,22
 435.399414062 -271.904296875 435.399414062 -271.904296875 515.0078125 -207.184570312 c 132,-1,23
 594.6171875 -142.46484375 594.6171875 -142.46484375 594.6171875 -6.9609375 c 6,24,-1
 594.6171875 -2.1005859375 l 5,25,26
 568.901367188 -3.787109375 568.901367188 -3.787109375 522.904296875 -3.787109375 c 132,-1,27
 476.908203125 -3.787109375 476.908203125 -3.787109375 472.952148438 -3.7802734375 c 4,28,29
 287.30859375 -3.9013671875 287.30859375 -3.9013671875 189.345703125 99.9052734375 c 132,-1,30
 91.3837890625 203.712890625 91.3837890625 203.712890625 91.3837890625 380.982421875 c 132,-1,31
 91.3837890625 558.251953125 91.3837890625 558.251953125 159.099609375 667.231445312 c 4,32,33
 259.682617188 826.58203125 259.682617188 826.58203125 472.586914062 826.58203125 c 6,34,-1
 473.756835938 826.581054688 l 6,35,36
 740.209960938 826.581054688 740.209960938 826.581054688 833.5859375 568.686523438 c 4,37,38
 861.400390625 492.73046875 861.400390625 492.73046875 861.400390625 364.966796875 c 6,39,-1
 859.9765625 32.2734375 l 5,40,-1
 859.9765625 25.0908203125 l 6,14,15
EndSplineSet
Substitution2: "'fina' Terminal Forms in Arabic lookup 9 subtable" uniFEEE
EndChar

StartChar: uni0649
Encoding: 1609 1609 46
Width: 1551
VWidth: 2669
GlyphClass: 2
Flags: W
AnchorPoint: "Anchor-10" 453.234 1303.66 basechar 0
AnchorPoint: "Anchor-7" 289.523 -670.826 basechar 0
LayerCount: 2
Fore
SplineSet
1191.52050781 345.330078125 m 2,0,1
 1319.59960938 345.330078125 1319.59960938 345.330078125 1389.66015625 276.01953125 c 128,-1,2
 1459.71972656 206.708984375 1459.71972656 206.708984375 1459.71972656 79.5498046875 c 2,3,-1
 1459.71972656 49.3212890625 l 2,4,5
 1459.9181506 -324.44476301 1459.9181506 -324.44476301 1182.44921875 -456.96484375 c 0,6,7
 1045.62304688 -522.313476562 1045.62304688 -522.313476562 846.186523438 -524.422851562 c 2,8,-1
 788.729492188 -525.030273438 l 1,9,-1
 707.154296875 -525.030273438 l 2,10,11
 221.458351661 -525.006584708 221.458351661 -525.006584708 93.4111328125 -173.84375 c 0,12,13
 50.9970703125 -57.5263671875 50.9970703125 -57.5263671875 50.9970703125 94.673828125 c 2,14,-1
 50.9970703125 417.141601562 l 2,15,16
 50.9990234375 493.54296875 50.9990234375 493.54296875 86.986328125 540.73828125 c 128,-1,17
 122.973632812 587.93359375 122.973632812 587.93359375 190.849609375 587.93359375 c 2,18,-1
 309.095703125 587.93359375 l 1,19,-1
 309.095703125 95.8740234375 l 2,20,21
 309.051757812 -84.3955078125 309.051757812 -84.3955078125 405.454101562 -170.231445312 c 128,-1,22
 501.857421875 -256.067382812 501.857421875 -256.067382812 709.39453125 -256.064453125 c 2,23,-1
 788.533203125 -256.063476562 l 1,24,-1
 854.33203125 -255.459960938 l 2,25,26
 1095.79995801 -253.31526048 1095.79995801 -253.31526048 1168.09863281 -127.87890625 c 0,27,28
 1204.04003906 -65.5205078125 1204.04003906 -65.5205078125 1204.04003906 31.150390625 c 2,29,-1
 1204.04003906 43.23046875 l 2,30,31
 1204.01974111 80.4163094768 1204.01974111 80.4163094768 1182.61523438 85.0078125 c 0,32,33
 1174.69826176 86.7057334567 1174.69826176 86.7057334567 1159.97851562 86.7509765625 c 2,34,-1
 962.733398438 87.3623046875 l 2,35,36
 861.44140625 87.7158203125 861.44140625 87.7158203125 804.415039062 142.59765625 c 128,-1,37
 747.387695312 197.48046875 747.387695312 197.48046875 747.387695312 296.271484375 c 2,38,-1
 747.387695312 364.086914062 l 2,39,40
 747.18359375 618.81640625 747.18359375 618.81640625 867.55859375 753.481445312 c 128,-1,41
 987.934570312 888.145507812 987.934570312 888.145507812 1220.13769531 888.145507812 c 2,42,-1
 1299.01660156 888.145507812 l 2,43,44
 1359.54804787 887.998947496 1359.54804787 887.998947496 1386.06152344 840.051757812 c 0,45,46
 1398.65136719 817.284179688 1398.65136719 817.284179688 1398.65136719 788.173828125 c 2,47,-1
 1398.65136719 619.1796875 l 1,48,-1
 1177.62402344 619.1796875 l 2,49,50
 1065.95155007 619.08446517 1065.95155007 619.08446517 1027.83984375 516.1640625 c 0,51,52
 1007.24609375 460.549804688 1007.24609375 460.549804688 1005.48046875 370.209960938 c 2,53,-1
 1004.99414062 345.330078125 l 1,54,-1
 1191.52050781 345.330078125 l 2,0,1
EndSplineSet
Substitution2: "'fina' Terminal Forms in Arabic lookup 9 subtable" uniFEF0
Substitution2: "'medi' Medial Forms in Arabic lookup 11 subtable" uniFBE9
Substitution2: "'init' Initial Forms in Arabic lookup 13 subtable" uniFBE8
EndChar

StartChar: uni064B
Encoding: 1611 1611 48
Width: 0
VWidth: 2629
GlyphClass: 4
Flags: W
AnchorPoint: "Anchor-10" 662.887 1245.32 mark 0
AnchorPoint: "Anchor-9" 662.887 1245.32 mark 0
AnchorPoint: "Anchor-1" 662.887 1892.67 basemark 0
AnchorPoint: "Anchor-1" 662.887 1245.32 mark 0
LayerCount: 2
Fore
SplineSet
339.7734375 1188.32519531 m 1,0,-1
 339.7734375 1312.25683594 l 1,1,-1
 987.208984375 1577.21679688 l 1,2,-1
 987.208984375 1453.28515625 l 1,3,-1
 339.7734375 1188.32519531 l 1,0,-1
339.7734375 1499.05273438 m 1,4,-1
 339.7734375 1622.98535156 l 1,5,-1
 987.208984375 1887.9453125 l 1,6,-1
 987.208984375 1764.01367188 l 1,7,-1
 339.7734375 1499.05273438 l 1,4,-1
EndSplineSet
EndChar

StartChar: uni064C
Encoding: 1612 1612 49
Width: 0
VWidth: 2629
GlyphClass: 4
Flags: W
AnchorPoint: "Anchor-10" 670.807 1383.18 mark 0
AnchorPoint: "Anchor-9" 670.807 1383.18 mark 0
AnchorPoint: "Anchor-1" 661.126 2176.33 basemark 0
AnchorPoint: "Anchor-1" 670.807 1383.18 mark 0
LayerCount: 2
Fore
SplineSet
695.9453125 1546.64746094 m 0,0,1
 721.677734375 1571.68457031 721.677734375 1571.68457031 741.91796875 1598.93164062 c 128,-1,2
 762.159179688 1626.17871094 762.159179688 1626.17871094 776.875 1655.61328125 c 2,3,-1
 793.95703125 1689.77832031 l 1,4,-1
 756.586914062 1697.70605469 l 2,5,6
 750.123046875 1699.07617188 750.123046875 1699.07617188 744.025390625 1700.62792969 c 128,-1,7
 737.927734375 1702.18066406 737.927734375 1702.18066406 732.198242188 1703.91503906 c 0,8,9
 720.768554688 1707.37304688 720.768554688 1707.37304688 710.79296875 1711.5390625 c 0,10,11
 705.7734375 1713.63476562 705.7734375 1713.63476562 701.162109375 1715.87890625 c 128,-1,12
 696.549804688 1718.12304688 696.549804688 1718.12304688 692.122070312 1720.62597656 c 0,13,14
 629.440429688 1753.70898438 629.440429688 1753.70898438 598.55078125 1796 c 128,-1,15
 567.661132812 1838.29101562 567.661132812 1838.29101562 567.661132812 1890.20898438 c 0,16,17
 567.661132812 1914.93652344 567.661132812 1914.93652344 572.475585938 1936.95800781 c 0,18,19
 574.875976562 1947.94042969 574.875976562 1947.94042969 578.487304688 1958.28515625 c 128,-1,20
 582.098632812 1968.62890625 582.098632812 1968.62890625 586.922851562 1978.3515625 c 128,-1,21
 591.747070312 1988.07421875 591.747070312 1988.07421875 597.783203125 1997.17773438 c 128,-1,22
 603.819335938 2006.28125 603.819335938 2006.28125 611.078125 2014.77832031 c 128,-1,23
 618.34375 2023.28320312 618.34375 2023.28320312 626.874023438 2031.23144531 c 128,-1,24
 635.405273438 2039.18066406 635.405273438 2039.18066406 645.181640625 2046.54785156 c 0,25,26
 649.592773438 2049.85546875 649.592773438 2049.85546875 655.271484375 2052.69433594 c 128,-1,27
 660.951171875 2055.53222656 660.951171875 2055.53222656 668.067382812 2057.93457031 c 128,-1,28
 675.182617188 2060.33691406 675.182617188 2060.33691406 683.540039062 2062.19335938 c 0,29,30
 708.918945312 2067.83007812 708.918945312 2067.83007812 745.283203125 2067.83007812 c 0,31,32
 747.39453125 2067.83007812 747.39453125 2067.83007812 749.479492188 2067.80273438 c 128,-1,33
 751.564453125 2067.77539062 751.564453125 2067.77539062 753.622070312 2067.72070312 c 128,-1,34
 755.678710938 2067.66601562 755.678710938 2067.66601562 757.709960938 2067.58398438 c 128,-1,35
 759.741210938 2067.50195312 759.741210938 2067.50195312 761.745117188 2067.39355469 c 128,-1,36
 763.748046875 2067.28417969 763.748046875 2067.28417969 765.725585938 2067.14746094 c 0,37,38
 775.596679688 2066.46679688 775.596679688 2066.46679688 784.765625 2065.11132812 c 0,39,40
 789.34375 2064.43457031 789.34375 2064.43457031 793.7578125 2063.59375 c 128,-1,41
 798.171875 2062.75292969 798.171875 2062.75292969 802.419921875 2061.74902344 c 0,42,43
 805.248046875 2061.08105469 805.248046875 2061.08105469 808.002929688 2060.33886719 c 128,-1,44
 810.7578125 2059.59667969 810.7578125 2059.59667969 813.432617188 2058.78320312 c 128,-1,45
 816.108398438 2057.96972656 816.108398438 2057.96972656 818.709960938 2057.08300781 c 0,46,47
 822.61328125 2055.75292969 822.61328125 2055.75292969 826.353515625 2054.265625 c 128,-1,48
 830.094726562 2052.77832031 830.094726562 2052.77832031 833.670898438 2051.13574219 c 128,-1,49
 837.243164062 2049.49414062 837.243164062 2049.49414062 840.658203125 2047.69238281 c 128,-1,50
 844.072265625 2045.890625 844.072265625 2045.890625 847.331054688 2043.92871094 c 0,51,52
 853.844726562 2040.00585938 853.844726562 2040.00585938 859.728515625 2035.47558594 c 0,53,54
 861.194335938 2034.34667969 861.194335938 2034.34667969 862.630859375 2033.171875 c 128,-1,55
 864.06640625 2031.99707031 864.06640625 2031.99707031 865.46484375 2030.78515625 c 128,-1,56
 866.862304688 2029.57226562 866.862304688 2029.57226562 868.221679688 2028.32226562 c 128,-1,57
 869.581054688 2027.07226562 869.581054688 2027.07226562 870.895507812 2025.79003906 c 0,58,59
 878.743164062 2018.08691406 878.743164062 2018.08691406 885.591796875 2009.96679688 c 128,-1,60
 892.440429688 2001.84667969 892.440429688 2001.84667969 898.291015625 1993.30957031 c 128,-1,61
 904.141601562 1984.77246094 904.141601562 1984.77246094 908.999023438 1975.8203125 c 128,-1,62
 913.857421875 1966.86816406 913.857421875 1966.86816406 917.734375 1957.48339844 c 0,63,64
 922.905273438 1944.96679688 922.905273438 1944.96679688 926.353515625 1931.61621094 c 128,-1,65
 929.801757812 1918.26660156 929.801757812 1918.26660156 931.532226562 1904.0234375 c 128,-1,66
 933.262695312 1889.78027344 933.262695312 1889.78027344 933.262695312 1874.671875 c 0,67,68
 933.262695312 1859.35449219 933.262695312 1859.35449219 931.69140625 1844.17480469 c 128,-1,69
 930.12109375 1828.99707031 930.12109375 1828.99707031 926.974609375 1813.92285156 c 0,70,71
 926.1875 1810.15332031 926.1875 1810.15332031 925.301757812 1806.390625 c 128,-1,72
 924.416015625 1802.62792969 924.416015625 1802.62792969 923.431640625 1798.87109375 c 128,-1,73
 922.447265625 1795.11425781 922.447265625 1795.11425781 921.36328125 1791.36328125 c 128,-1,74
 920.279296875 1787.61230469 920.279296875 1787.61230469 919.09765625 1783.86816406 c 2,75,-1
 907.606445312 1747.4921875 l 1,76,-1
 945.704101562 1745.49316406 l 2,77,78
 970.194335938 1744.20019531 970.194335938 1744.20019531 989.2890625 1744.15527344 c 0,79,80
 998.618164062 1743.65039062 998.618164062 1743.65039062 1009.64941406 1743.30664062 c 1,81,-1
 1009.64941406 1659.68847656 l 1,82,83
 1004.265625 1659.76269531 1004.265625 1659.76269531 1000.01953125 1659.83886719 c 128,-1,84
 995.772460938 1659.9140625 995.772460938 1659.9140625 992.0703125 1660.00292969 c 128,-1,85
 988.368164062 1660.09179688 988.368164062 1660.09179688 985.224609375 1660.19140625 c 128,-1,86
 982.080078125 1660.29101562 982.080078125 1660.29101562 978.834960938 1660.41992188 c 0,87,88
 965.200195312 1660.9609375 965.200195312 1660.9609375 955.26171875 1661.95703125 c 2,89,-1
 866.42578125 1670.49902344 l 1,90,-1
 857.944335938 1650.61816406 l 2,91,92
 852.759765625 1638.45507812 852.759765625 1638.45507812 845.848632812 1625.59277344 c 128,-1,93
 838.936523438 1612.72949219 838.936523438 1612.72949219 830.259765625 1599.11621094 c 128,-1,94
 821.583984375 1585.50390625 821.583984375 1585.50390625 811.181640625 1571.21875 c 128,-1,95
 800.772460938 1556.92285156 800.772460938 1556.92285156 788.631835938 1541.97949219 c 128,-1,96
 776.490234375 1527.03515625 776.490234375 1527.03515625 762.623046875 1511.45019531 c 128,-1,97
 748.754882812 1495.86621094 748.754882812 1495.86621094 733.204101562 1479.69335938 c 0,98,99
 707.70703125 1453.89746094 707.70703125 1453.89746094 681.75390625 1434.61914062 c 128,-1,100
 655.80078125 1415.34082031 655.80078125 1415.34082031 629.498046875 1402.625 c 0,101,102
 577.028320312 1377.25878906 577.028320312 1377.25878906 522.594726562 1377.25878906 c 0,103,104
 491.15234375 1377.25878906 491.15234375 1377.25878906 463.694335938 1388.05664062 c 0,105,106
 449.965820312 1393.45410156 449.965820312 1393.45410156 437.103515625 1401.64257812 c 128,-1,107
 424.241210938 1409.83105469 424.241210938 1409.83105469 412.215820312 1420.84667969 c 0,108,109
 388.0625 1442.96972656 388.0625 1442.96972656 367.591796875 1476.95410156 c 0,110,111
 357.307617188 1494.02832031 357.307617188 1494.02832031 347.965820312 1514.1015625 c 128,-1,112
 338.624023438 1534.17480469 338.624023438 1534.17480469 330.227539062 1557.26464844 c 0,113,114
 314.73046875 1599.61328125 314.73046875 1599.61328125 312.828125 1716.96679688 c 1,115,-1
 370.311523438 1716.96679688 l 1,116,117
 370.7890625 1689.95898438 370.7890625 1689.95898438 372.012695312 1668.19628906 c 128,-1,118
 373.236328125 1646.43359375 373.236328125 1646.43359375 375.227539062 1629.63378906 c 0,119,120
 376.064453125 1622.56640625 376.064453125 1622.56640625 377.075195312 1616.19042969 c 128,-1,121
 378.0859375 1609.81347656 378.0859375 1609.81347656 379.295898438 1604.00390625 c 128,-1,122
 380.505859375 1598.19335938 380.505859375 1598.19335938 381.908203125 1593.03808594 c 128,-1,123
 383.309570312 1587.8828125 383.309570312 1587.8828125 384.928710938 1583.30175781 c 128,-1,124
 386.546875 1578.72070312 386.546875 1578.72070312 388.375976562 1574.7578125 c 0,125,126
 405.563476562 1537.92871094 405.563476562 1537.92871094 425.703125 1512.8984375 c 0,127,128
 435.861328125 1500.2734375 435.861328125 1500.2734375 447.033203125 1490.57910156 c 128,-1,129
 458.205078125 1480.88574219 458.205078125 1480.88574219 470.388671875 1474.16699219 c 128,-1,130
 482.641601562 1467.41015625 482.641601562 1467.41015625 495.72265625 1464.01269531 c 128,-1,131
 508.8046875 1460.61621094 508.8046875 1460.61621094 522.594726562 1460.61621094 c 0,132,133
 539.592773438 1460.61621094 539.592773438 1460.61621094 556.76953125 1464.10253906 c 128,-1,134
 573.9453125 1467.58984375 573.9453125 1467.58984375 591.192382812 1474.50683594 c 128,-1,135
 608.440429688 1481.42382812 608.440429688 1481.42382812 625.865234375 1491.78222656 c 128,-1,136
 643.290039062 1502.14160156 643.290039062 1502.14160156 660.782226562 1515.84375 c 128,-1,137
 678.274414062 1529.546875 678.274414062 1529.546875 695.9453125 1546.64746094 c 0,0,1
817.639648438 1762.25390625 m 1,138,-1
 835.866210938 1804.77929688 l 2,139,140
 842.884765625 1821.15527344 842.884765625 1821.15527344 846.397460938 1838.67578125 c 0,141,142
 848.15234375 1847.42675781 848.15234375 1847.42675781 849.028320312 1856.42773438 c 128,-1,143
 849.905273438 1865.42871094 849.905273438 1865.42871094 849.905273438 1874.671875 c 0,144,145
 849.905273438 1932.63671875 849.905273438 1932.63671875 817.138671875 1959.60644531 c 0,146,147
 786.951171875 1984.47363281 786.951171875 1984.47363281 750.461914062 1984.47363281 c 0,148,149
 711.337890625 1984.47363281 711.337890625 1984.47363281 688.430664062 1966.70898438 c 0,150,151
 653.606445312 1940.49707031 653.606445312 1940.49707031 653.606445312 1890.20898438 c 0,152,153
 653.606445312 1881.72070312 653.606445312 1881.72070312 654.841796875 1873.77734375 c 128,-1,154
 656.078125 1865.83398438 656.078125 1865.83398438 658.530273438 1858.49609375 c 128,-1,155
 660.983398438 1851.15917969 660.983398438 1851.15917969 664.638671875 1844.38476562 c 128,-1,156
 668.293945312 1837.609375 668.293945312 1837.609375 673.138671875 1831.43945312 c 128,-1,157
 677.983398438 1825.27050781 677.983398438 1825.27050781 683.998046875 1819.68261719 c 128,-1,158
 690.01171875 1814.09375 690.01171875 1814.09375 697.1875 1809.11035156 c 128,-1,159
 704.362304688 1804.12695312 704.362304688 1804.12695312 712.674804688 1799.74316406 c 128,-1,160
 720.986328125 1795.36035156 720.986328125 1795.36035156 730.431640625 1791.58203125 c 0,161,162
 757.462890625 1780.77148438 757.462890625 1780.77148438 792.266601562 1770.06933594 c 2,163,-1
 817.639648438 1762.25390625 l 1,138,-1
EndSplineSet
EndChar

StartChar: uni064D
Encoding: 1613 1613 50
Width: 0
VWidth: 2629
GlyphClass: 4
Flags: W
AnchorPoint: "Anchor-7" 643.526 76.4551 mark 0
AnchorPoint: "Anchor-6" 643.526 76.4551 mark 0
AnchorPoint: "Anchor-0" 662.887 -546.695 basemark 0
AnchorPoint: "Anchor-0" 643.526 76.4551 mark 0
LayerCount: 2
Fore
SplineSet
341.661132812 -614.079101562 m 1,0,-1
 341.661132812 -490.145507812 l 1,1,-1
 989.095703125 -225.186523438 l 1,2,-1
 989.095703125 -349.119140625 l 1,3,-1
 341.661132812 -614.079101562 l 1,0,-1
341.661132812 -303.3515625 m 1,4,-1
 341.661132812 -179.41796875 l 1,5,-1
 989.095703125 85.5419921875 l 1,6,-1
 989.095703125 -38.3916015625 l 1,7,-1
 341.661132812 -303.3515625 l 1,4,-1
EndSplineSet
EndChar

StartChar: uni064E
Encoding: 1614 1614 51
Width: 0
VWidth: 2629
GlyphClass: 4
Flags: W
AnchorPoint: "Anchor-10" 626.586 1533.29 mark 0
AnchorPoint: "Anchor-9" 626.586 1533.29 mark 0
AnchorPoint: "Anchor-1" 626.586 1921.71 basemark 0
AnchorPoint: "Anchor-1" 626.586 1533.29 mark 0
LayerCount: 2
Fore
SplineSet
301.053710938 1502.92480469 m 1,0,-1
 301.053710938 1626.85742188 l 1,1,-1
 948.48828125 1891.81738281 l 1,2,-1
 948.48828125 1767.88476562 l 1,3,-1
 301.053710938 1502.92480469 l 1,0,-1
EndSplineSet
EndChar

StartChar: uni064F
Encoding: 1615 1615 52
Width: 0
VWidth: 2629
GlyphClass: 4
Flags: W
AnchorPoint: "Anchor-10" 643.526 1443.75 mark 0
AnchorPoint: "Anchor-9" 643.526 1443.75 mark 0
AnchorPoint: "Anchor-1" 662.887 2193.35 basemark 0
AnchorPoint: "Anchor-1" 643.526 1443.75 mark 0
LayerCount: 2
Fore
SplineSet
722.370117188 1725.01171875 m 2,0,1
 720.901367188 1725.33789062 720.901367188 1725.33789062 718.375976562 1726.2578125 c 128,-1,2
 715.680664062 1727.23925781 715.680664062 1727.23925781 712.046875 1728.81054688 c 128,-1,3
 708.375976562 1730.3984375 708.375976562 1730.3984375 703.573242188 1732.73046875 c 128,-1,4
 698.743164062 1735.07617188 698.743164062 1735.07617188 693.310546875 1737.93554688 c 0,5,6
 630.9609375 1770.26367188 630.9609375 1770.26367188 600.190429688 1812.49316406 c 128,-1,7
 569.419921875 1854.72167969 569.419921875 1854.72167969 569.419921875 1907.22070312 c 0,8,9
 569.419921875 2005.13964844 569.419921875 2005.13964844 646.940429688 2063.56054688 c 0,10,11
 675.3203125 2084.84375 675.3203125 2084.84375 747.041992188 2084.84375 c 0,12,13
 788.85546875 2084.84375 788.85546875 2084.84375 820.232421875 2074.17578125 c 0,14,15
 851.319335938 2063.60742188 851.319335938 2063.60742188 872.655273438 2042.80273438 c 0,16,17
 903.9765625 2012.05664062 903.9765625 2012.05664062 919.494140625 1974.49609375 c 0,18,19
 927.252929688 1955.71484375 927.252929688 1955.71484375 931.137695312 1935.02539062 c 128,-1,20
 935.022460938 1914.3359375 935.022460938 1914.3359375 935.022460938 1891.68457031 c 0,21,22
 935.022460938 1873.32714844 935.022460938 1873.32714844 930.829101562 1850.55859375 c 128,-1,23
 926.63671875 1827.79003906 926.63671875 1827.79003906 918.228515625 1800.76367188 c 2,24,-1
 907.016601562 1764.73730469 l 1,25,-1
 944.694335938 1762.51074219 l 2,26,27
 955.9375 1761.85058594 955.9375 1761.85058594 967.495117188 1761.35644531 c 128,-1,28
 979.05078125 1760.86230469 979.05078125 1760.86230469 990.919921875 1760.53222656 c 0,29,30
 993.889648438 1760.45019531 993.889648438 1760.45019531 997.549804688 1760.36621094 c 128,-1,31
 1001.20996094 1760.28320312 1001.20996094 1760.28320312 1004.72558594 1760.21582031 c 128,-1,32
 1008.2421875 1760.1484375 1008.2421875 1760.1484375 1011.40820312 1760.09863281 c 2,33,-1
 1011.40820312 1676.8125 l 1,34,35
 1004.625 1676.94824219 1004.625 1676.94824219 998.221679688 1677.13378906 c 128,-1,36
 991.819335938 1677.31835938 991.819335938 1677.31835938 985.536132812 1677.56054688 c 0,37,38
 970.673828125 1678.13378906 970.673828125 1678.13378906 956.161132812 1679.0390625 c 0,39,40
 917.892578125 1681.59765625 917.892578125 1681.59765625 882.240234375 1685.41601562 c 2,41,-1
 864.973632812 1687.25683594 l 1,42,-1
 854.96484375 1673.06347656 l 2,43,44
 828.893554688 1636.07421875 828.893554688 1636.07421875 794.834960938 1604.78710938 c 128,-1,45
 760.77734375 1573.50097656 760.77734375 1573.50097656 718.625976562 1547.84570312 c 0,46,47
 603.256835938 1476.90234375 603.256835938 1476.90234375 501.729492188 1438.37890625 c 128,-1,48
 400.202148438 1399.85546875 400.202148438 1399.85546875 314.364257812 1393.99511719 c 1,49,-1
 314.364257812 1477.10742188 l 1,50,51
 506.32421875 1487.70703125 506.32421875 1487.70703125 679.791015625 1623.72851562 c 0,52,53
 683.72265625 1626.80664062 683.72265625 1626.80664062 687.572265625 1629.92871094 c 128,-1,54
 691.420898438 1633.05078125 691.420898438 1633.05078125 695.186523438 1636.21777344 c 128,-1,55
 698.952148438 1639.38476562 698.952148438 1639.38476562 702.634765625 1642.59667969 c 128,-1,56
 706.317382812 1645.80859375 706.317382812 1645.80859375 709.916015625 1649.06445312 c 0,57,58
 724.31640625 1662.09472656 724.31640625 1662.09472656 737.380859375 1675.84179688 c 2,59,-1
 773.326171875 1713.69921875 l 1,60,-1
 722.370117188 1725.01171875 l 2,0,1
819.397460938 1779.26660156 m 1,61,-1
 837.625976562 1821.79199219 l 2,62,63
 839.96484375 1827.24902344 839.96484375 1827.24902344 841.915039062 1832.8359375 c 128,-1,64
 843.865234375 1838.42285156 843.865234375 1838.42285156 845.42578125 1844.13671875 c 128,-1,65
 846.986328125 1849.85058594 846.986328125 1849.85058594 848.15625 1855.6875 c 0,66,67
 849.911132812 1864.43945312 849.911132812 1864.43945312 850.788085938 1873.44042969 c 128,-1,68
 851.665039062 1882.44140625 851.665039062 1882.44140625 851.665039062 1891.68457031 c 0,69,70
 851.665039062 1949.64941406 851.665039062 1949.64941406 818.8984375 1976.61816406 c 0,71,72
 788.709960938 2001.48632812 788.709960938 2001.48632812 752.220703125 2001.48632812 c 0,73,74
 733.162109375 2001.48632812 733.162109375 2001.48632812 717.6640625 1997.17578125 c 0,75,76
 701.875976562 1992.78320312 701.875976562 1992.78320312 690.189453125 1983.72167969 c 0,77,78
 672.845703125 1970.66601562 672.845703125 1970.66601562 664.0625 1951.08496094 c 128,-1,79
 655.366210938 1931.70019531 655.366210938 1931.70019531 655.366210938 1907.22070312 c 0,80,81
 655.366210938 1873.36621094 655.366210938 1873.36621094 674.807617188 1848.56933594 c 128,-1,82
 694.248046875 1823.7734375 694.248046875 1823.7734375 732.19140625 1808.59472656 c 0,83,84
 741.212890625 1804.98730469 741.212890625 1804.98730469 751.095703125 1801.39257812 c 128,-1,85
 760.979492188 1797.79785156 760.979492188 1797.79785156 771.706054688 1794.22167969 c 128,-1,86
 782.43359375 1790.64648438 782.43359375 1790.64648438 794.026367188 1787.08105469 c 2,87,-1
 819.397460938 1779.26660156 l 1,61,-1
EndSplineSet
EndChar

StartChar: uni0650
Encoding: 1616 1616 53
Width: 0
VWidth: 2629
GlyphClass: 4
Flags: W
AnchorPoint: "Anchor-7" 566.086 -30.0254 mark 0
AnchorPoint: "Anchor-6" 566.086 -30.0254 mark 0
AnchorPoint: "Anchor-0" 673.776 -391.815 basemark 0
AnchorPoint: "Anchor-0" 566.086 -30.0254 mark 0
LayerCount: 2
Fore
SplineSet
338.03125 -426.11328125 m 1,0,-1
 338.03125 -302.1796875 l 1,1,-1
 985.465820312 -37.2197265625 l 1,2,-1
 985.465820312 -161.153320312 l 1,3,-1
 338.03125 -426.11328125 l 1,0,-1
EndSplineSet
EndChar

StartChar: uni0651
Encoding: 1617 1617 54
Width: 0
VWidth: 2629
GlyphClass: 4
Flags: W
AnchorPoint: "Anchor-10" 662.887 1578.07 mark 0
AnchorPoint: "Anchor-9" 662.887 1578.07 mark 0
AnchorPoint: "Anchor-1" 648.366 2185.49 basemark 0
AnchorPoint: "Anchor-1" 662.887 1578.07 mark 0
LayerCount: 2
Fore
SplineSet
604 1614.37207031 m 0,0,1
 561.838867188 1565.11230469 561.838867188 1565.11230469 458.32421875 1565.11230469 c 0,2,3
 429.106445312 1565.11230469 429.106445312 1565.11230469 405.024414062 1572.66894531 c 0,4,5
 393.034179688 1576.43164062 393.034179688 1576.43164062 382.260742188 1582.06835938 c 128,-1,6
 371.487304688 1587.70410156 371.487304688 1587.70410156 361.884765625 1595.23339844 c 0,7,8
 342.625 1610.33496094 342.625 1610.33496094 327.67578125 1633.30273438 c 0,9,10
 321.182617188 1643.234375 321.182617188 1643.234375 315.764648438 1653.97460938 c 128,-1,11
 310.34765625 1664.71484375 310.34765625 1664.71484375 306.00390625 1676.27636719 c 0,12,13
 297.301757812 1699.43847656 297.301757812 1699.43847656 292.892578125 1726.17578125 c 128,-1,14
 288.469726562 1752.99316406 288.469726562 1752.99316406 288.469726562 1783.24414062 c 0,15,16
 288.469726562 1829.43847656 288.469726562 1829.43847656 304.950195312 1939.4375 c 1,17,-1
 373.061523438 1939.4375 l 1,18,19
 371.172851562 1916.98730469 371.172851562 1916.98730469 369.630859375 1897.40039062 c 128,-1,20
 368.087890625 1877.81347656 368.087890625 1877.81347656 366.821289062 1860.22949219 c 0,21,22
 364.153320312 1823.17089844 364.153320312 1823.17089844 362.8125 1796.03710938 c 0,23,24
 362.141601562 1782.44042969 362.141601562 1782.44042969 361.805664062 1771.33300781 c 128,-1,25
 361.469726562 1760.22460938 361.469726562 1760.22460938 361.469726562 1751.56640625 c 0,26,27
 361.469726562 1659.35253906 361.469726562 1659.35253906 482.32421875 1656.94238281 c 0,28,29
 614.3515625 1654.34960938 614.3515625 1654.34960938 626.346679688 1821.53808594 c 0,30,31
 626.6328125 1825.49804688 626.6328125 1825.49804688 626.88671875 1831.45410156 c 128,-1,32
 627.139648438 1837.41015625 627.139648438 1837.41015625 627.36328125 1845.39746094 c 128,-1,33
 627.5859375 1853.38476562 627.5859375 1853.38476562 627.778320312 1863.35058594 c 128,-1,34
 627.970703125 1873.31640625 627.970703125 1873.31640625 628.13671875 1885.39355469 c 0,35,36
 628.76953125 1931.5703125 628.76953125 1931.5703125 628.9375 2005.10449219 c 1,37,-1
 696.1171875 2005.10449219 l 1,38,39
 698.090820312 1966.99804688 698.090820312 1966.99804688 698.090820312 1918.11132812 c 0,40,41
 698.090820312 1872.20605469 698.090820312 1872.20605469 707.415039062 1837.02539062 c 128,-1,42
 716.73828125 1801.84570312 716.73828125 1801.84570312 735.611328125 1777.43945312 c 128,-1,43
 754.591796875 1752.89355469 754.591796875 1752.89355469 782.831054688 1740.61132812 c 128,-1,44
 811.071289062 1728.32910156 811.071289062 1728.32910156 848.016601562 1728.32910156 c 0,45,46
 964.302734375 1728.32910156 964.302734375 1728.32910156 964.302734375 1919.96191406 c 0,47,48
 964.302734375 1939.8515625 964.302734375 1939.8515625 963.990234375 1958.6171875 c 128,-1,49
 963.678710938 1977.38183594 963.678710938 1977.38183594 963.060546875 1994.796875 c 128,-1,50
 962.443359375 2012.21191406 962.443359375 2012.21191406 961.526367188 2028.38964844 c 128,-1,51
 960.609375 2044.56640625 960.609375 2044.56640625 959.397460938 2059.37207031 c 128,-1,52
 958.186523438 2074.17675781 958.186523438 2074.17675781 956.6875 2087.625 c 128,-1,53
 955.188476562 2101.07324219 955.188476562 2101.07324219 953.405273438 2113.12109375 c 1,54,-1
 1025.80566406 2113.12109375 l 1,55,56
 1037.30273438 2025.41699219 1037.30273438 2025.41699219 1037.30273438 1897.953125 c 0,57,58
 1037.30273438 1817.5 1037.30273438 1817.5 1005.51464844 1753.86035156 c 0,59,60
 979.7578125 1702.77929688 979.7578125 1702.77929688 946.69140625 1675.27539062 c 128,-1,61
 913.625 1647.77050781 913.625 1647.77050781 873.118164062 1643.19335938 c 0,62,63
 799.086914062 1634.99902344 799.086914062 1634.99902344 753.264648438 1665.61230469 c 0,64,65
 751.405273438 1666.83789062 751.405273438 1666.83789062 749.576171875 1668.05664062 c 128,-1,66
 747.748046875 1669.27636719 747.748046875 1669.27636719 745.952148438 1670.48828125 c 128,-1,67
 744.155273438 1671.70019531 744.155273438 1671.70019531 742.390625 1672.90527344 c 128,-1,68
 740.626953125 1674.11035156 740.626953125 1674.11035156 738.893554688 1675.30859375 c 128,-1,69
 737.161132812 1676.50683594 737.161132812 1676.50683594 735.459960938 1677.69824219 c 128,-1,70
 733.759765625 1678.88964844 733.759765625 1678.88964844 732.08984375 1680.07421875 c 0,71,72
 727.083984375 1683.62695312 727.083984375 1683.62695312 722.75390625 1686.81933594 c 128,-1,73
 718.422851562 1690.01171875 718.422851562 1690.01171875 714.77734375 1692.83691406 c 2,74,-1
 701.515625 1703.47265625 l 2,75,76
 698.571289062 1705.93359375 698.571289062 1705.93359375 696.174804688 1708.05371094 c 128,-1,77
 693.779296875 1710.17285156 693.779296875 1710.17285156 691.961914062 1711.92285156 c 128,-1,78
 690.138671875 1713.67675781 690.138671875 1713.67675781 688.71875 1715.140625 c 128,-1,79
 687.299804688 1716.60351562 687.299804688 1716.60351562 686.33203125 1717.71777344 c 2,80,-1
 684.895507812 1719.52636719 l 1,81,-1
 673.071289062 1801.90820312 l 1,82,-1
 657.786132812 1719.22753906 l 2,83,84
 652.859375 1692.57324219 652.859375 1692.57324219 639.509765625 1666.44238281 c 128,-1,85
 626.096679688 1640.19042969 626.096679688 1640.19042969 604 1614.37207031 c 0,0,1
EndSplineSet
EndChar

StartChar: uni0652
Encoding: 1618 1618 55
Width: 0
VWidth: 2629
GlyphClass: 4
Flags: W
AnchorPoint: "Anchor-10" 684.666 1350.58 mark 0
AnchorPoint: "Anchor-9" 684.666 1350.58 mark 0
AnchorPoint: "Anchor-1" 667.727 2044.52 basemark 0
AnchorPoint: "Anchor-1" 684.666 1350.58 mark 0
LayerCount: 2
Fore
SplineSet
830.029296875 1659.28027344 m 0,0,1
 830.029296875 1688.96777344 830.029296875 1688.96777344 819.567382812 1714.38476562 c 128,-1,2
 809.10546875 1739.80175781 809.10546875 1739.80175781 788.3203125 1760.5859375 c 128,-1,3
 767.53125 1781.37695312 767.53125 1781.37695312 741.916015625 1791.8359375 c 128,-1,4
 716.30078125 1802.29589844 716.30078125 1802.29589844 686.22265625 1802.29589844 c 0,5,6
 665.927734375 1802.29589844 665.927734375 1802.29589844 647.729492188 1797.69921875 c 128,-1,7
 629.530273438 1793.10253906 629.530273438 1793.10253906 613.49609375 1783.91113281 c 128,-1,8
 597.4609375 1774.71972656 597.4609375 1774.71972656 583.728515625 1760.98632812 c 0,9,10
 563.133789062 1740.39160156 563.133789062 1740.39160156 552.776367188 1714.87304688 c 128,-1,11
 542.418945312 1689.35546875 542.418945312 1689.35546875 542.418945312 1659.28027344 c 0,12,13
 542.418945312 1598.09667969 542.418945312 1598.09667969 583.728515625 1556.78808594 c 128,-1,14
 625.038085938 1515.47753906 625.038085938 1515.47753906 686.22265625 1515.47753906 c 0,15,16
 716.30078125 1515.47753906 716.30078125 1515.47753906 741.916015625 1525.93652344 c 128,-1,17
 767.53125 1536.39648438 767.53125 1536.39648438 788.319335938 1557.1875 c 128,-1,18
 809.110351562 1577.97753906 809.110351562 1577.97753906 819.569335938 1603.59179688 c 128,-1,19
 830.029296875 1629.20605469 830.029296875 1629.20605469 830.029296875 1659.28027344 c 0,0,1
894.178710938 1659.41308594 m 128,-1,21
 894.178710938 1615.64746094 894.178710938 1615.64746094 879.158203125 1578.76367188 c 128,-1,22
 864.13671875 1541.87988281 864.13671875 1541.87988281 833.963867188 1511.51367188 c 128,-1,23
 803.821289062 1481.18261719 803.821289062 1481.18261719 767.072265625 1466.08398438 c 128,-1,24
 730.32421875 1450.98535156 730.32421875 1450.98535156 686.59765625 1450.98535156 c 0,25,26
 657.30859375 1450.98535156 657.30859375 1450.98535156 631.274414062 1457.69042969 c 0,27,28
 618.280273438 1461.03808594 618.280273438 1461.03808594 606.060546875 1466.06054688 c 128,-1,29
 593.83984375 1471.08300781 593.83984375 1471.08300781 582.369140625 1477.79003906 c 0,30,31
 559.397460938 1491.22167969 559.397460938 1491.22167969 539.233398438 1511.51367188 c 0,32,33
 508.98828125 1541.95214844 508.98828125 1541.95214844 494.006835938 1578.71972656 c 0,34,35
 486.515625 1597.10351562 486.515625 1597.10351562 482.766601562 1617.26269531 c 128,-1,36
 479.016601562 1637.42285156 479.016601562 1637.42285156 479.016601562 1659.41308594 c 0,37,38
 479.016601562 1746.66210938 479.016601562 1746.66210938 539.177734375 1806.83496094 c 128,-1,39
 599.336914062 1866.99511719 599.336914062 1866.99511719 686.59765625 1866.99511719 c 0,40,41
 730.34765625 1866.99511719 730.34765625 1866.99511719 767.109375 1851.98730469 c 128,-1,42
 803.872070312 1836.97949219 803.872070312 1836.97949219 834.015625 1806.83496094 c 128,-1,43
 864.162109375 1776.68359375 864.162109375 1776.68359375 879.170898438 1739.92089844 c 128,-1,20
 894.178710938 1703.15722656 894.178710938 1703.15722656 894.178710938 1659.41308594 c 128,-1,21
EndSplineSet
EndChar

StartChar: uni0653
Encoding: 1619 1619 56
Width: 0
VWidth: 2629
GlyphClass: 4
Flags: W
AnchorPoint: "Anchor-10" 411.685 1484.17 mark 0
AnchorPoint: "Anchor-9" 411.685 1484.17 mark 0
AnchorPoint: "Anchor-1" 404.836 1852.71 basemark 0
AnchorPoint: "Anchor-1" 411.685 1484.17 mark 0
LayerCount: 2
Fore
SplineSet
309.849609375 1752 m 2,0,-1
 705.401739897 1752 l 1,1,-1
 707.301454439 1562 l 1,2,-1
 322.849609375 1562 l 2,3,4
 280.929503027 1562 280.929503027 1562 245.657539256 1543.08547201 c 0,5,6
 233.829690452 1536.74280908 233.829690452 1536.74280908 222.579044219 1528.17129529 c 128,-1,7
 211.328397986 1519.59978149 211.328397986 1519.59978149 200.389207455 1508.48724627 c 128,-1,8
 189.450016924 1497.37471105 189.450016924 1497.37471105 179.102810017 1483.8907704 c 2,9,-1
 145.876682601 1440.59221321 l 1,10,-1
 18.5547214209 1584.45406275 l 1,11,-1
 37.4596800684 1613.24702668 l 2,12,13
 128.835489109 1752 128.835489109 1752 309.849609375 1752 c 2,0,-1
EndSplineSet
EndChar

StartChar: uni0657
Encoding: 1623 1623 59
Width: 0
VWidth: 2629
GlyphClass: 4
Flags: W
AnchorPoint: "Anchor-10" 662.887 1533.29 mark 0
AnchorPoint: "Anchor-9" 662.887 1533.29 mark 0
AnchorPoint: "Anchor-1" 662.887 2374.85 basemark 0
AnchorPoint: "Anchor-1" 662.887 1533.29 mark 0
LayerCount: 2
Fore
SplineSet
603.396484375 1999.04492188 m 2,0,1
 611.198242188 1997.31347656 611.198242188 1997.31347656 632.4609375 1986.12011719 c 0,2,3
 694.810546875 1953.79199219 694.810546875 1953.79199219 725.58203125 1911.5625 c 128,-1,4
 756.352539062 1869.33300781 756.352539062 1869.33300781 756.352539062 1816.83398438 c 0,5,6
 756.352539062 1767.7109375 756.352539062 1767.7109375 737.03125 1728.75292969 c 128,-1,7
 717.709960938 1689.79492188 717.709960938 1689.79492188 678.831054688 1660.49511719 c 0,8,9
 671.940429688 1655.328125 671.940429688 1655.328125 662.27734375 1651.38183594 c 128,-1,10
 652.614257812 1647.43554688 652.614257812 1647.43554688 640.155273438 1644.71777344 c 128,-1,11
 627.696289062 1641.99902344 627.696289062 1641.99902344 612.251953125 1640.60546875 c 128,-1,12
 596.807617188 1639.21289062 596.807617188 1639.21289062 578.731445312 1639.21289062 c 0,13,14
 557.6953125 1639.21289062 557.6953125 1639.21289062 539.266601562 1641.92382812 c 0,15,16
 530.0859375 1643.27539062 530.0859375 1643.27539062 521.591796875 1645.28613281 c 128,-1,17
 513.09765625 1647.29785156 513.09765625 1647.29785156 505.2890625 1649.96582031 c 128,-1,18
 497.490234375 1652.62988281 497.490234375 1652.62988281 490.345703125 1655.91503906 c 128,-1,19
 483.201171875 1659.20117188 483.201171875 1659.20117188 476.700195312 1663.10839844 c 0,20,21
 463.727539062 1670.90625 463.727539062 1670.90625 453.1171875 1681.25292969 c 0,22,23
 421.795898438 1711.99902344 421.795898438 1711.99902344 406.278320312 1749.55957031 c 128,-1,24
 390.750976562 1787.14648438 390.750976562 1787.14648438 390.750976562 1832.37011719 c 0,25,26
 390.750976562 1869.3203125 390.750976562 1869.3203125 407.543945312 1923.29199219 c 2,27,-1
 418.751953125 1959.31835938 l 1,28,-1
 381.076171875 1961.54492188 l 2,29,30
 378.828125 1961.67675781 378.828125 1961.67675781 376.567382812 1961.80175781 c 128,-1,31
 374.305664062 1961.92773438 374.305664062 1961.92773438 372.032226562 1962.04589844 c 0,32,-1
 367.470703125 1962.27734375 l 2,33,34
 365.185546875 1962.38867188 365.185546875 1962.38867188 362.88671875 1962.49511719 c 128,-1,35
 360.587890625 1962.60058594 360.587890625 1962.60058594 358.27734375 1962.69921875 c 128,-1,36
 355.965820312 1962.79882812 355.965820312 1962.79882812 353.641601562 1962.890625 c 128,-1,37
 351.319335938 1962.98242188 351.319335938 1962.98242188 348.981445312 1963.06933594 c 128,-1,38
 346.646484375 1963.15429688 346.646484375 1963.15429688 344.297851562 1963.23339844 c 128,-1,39
 341.94921875 1963.3125 341.94921875 1963.3125 339.586914062 1963.38574219 c 128,-1,40
 337.225585938 1963.45800781 337.225585938 1963.45800781 334.852539062 1963.5234375 c 0,41,42
 331.974609375 1963.60351562 331.974609375 1963.60351562 328.8828125 1963.67578125 c 128,-1,43
 325.790039062 1963.74804688 325.790039062 1963.74804688 322.479492188 1963.81347656 c 0,44,45
 318.408203125 1963.89257812 318.408203125 1963.89257812 314.364257812 1963.95605469 c 1,46,-1
 314.364257812 2047.24316406 l 1,47,48
 318.413085938 2047.16210938 318.413085938 2047.16210938 322.374023438 2047.06152344 c 128,-1,49
 326.333984375 2046.96191406 326.333984375 2046.96191406 330.217773438 2046.84082031 c 0,50,51
 340.405273438 2046.52636719 340.405273438 2046.52636719 350.170898438 2046.07324219 c 128,-1,52
 359.939453125 2045.61914062 359.939453125 2045.61914062 369.612304688 2045.01660156 c 2,53,-1
 384.821289062 2043.94238281 l 2,54,55
 387.338867188 2043.75488281 387.338867188 2043.75488281 389.844726562 2043.56152344 c 128,-1,56
 392.350585938 2043.36914062 392.350585938 2043.36914062 394.84375 2043.16992188 c 128,-1,57
 397.336914062 2042.97167969 397.336914062 2042.97167969 399.817382812 2042.76757812 c 0,58,59
 407.26171875 2042.15527344 407.26171875 2042.15527344 414.600585938 2041.4921875 c 128,-1,60
 421.938476562 2040.82910156 421.938476562 2040.82910156 429.170898438 2040.11621094 c 128,-1,61
 436.403320312 2039.40234375 436.403320312 2039.40234375 443.534179688 2038.63867188 c 2,62,-1
 460.80078125 2036.79785156 l 1,63,-1
 470.807617188 2050.9921875 l 2,64,65
 522.946289062 2124.96289062 522.946289062 2124.96289062 607.147460938 2176.2109375 c 0,66,67
 838.100585938 2318.22851562 838.100585938 2318.22851562 1011.40820312 2330.06054688 c 1,68,-1
 1011.40820312 2246.94726562 l 1,69,70
 819.448242188 2236.34765625 819.448242188 2236.34765625 645.98046875 2100.32617188 c 0,71,72
 614.499023438 2075.68261719 614.499023438 2075.68261719 588.393554688 2048.21582031 c 2,73,-1
 552.452148438 2010.37792969 l 1,74,-1
 603.396484375 1999.04492188 l 2,0,1
506.375976562 1944.78808594 m 1,75,-1
 488.147460938 1902.26367188 l 2,76,77
 484.63671875 1894.07324219 484.63671875 1894.07324219 482.000976562 1885.58496094 c 128,-1,78
 479.365234375 1877.09765625 479.365234375 1877.09765625 477.612304688 1868.34667969 c 0,79,80
 477.173828125 1866.16015625 477.173828125 1866.16015625 476.790039062 1863.95800781 c 128,-1,81
 476.407226562 1861.75488281 476.407226562 1861.75488281 476.078125 1859.53710938 c 128,-1,82
 475.75 1857.31835938 475.75 1857.31835938 475.4765625 1855.08496094 c 128,-1,83
 475.202148438 1852.8515625 475.202148438 1852.8515625 474.983398438 1850.6015625 c 0,84,85
 474.545898438 1846.10351562 474.545898438 1846.10351562 474.327148438 1841.54589844 c 128,-1,86
 474.108398438 1836.98730469 474.108398438 1836.98730469 474.108398438 1832.37011719 c 0,87,88
 474.108398438 1774.421875 474.108398438 1774.421875 506.874023438 1747.43652344 c 0,89,90
 537.0625 1722.56933594 537.0625 1722.56933594 573.551757812 1722.56933594 c 0,91,92
 578.293945312 1722.56933594 578.293945312 1722.56933594 582.815429688 1722.8359375 c 128,-1,93
 587.336914062 1723.10253906 587.336914062 1723.10253906 591.658203125 1723.63867188 c 128,-1,94
 595.979492188 1724.17480469 595.979492188 1724.17480469 600.095703125 1724.98535156 c 128,-1,95
 604.211914062 1725.79589844 604.211914062 1725.79589844 608.108398438 1726.87988281 c 0,96,97
 613.32421875 1728.33105469 613.32421875 1728.33105469 618.129882812 1730.3125 c 128,-1,98
 622.935546875 1732.29394531 622.935546875 1732.29394531 627.31640625 1734.80761719 c 128,-1,99
 631.697265625 1737.3203125 631.697265625 1737.3203125 635.583984375 1740.33398438 c 0,100,101
 647.146484375 1749.03710938 647.146484375 1749.03710938 654.970703125 1760.79199219 c 0,102,103
 658.87109375 1766.65234375 658.87109375 1766.65234375 661.783203125 1773.12304688 c 128,-1,104
 664.6953125 1779.59277344 664.6953125 1779.59277344 666.608398438 1786.63867188 c 0,105,106
 670.40625 1800.62402344 670.40625 1800.62402344 670.40625 1816.83398438 c 0,107,108
 670.40625 1833.78613281 670.40625 1833.78613281 665.487304688 1848.53417969 c 128,-1,109
 660.568359375 1863.28222656 660.568359375 1863.28222656 650.870117188 1875.61328125 c 128,-1,110
 641.171875 1887.94335938 641.171875 1887.94335938 626.83203125 1897.91992188 c 128,-1,111
 612.4921875 1907.89550781 612.4921875 1907.89550781 593.5859375 1915.45800781 c 0,112,113
 586.823242188 1918.16503906 586.823242188 1918.16503906 579.575195312 1920.86425781 c 128,-1,114
 572.327148438 1923.56347656 572.327148438 1923.56347656 564.596679688 1926.25292969 c 128,-1,115
 556.866210938 1928.94238281 556.866210938 1928.94238281 548.65625 1931.62207031 c 128,-1,116
 540.446289062 1934.30175781 540.446289062 1934.30175781 531.748046875 1936.97558594 c 2,117,-1
 506.375976562 1944.78808594 l 1,75,-1
EndSplineSet
EndChar

StartChar: uni065A
Encoding: 1626 1626 60
Width: 1324
VWidth: 2629
GlyphClass: 4
Flags: W
AnchorPoint: "Anchor-10" 662.887 1533.29 mark 0
AnchorPoint: "Anchor-9" 662.887 1533.29 mark 0
AnchorPoint: "Anchor-1" 660.297 2115.91 basemark 0
AnchorPoint: "Anchor-1" 662.887 1533.29 mark 0
LayerCount: 2
Fore
SplineSet
583.823242188 1643.09570312 m 1,0,-1
 366.685546875 2006.10839844 l 1,1,-1
 478.771484375 2006.10839844 l 1,2,-1
 662.88671875 1729.93164062 l 1,3,-1
 846.999023438 2006.10839844 l 1,4,-1
 959.086914062 2006.10839844 l 1,5,-1
 741.946289062 1643.09570312 l 1,6,-1
 583.823242188 1643.09570312 l 1,0,-1
EndSplineSet
EndChar

StartChar: afii57392
Encoding: 1632 1632 61
Width: 1423
VWidth: 2669
GlyphClass: 2
Flags: W
LayerCount: 2
Fore
SplineSet
634.514648438 761.517578125 m 128,-1,1
 634.514648438 751.995117188 634.514648438 751.995117188 636.202148438 743.286132812 c 0,2,3
 636.616210938 741.147460938 636.616210938 741.147460938 637.127929688 739.067382812 c 128,-1,4
 637.640625 736.987304688 637.640625 736.987304688 638.25 734.96484375 c 128,-1,5
 638.859375 732.942382812 638.859375 732.942382812 639.564453125 730.975585938 c 128,-1,6
 640.268554688 729.008789062 640.268554688 729.008789062 641.075195312 727.076171875 c 0,7,8
 644.322265625 719.298828125 644.322265625 719.298828125 649.239257812 712.081054688 c 0,9,10
 654.323242188 704.615234375 654.323242188 704.615234375 661.2265625 697.712890625 c 0,11,12
 674.7734375 684.166015625 674.7734375 684.166015625 690.59375 677.5625 c 128,-1,13
 706.311523438 671.001953125 706.311523438 671.001953125 725.032226562 671.001953125 c 0,14,15
 737.6484375 671.001953125 737.6484375 671.001953125 748.849609375 673.963867188 c 0,16,17
 752.517578125 674.934570312 752.517578125 674.934570312 756.012695312 676.206054688 c 128,-1,18
 759.506835938 677.478515625 759.506835938 677.478515625 762.884765625 679.075195312 c 128,-1,19
 766.262695312 680.671875 766.262695312 680.671875 769.561523438 682.611328125 c 0,20,21
 779.6953125 688.571289062 779.6953125 688.571289062 788.8359375 697.712890625 c 128,-1,22
 797.977539062 706.854492188 797.977539062 706.854492188 803.9375 716.987304688 c 0,23,24
 806.844726562 721.931640625 806.844726562 721.931640625 808.987304688 727.064453125 c 128,-1,25
 811.129882812 732.198242188 811.129882812 732.198242188 812.584960938 737.700195312 c 0,26,27
 815.547851562 748.90234375 815.547851562 748.90234375 815.547851562 761.517578125 c 128,-1,28
 815.547851562 774.1328125 815.547851562 774.1328125 812.583984375 785.336914062 c 0,29,30
 812.001953125 787.537109375 812.001953125 787.537109375 811.313476562 789.670898438 c 128,-1,31
 810.624023438 791.8046875 810.624023438 791.8046875 809.821289062 793.890625 c 128,-1,32
 809.018554688 795.9765625 809.018554688 795.9765625 808.098632812 798.017578125 c 128,-1,33
 807.1796875 800.05859375 807.1796875 800.05859375 806.140625 802.0625 c 128,-1,34
 805.102539062 804.067382812 805.102539062 804.067382812 803.9375 806.046875 c 0,35,36
 797.977539062 816.180664062 797.977539062 816.180664062 788.834960938 825.323242188 c 0,37,38
 784.161132812 829.997070312 784.161132812 829.997070312 779.311523438 833.78515625 c 128,-1,39
 774.461914062 837.573242188 774.461914062 837.573242188 769.577148438 840.432617188 c 128,-1,40
 764.693359375 843.29296875 764.693359375 843.29296875 759.467773438 845.474609375 c 0,41,42
 743.75 852.03515625 743.75 852.03515625 725.032226562 852.03515625 c 0,43,44
 720.731445312 852.03515625 720.731445312 852.03515625 716.629882812 851.6953125 c 128,-1,45
 712.528320312 851.35546875 712.528320312 851.35546875 708.717773438 850.702148438 c 128,-1,46
 704.907226562 850.048828125 704.907226562 850.048828125 701.211914062 849.071289062 c 0,47,48
 690.294921875 846.184570312 690.294921875 846.184570312 680.501953125 840.424804688 c 0,49,50
 678.008789062 838.958007812 678.008789062 838.958007812 675.5859375 837.30859375 c 128,-1,51
 673.1640625 835.659179688 673.1640625 835.659179688 670.754882812 833.782226562 c 128,-1,52
 668.346679688 831.905273438 668.346679688 831.905273438 665.958984375 829.786132812 c 128,-1,53
 663.571289062 827.666992188 663.571289062 827.666992188 661.225585938 825.321289062 c 0,54,55
 647.678710938 811.775390625 647.678710938 811.775390625 641.075195312 795.954101562 c 0,56,57
 637.798828125 788.103515625 637.798828125 788.103515625 636.15625 779.620117188 c 128,-1,0
 634.514648438 771.135742188 634.514648438 771.135742188 634.514648438 761.517578125 c 128,-1,1
400.043945312 757.830078125 m 0,58,59
 400.043945312 894.252929688 400.043945312 894.252929688 496.342773438 991.116210938 c 128,-1,60
 592.663085938 1087.99707031 592.663085938 1087.99707031 728.35546875 1087.99707031 c 0,61,62
 741.747070312 1087.99707031 741.747070312 1087.99707031 754.813476562 1087.03808594 c 128,-1,63
 767.879882812 1086.07910156 767.879882812 1086.07910156 780.68359375 1084.14453125 c 128,-1,64
 793.487304688 1082.20898438 793.487304688 1082.20898438 805.907226562 1079.30859375 c 128,-1,65
 818.328125 1076.40722656 818.328125 1076.40722656 830.4453125 1072.50390625 c 128,-1,66
 842.5625 1068.59960938 842.5625 1068.59960938 854.237304688 1063.72363281 c 0,67,68
 912.297851562 1039.46972656 912.297851562 1039.46972656 960.37109375 991.115234375 c 128,-1,69
 1008.44726562 942.754882812 1008.44726562 942.754882812 1032.55566406 884.35546875 c 128,-1,70
 1056.66796875 825.946289062 1056.66796875 825.946289062 1056.66796875 757.830078125 c 128,-1,71
 1056.66796875 689.830078125 1056.66796875 689.830078125 1032.51269531 631.317382812 c 128,-1,72
 1008.36230469 572.814453125 1008.36230469 572.814453125 960.369140625 524.543945312 c 0,73,74
 928.501953125 492.493164062 928.501953125 492.493164062 892.09765625 470.98828125 c 0,75,76
 855.318359375 449.262695312 855.318359375 449.262695312 814.122070312 438.415039062 c 0,77,78
 773.29296875 427.665039062 773.29296875 427.665039062 728.35546875 427.665039062 c 0,79,80
 660.705078125 427.665039062 660.705078125 427.665039062 602.484375 451.987304688 c 128,-1,81
 544.322265625 476.28515625 544.322265625 476.28515625 496.342773438 524.544921875 c 128,-1,82
 448.264648438 572.90234375 448.264648438 572.90234375 424.15625 631.302734375 c 0,83,84
 416.092773438 650.8359375 416.092773438 650.8359375 410.716796875 671.57421875 c 128,-1,85
 405.33984375 692.311523438 405.33984375 692.311523438 402.692382812 713.836914062 c 128,-1,86
 400.043945312 735.362304688 400.043945312 735.362304688 400.043945312 757.830078125 c 0,58,59
EndSplineSet
EndChar

StartChar: afii57393
Encoding: 1633 1633 62
Width: 1423
VWidth: 2669
GlyphClass: 2
Flags: W
LayerCount: 2
Fore
SplineSet
916.814453125 9.1845703125 m 1,0,-1
 662.845703125 9.1845703125 l 1,1,-1
 662.73828125 49.076171875 l 2,2,3
 662 452 662 452 625.145507812 702.3125 c 4,4,5
 564.217944677 1121.50051779 564.217944677 1121.50051779 456.090820312 1378.04980469 c 6,6,-1
 432.684570312 1433.58496094 l 5,7,-1
 710.35546875 1433.58496094 l 5,8,-1
 719.515625 1406.32617188 l 6,9,10
 836 1060 836 1060 875.809570312 769.303710938 c 4,11,12
 915.88957057 477.803149714 915.88957057 477.803149714 916.735351562 49.263671875 c 2,13,-1
 916.814453125 9.1845703125 l 1,0,-1
EndSplineSet
EndChar

StartChar: afii57394
Encoding: 1634 1634 63
Width: 1423
VWidth: 2669
GlyphClass: 2
Flags: W
LayerCount: 2
Fore
SplineSet
616.862304688 800.614257812 m 1,0,1
 662.114346257 561.365038034 662.114346257 561.365038034 662.975585938 49.251953125 c 6,2,-1
 663.04296875 9.1845703125 l 1,3,-1
 409.069335938 9.1845703125 l 1,4,-1
 408.98046875 49.095703125 l 2,5,6
 408.021088388 474.645871666 408.021088388 474.645871666 374.479492188 717.955078125 c 0,7,8
 328.084805438 1056.38138625 328.084805438 1056.38138625 209.2890625 1372.24414062 c 2,9,-1
 188.94921875 1426.32519531 l 1,10,-1
 461.020507812 1426.32519531 l 1,11,-1
 469.776367188 1398.22558594 l 2,12,13
 516 1251 516 1251 529.583007812 1209.36816406 c 0,14,15
 592 1022 592 1022 798.594726562 1020.52734375 c 0,16,17
 905 1020 905 1020 952.430664062 1057.60644531 c 0,18,19
 1001.69236949 1097.36592364 1001.69236949 1097.36592364 1004.79492188 1178.18652344 c 0,20,21
 1005.48688774 1224.79536701 1005.48688774 1224.79536701 1006.36035156 1386.54101562 c 2,22,-1
 1006.57519531 1426.32519531 l 1,23,-1
 1231.53320312 1426.32519531 l 1,24,-1
 1232.26953125 1387.07519531 l 2,25,26
 1236 1166 1236 1166 1220.66992188 1074.52050781 c 0,27,28
 1195 923 1195 923 1086.02929688 845.887695312 c 0,29,30
 977 768 977 768 798.876953125 768.39453125 c 0,31,32
 692 769 692 769 616.862304688 800.614257812 c 1,0,1
EndSplineSet
EndChar

StartChar: afii57395
Encoding: 1635 1635 64
Width: 1423
VWidth: 2669
GlyphClass: 2
Flags: W
LayerCount: 2
Fore
SplineSet
817.697265625 878.940429688 m 5,0,1
 722 755 722 755 545.76953125 784.469726562 c 4,2,3
 514 790 514 790 486.7890625 801.03125 c 5,4,5
 533.049112945 588.774653368 533.049112945 588.774653368 533.509765625 49.21875 c 2,6,-1
 533.543945312 9.1845703125 l 1,7,-1
 279.623046875 9.1845703125 l 1,8,-1
 279.501953125 49.0634765625 l 2,9,10
 278 459 278 459 229.017578125 792.536132812 c 4,11,12
 179.952973775 1124.31799805 179.952973775 1124.31799805 89.1904296875 1372.59179688 c 6,13,-1
 69.546875 1426.32519531 l 5,14,-1
 331.546875 1426.32519531 l 5,15,-1
 340.30078125 1398.22070312 l 6,16,17
 386 1251 386 1251 400.098632812 1209.40722656 c 4,18,19
 463 1024 463 1024 577.2421875 1022.375 c 4,20,21
 692 1021 692 1021 697.61328125 1154.7890625 c 4,22,23
 699.003031999 1190.07698716 699.003031999 1190.07698716 699.060546875 1386.33691406 c 6,24,-1
 699.072265625 1426.32519531 l 5,25,-1
 924.62109375 1426.32519531 l 5,26,-1
 924.73046875 1386.43457031 l 6,27,28
 925 1288 925 1288 924.375976562 1193.29882812 c 4,29,30
 924 1099 924 1099 947.825195312 1061.01367188 c 4,31,32
 972 1023 972 1023 1020.68652344 1022.56933594 c 4,33,34
 1069 1022 1069 1022 1095.27050781 1061.76855469 c 4,35,36
 1121 1102 1121 1102 1120.47851562 1266.86230469 c 4,37,38
 1120 1315 1120 1315 1119.62597656 1385.3828125 c 6,39,-1
 1119.23632812 1425.76855469 l 5,40,-1
 1348.765625 1425.76855469 l 5,41,-1
 1349.60839844 1386.62988281 l 6,42,43
 1357 1036 1357 1036 1280.44140625 906.9375 c 132,-1,44
 1204 778 1204 778 1055.71777344 777.4296875 c 4,45,46
 908 777 908 777 817.697265625 878.940429688 c 5,0,1
EndSplineSet
EndChar

StartChar: afii57396
Encoding: 1636 1636 65
Width: 1423
VWidth: 2669
GlyphClass: 2
Flags: W
LayerCount: 2
Fore
SplineSet
546.100585938 695.112304688 m 1,0,1
 368 801 368 801 308.1796875 882.241210938 c 5,2,-1
 310.409179688 897.70703125 l 6,3,4
 362.0702643 1254.48525447 362.0702643 1254.48525447 811.854492188 1418.34082031 c 6,5,-1
 843.245117188 1429.77636719 l 5,6,7
 879.544897753 1365.02806005 879.544897753 1365.02806005 885.93359375 1254.59765625 c 6,8,-1
 887.220703125 1232.34960938 l 5,9,-1
 868.979492188 1219.546875 l 6,10,11
 623 1047 623 1047 559.115234375 965.924804688 c 5,12,13
 679.909944609 883.378177586 679.909944609 883.378177586 921.80859375 835.23046875 c 2,14,-1
 957.036132812 828.21875 l 1,15,-1
 953.841796875 792.442382812 l 2,16,17
 948.331108072 729.340661265 948.331108072 729.340661265 944.89453125 682.098632812 c 2,18,-1
 943.35546875 660.94140625 l 1,19,-1
 924.978515625 650.346679688 l 2,20,21
 635 483 635 483 561.283203125 371.133789062 c 1,22,23
 734.951845438 304.018609589 734.951845438 304.018609589 1022.421875 329.83984375 c 2,24,-1
 1060.57226562 333.266601562 l 1,25,-1
 1098.30859375 50.943359375 l 1,26,-1
 1055.671875 48.0888671875 l 2,27,28
 562.405685435 15.0271914852 562.405685435 15.0271914852 313.3046875 210.533203125 c 2,29,-1
 296.587890625 223.653320312 l 1,30,-1
 298.1015625 244.849609375 l 2,31,32
 315 487 315 487 546.100585938 695.112304688 c 1,0,1
EndSplineSet
EndChar

StartChar: afii57397
Encoding: 1637 1637 66
Width: 1423
VWidth: 2669
GlyphClass: 2
Flags: W
LayerCount: 2
Fore
SplineSet
694.36328125 990.397460938 m 1,0,1
 531 845 531 845 446.61328125 639.611328125 c 0,2,3
 410 550 410 550 409.625976562 473.62890625 c 0,4,5
 409 384 409 384 490.819824219 321.793945312 c 0,6,7
 573 259 573 259 751.983886719 258.815429688 c 0,8,9
 931 258 931 258 980.697753906 340.894042969 c 0,10,11
 1026 416 1026 416 1008.92578125 537.795898438 c 0,12,13
 971 814 971 814 694.36328125 990.397460938 c 1,0,1
428.688476562 1168.50390625 m 1,14,-1
 574.013671875 1372.06445312 l 5,15,-1
 604.123046875 1358.08691406 l 2,16,17
 1240 1063 1240 1063 1272.00878906 511.5 c 0,18,19
 1289 225 1289 225 1101.24121094 98.51953125 c 0,20,21
 959 3 959 3 719.352539062 3.7841796875 c 0,22,23
 413 4 413 4 268.544433594 156.951660156 c 0,24,25
 117 317 117 317 155.428710938 554.604492188 c 0,26,27
 180 704 180 704 281.021484375 871.680664062 c 0,28,29
 382 1039 382 1039 487.345703125 1135.91699219 c 1,30,-1
 428.688476562 1168.50390625 l 1,14,-1
EndSplineSet
EndChar

StartChar: afii57398
Encoding: 1638 1638 67
Width: 1423
VWidth: 2669
GlyphClass: 2
Flags: W
LayerCount: 2
Fore
SplineSet
185.830078125 1414.92285156 m 6,0,1
 399.649560636 1360.0028054 399.649560636 1360.0028054 621.369140625 1360.37988281 c 4,2,3
 842.871761209 1360.00361525 842.871761209 1360.00361525 1093.40332031 1416.44140625 c 6,4,-1
 1141.9296875 1427.37304688 l 5,5,-1
 1142.19335938 1377.63085938 l 6,6,7
 1146 689 1146 689 1313.47558594 9.1845703125 c 1,8,-1
 1037.64257812 9.1845703125 l 1,9,10
 900 643 900 643 890.875976562 1126.07519531 c 5,11,12
 747 1092 747 1092 560.236328125 1091.87402344 c 4,13,14
 372.819289643 1092.00012159 372.819289643 1092.00012159 164.999023438 1150.74511719 c 6,15,-1
 135.87890625 1158.9765625 l 5,16,-1
 135.87890625 1427.75292969 l 5,17,-1
 185.830078125 1414.92285156 l 6,0,1
EndSplineSet
EndChar

StartChar: afii57399
Encoding: 1639 1639 68
Width: 1423
VWidth: 2669
GlyphClass: 2
Flags: W
LayerCount: 2
Fore
SplineSet
582.513671875 43.17578125 m 2,0,1
 537.717288221 338.03730278 537.717288221 338.03730278 436.66796875 661.59765625 c 4,2,3
 293.171213673 1121.45132393 293.171213673 1121.45132393 146.833984375 1360.60742188 c 6,4,-1
 109.583984375 1421.484375 l 5,5,-1
 404.647460938 1421.484375 l 5,6,-1
 415.584960938 1398.94921875 l 6,7,8
 629 959 629 959 711.80859375 620.505859375 c 5,9,10
 800.101624564 993.429231785 800.101624564 993.429231785 1016.15527344 1400.24609375 c 6,11,-1
 1027.43457031 1421.484375 l 5,12,-1
 1300.953125 1421.484375 l 5,13,-1
 1271.51367188 1363.40039062 l 6,14,15
 1072 970 1072 970 977.336914062 624.483398438 c 4,16,17
 863.288881743 209.052280017 863.288881743 209.052280017 842.188476562 44.109375 c 2,18,-1
 837.720703125 9.1845703125 l 1,19,-1
 587.677734375 9.1845703125 l 1,20,-1
 582.513671875 43.17578125 l 2,0,1
EndSplineSet
EndChar

StartChar: afii57400
Encoding: 1640 1640 69
Width: 1423
VWidth: 2669
GlyphClass: 2
Flags: W
LayerCount: 2
Fore
SplineSet
587.6796875 1421.484375 m 5,0,-1
 837.724609375 1421.484375 l 5,1,-1
 842.188476562 1386.55566406 l 6,2,3
 863 1223 863 1223 977.26171875 806.442382812 c 0,4,5
 1071.98911837 461.039677474 1071.98911837 461.039677474 1271.515625 67.263671875 c 2,6,-1
 1300.94433594 9.1845703125 l 1,7,-1
 1027.43457031 9.1845703125 l 1,8,-1
 1016.15527344 30.423828125 l 2,9,10
 811 416 811 416 712.54296875 819.841796875 c 1,11,12
 697 754 697 754 679.849609375 692.286132812 c 0,13,14
 663 630 663 630 643.12109375 569.95703125 c 0,15,16
 621 501 621 501 587.452148438 418.361328125 c 0,17,18
 554 336 554 336 509.620117188 239.021484375 c 0,19,20
 459.186267855 130.488979736 459.186267855 130.488979736 409.428710938 31.2548828125 c 2,21,-1
 398.362304688 9.1845703125 l 1,22,-1
 103.370117188 9.1845703125 l 1,23,-1
 141.0234375 70.193359375 l 2,24,25
 285.17278528 302.967907061 285.17278528 302.967907061 436.810546875 769.518554688 c 0,26,27
 534.22361769 1069.68905984 534.22361769 1069.68905984 582.514648438 1387.49316406 c 6,28,-1
 587.6796875 1421.484375 l 5,0,-1
EndSplineSet
EndChar

StartChar: afii57401
Encoding: 1641 1641 70
Width: 1423
VWidth: 2669
GlyphClass: 2
Flags: W
LayerCount: 2
Fore
SplineSet
931.100585938 478.279296875 m 1,0,1
 694 479 694 479 593.442382812 501.572265625 c 0,2,3
 364 553 364 553 256.444335938 671.423828125 c 128,-1,4
 149 790 149 790 149.25 939.306640625 c 0,5,6
 149.002979616 1134.64379845 149.002979616 1134.64379845 272.98828125 1259.94140625 c 0,7,8
 437 1426 437 1426 643.91796875 1426.00390625 c 4,9,10
 1004 1426 1004 1426 1110.63574219 1118.78417969 c 0,11,12
 1139 1036 1139 1036 1147.64160156 933.833007812 c 0,13,14
 1168 679 1168 679 1210.46972656 416.23046875 c 0,15,16
 1252.58839203 154.557222385 1252.58839203 154.557222385 1280.2578125 60.4697265625 c 2,17,-1
 1295.33984375 9.1845703125 l 1,18,-1
 1018.32421875 9.1845703125 l 1,19,-1
 1011.51660156 40.7529296875 l 2,20,21
 946 343 946 343 931.100585938 478.279296875 c 1,0,1
898.881835938 733.56640625 m 1,22,-1
 898.881835938 835.720703125 l 2,23,24
 898.997919029 978.44150635 898.997919029 978.44150635 847.471679688 1050.80664062 c 0,25,26
 763 1169 763 1169 638.275390625 1168.890625 c 0,27,28
 514 1168 514 1168 437.899414062 1059.95117188 c 0,29,30
 403 1010 403 1010 403.235351562 941.466796875 c 0,31,32
 403 873 403 873 478.27734375 812.619140625 c 0,33,34
 576 735 576 735 898.881835938 733.56640625 c 1,22,-1
EndSplineSet
EndChar

StartChar: afii57381
Encoding: 1642 1642 71
Width: 1423
VWidth: 2669
GlyphClass: 2
Flags: W
LayerCount: 2
Fore
SplineSet
143.176757812 1315.94921875 m 6,0,-1
 147.354492188 1337.96972656 l 5,1,-1
 154.420898438 1359.05175781 l 5,2,3
 198.235351562 1464.79101562 198.235351562 1464.79101562 305.291015625 1464.79101562 c 132,-1,4
 412.346679688 1464.79101562 412.346679688 1464.79101562 462.244140625 1378.8671875 c 4,5,6
 484.96484375 1339.74511719 484.96484375 1339.74511719 484.96484375 1292.73828125 c 132,-1,7
 484.96484375 1245.73144531 484.96484375 1245.73144531 470.828125 1221.7421875 c 4,8,9
 411.837890625 1121.640625 411.837890625 1121.640625 313.390625 1121.640625 c 132,-1,10
 214.754882812 1121.640625 214.754882812 1121.640625 164.40234375 1207.43652344 c 4,11,12
 141.815429688 1245.92871094 141.815429688 1245.92871094 141.815429688 1275.38964844 c 132,-1,13
 141.815429688 1304.8515625 141.815429688 1304.8515625 143.176757812 1315.94921875 c 6,0,-1
1036.96972656 7.3701171875 m 128,-1,15
 965.561523438 7.3701171875 965.561523438 7.3701171875 910.881857744 62.0167028777 c 0,16,17
 834.136176749 138.715954413 834.136176749 138.715954413 878.124023438 244.833984375 c 0,18,19
 905.367333458 310.56517803 905.367333458 310.56517803 970.986328125 337.737304688 c 0,20,21
 1001.33203125 350.314453125 1001.33203125 350.314453125 1036.96972656 350.521484375 c 0,22,23
 1135.95296772 349.947527231 1135.95296772 349.947527231 1185.88867188 264.76953125 c 0,24,25
 1208.40871931 226.35332214 1208.40871931 226.35332214 1207.84010184 166.685938414 c 128,-1,26
 1207.27148438 107.018554688 1207.27148438 107.018554688 1157.82519531 57.1943359375 c 128,-1,14
 1108.37890625 7.3701171875 1108.37890625 7.3701171875 1036.96972656 7.3701171875 c 128,-1,15
947.3046875 1463.26660156 m 5,27,-1
 1177.99804688 1463.26660156 l 5,28,-1
 385.740234375 9.1845703125 l 1,29,-1
 155.05078125 9.1845703125 l 1,30,-1
 947.3046875 1463.26660156 l 5,27,-1
EndSplineSet
EndChar

StartChar: uni066B
Encoding: 1643 1643 72
Width: 860
VWidth: 2669
GlyphClass: 2
Flags: W
LayerCount: 2
Fore
SplineSet
521.522460938 658.998046875 m 1,0,-1
 733.669921875 657.41796875 l 1,1,-1
 698.88671875 597.78125 l 2,2,3
 433.432617188 142.65234375 433.432617188 142.65234375 183.688476562 -260.672851562 c 2,4,-1
 171.76953125 -279.920898438 l 1,5,-1
 -44.640625 -276.952148438 l 1,6,-1
 -7.4951171875 -216.885742188 l 2,7,8
 114.499023438 -19.619140625 114.499023438 -19.619140625 509.770507812 639.403320312 c 2,9,-1
 521.522460938 658.998046875 l 1,0,-1
EndSplineSet
EndChar

StartChar: uni066C
Encoding: 1644 1644 73
Width: 841
VWidth: 2669
GlyphClass: 2
Flags: W
LayerCount: 2
Fore
SplineSet
326.15234375 1963.11230469 m 1,0,-1
 620.274414062 1963.11230469 l 1,1,-1
 620.274414062 1753.31933594 l 1,2,-1
 403.86328125 1332.36816406 l 1,3,-1
 216.956054688 1332.36816406 l 1,4,-1
 326.15234375 1757.17578125 l 1,5,-1
 326.15234375 1963.11230469 l 1,0,-1
EndSplineSet
EndChar

StartChar: afii63167
Encoding: 1645 1645 74
Width: 1444
VWidth: 2669
GlyphClass: 2
Flags: W
LayerCount: 2
Fore
SplineSet
80.5751953125 1012.80175781 m 1,0,-1
 569.853515625 1012.80175781 l 1,1,-1
 722.4453125 1477.37695312 l 1,2,-1
 875.03125 1012.80175781 l 1,3,-1
 1364.31054688 1012.80175781 l 1,4,-1
 969.087890625 723.8828125 l 1,5,-1
 1120.38867188 259.069335938 l 1,6,-1
 722.444335938 546.627929688 l 1,7,-1
 324.494140625 259.0703125 l 1,8,-1
 475.796875 723.8828125 l 1,9,-1
 80.5751953125 1012.80175781 l 1,0,-1
EndSplineSet
EndChar

StartChar: uni066E
Encoding: 1646 1646 75
Width: 2020
VWidth: 2669
GlyphClass: 2
Flags: W
AnchorPoint: "Anchor-10" 891.496 1303.46 basechar 0
AnchorPoint: "Anchor-7" 891.496 -185.44 basechar 0
LayerCount: 2
Fore
SplineSet
1928.08300781 497.581054688 m 2,0,1
 1927.51037281 -0.77224704966 1927.51037281 -0.77224704966 1506.67578125 -1.099609375 c 2,2,-1
 472.080078125 -1.099609375 l 2,3,4
 51.9082287595 -0.880388598869 51.9082287595 -0.880388598869 51.90625 491.553710938 c 2,5,-1
 51.9052734375 746.783203125 l 1,6,-1
 310.004882812 746.783203125 l 1,7,-1
 310.004882812 502.443359375 l 2,8,9
 310.002929688 376.029296875 310.002929688 376.029296875 350.771484375 321.948242188 c 128,-1,10
 391.5390625 267.866210938 391.5390625 267.866210938 476.774414062 267.866210938 c 2,11,-1
 1503.15917969 267.866210938 l 2,12,13
 1669.98242188 268.308449982 1669.98242188 268.308449982 1669.98242188 501.233398438 c 2,14,-1
 1669.98242188 746.783203125 l 1,15,-1
 1928.08300781 746.783203125 l 1,16,-1
 1928.08300781 497.581054688 l 2,0,1
EndSplineSet
Substitution2: "'init' Initial Forms in Arabic lookup 13 subtable" uni066E.init
Substitution2: "'medi' Medial Forms in Arabic lookup 11 subtable" uni066E.medi
Substitution2: "'fina' Terminal Forms in Arabic lookup 9 subtable" uni066E.fina
EndChar

StartChar: uni066F
Encoding: 1647 1647 76
Width: 1587
VWidth: 2669
GlyphClass: 2
Flags: W
AnchorPoint: "Anchor-10" 349.15 1296.21 basechar 0
AnchorPoint: "Anchor-7" 422.96 -636.77 basechar 0
LayerCount: 2
Fore
SplineSet
1236.62207031 116.600585938 m 1,0,1
 1181.54052804 116.290640049 1181.54052804 116.290640049 1083.41577183 116.346491899 c 0,2,3
 895.142488534 116.453655593 895.142488534 116.453655593 801.639603642 219.176046546 c 128,-1,4
 708.13671875 321.8984375 708.13671875 321.8984375 726.25 555.08984375 c 0,5,6
 738.730176245 720.907763971 738.730176245 720.907763971 816.796875 806.923828125 c 0,7,8
 920.892578125 922.72265625 920.892578125 922.72265625 1115.32910156 918.864746094 c 128,-1,9
 1309.765625 915.006835938 1309.765625 915.006835938 1404.87695312 794.5859375 c 128,-1,10
 1499.98925781 674.1640625 1499.98925781 674.1640625 1495.39550781 453.862304688 c 0,11,12
 1493.39746094 336.208007812 1493.39746094 336.208007812 1494.93945312 280.057617188 c 1,13,-1
 1494.93945312 142.823242188 l 1,14,-1
 1494.47753906 101.198242188 l 2,15,16
 1489.533542 -345.080089723 1489.533542 -345.080089723 1129.76757812 -460.487304688 c 0,17,18
 1011.40527344 -498.456054688 1011.40527344 -498.456054688 857.540039062 -497.64453125 c 2,19,-1
 745.801757812 -497.041015625 l 1,20,-1
 717.717773438 -497.041015625 l 2,21,22
 392.545898438 -497.041015625 392.545898438 -497.041015625 222.219726562 -350.494140625 c 128,-1,23
 51.89453125 -203.946289062 51.89453125 -203.946289062 51.876953125 81.5224609375 c 2,24,-1
 51.876953125 362.848632812 l 2,25,26
 51.876953125 439.411132812 51.876953125 439.411132812 87.9013671875 486.661132812 c 128,-1,27
 123.926757812 533.91015625 123.926757812 533.91015625 191.80859375 533.642578125 c 2,28,-1
 309.977539062 533.642578125 l 1,29,-1
 309.977539062 82.7314453125 l 2,30,31
 309.977539062 -75.11328125 309.977539062 -75.11328125 408.072265625 -151.627929688 c 128,-1,32
 506.16796875 -228.141601562 506.16796875 -228.141601562 719.955078125 -228.075195312 c 2,33,-1
 745.879882812 -228.075195312 l 1,34,-1
 866.200195312 -227.470703125 l 2,35,36
 1057.75097656 -226.504882812 1057.75097656 -226.504882812 1146.52246094 -149.758789062 c 128,-1,37
 1235.29394531 -73.013671875 1235.29394531 -73.013671875 1236.37988281 87.1552734375 c 2,38,-1
 1236.62207031 116.600585938 l 1,0,1
1241.26953125 386.967773438 m 1,39,40
 1246 559 1246 559 1213.46875 612.012695312 c 0,41,42
 1178 667 1178 667 1104.8733345 664.97136379 c 0,43,44
 1026 663 1026 663 993.606445312 622.946289062 c 0,45,46
 960 582 960 582 962.426759925 505.908071746 c 0,47,48
 964 444 964 444 992.323242188 412.568359375 c 0,49,50
 1035 365 1035 365 1241.26953125 386.967773438 c 1,39,40
EndSplineSet
Substitution2: "'init' Initial Forms in Arabic lookup 13 subtable" uni066F.init
Substitution2: "'medi' Medial Forms in Arabic lookup 11 subtable" uni066F.medi
Substitution2: "'fina' Terminal Forms in Arabic lookup 9 subtable" uni066F.fina
EndChar

StartChar: uni0670
Encoding: 1648 1648 77
Width: 0
VWidth: 2669
GlyphClass: 4
Flags: W
AnchorPoint: "Anchor-10" 662.887 1573.29 mark 0
AnchorPoint: "Anchor-9" 662.887 1573.29 mark 0
AnchorPoint: "Anchor-1" 662.887 2414.85 basemark 0
AnchorPoint: "Anchor-1" 662.887 1573.29 mark 0
LayerCount: 2
Fore
SplineSet
621.208007812 1645.54980469 m 1,0,-1
 621.208007812 2342.59570312 l 1,1,-1
 704.564453125 2342.59570312 l 1,2,-1
 704.564453125 1645.54980469 l 1,3,-1
 621.208007812 1645.54980469 l 1,0,-1
EndSplineSet
EndChar

StartChar: uni0674
Encoding: 1652 1652 78
Width: 772
VWidth: 2669
GlyphClass: 2
Flags: W
LayerCount: 2
Fore
SplineSet
174.903320312 1857.59584798 m 1,0,-1
 311.489089766 1889.11478645 l 1,1,-1
 308.214868545 1890.60220958 l 2,2,3
 177.493164062 1950.04329264 177.493164062 1950.04329264 177.493164062 2073.04980469 c 0,4,5
 177.493164062 2161.18171591 177.493164062 2161.18171591 244.890927867 2220.32935383 c 0,6,7
 311.40558855 2278.70198884 311.40558855 2278.70198884 401.683189694 2279.02103141 c 0,8,9
 490.084836723 2279.33344432 490.084836723 2279.33344432 549.895776177 2247.77859156 c 2,10,-1
 557.896484375 2243.55760505 l 1,11,-1
 557.896484375 2153.4254212 l 1,12,-1
 537.210176757 2161.89985897 l 2,13,14
 465.379871558 2191.32615692 465.379871558 2191.32615692 407.71731485 2185.31924314 c 0,15,16
 272.996685868 2171.58726762 272.996685868 2171.58726762 265.298873213 2083.51024811 c 0,17,18
 256.002460765 1975.85773931 256.002460765 1975.85773931 399.14137232 1932.50665878 c 0,19,20
 414.90240241 1926.62537886 414.90240241 1926.62537886 459.456484474 1930.40191103 c 128,-1,21
 504.010566538 1934.1784432 504.010566538 1934.1784432 566.897799346 1947.85280209 c 2,22,-1
 585.084960938 1951.80746448 l 1,23,-1
 585.084960938 1854.86916876 l 1,24,-1
 174.903320312 1762.78254438 l 1,25,-1
 174.903320312 1857.59584798 l 1,0,-1
EndSplineSet
EndChar

StartChar: uni06A1
Encoding: 1697 1697 82
Width: 2027
VWidth: 2669
GlyphClass: 2
Flags: W
AnchorPoint: "Anchor-10" 504.376 1281.74 basechar 0
AnchorPoint: "Anchor-7" 521.846 -153.835 basechar 0
LayerCount: 2
Fore
SplineSet
471.50390625 -0.193359375 m 2,0,1
 189.086914062 -0.193359375 189.086914062 -0.193359375 94.4794921875 234.376953125 c 0,2,3
 51.4638671875 342.197265625 51.4638671875 342.197265625 51.294921875 492.459960938 c 2,4,-1
 51.2939453125 747.690429688 l 1,5,-1
 309.393554688 747.690429688 l 1,6,-1
 309.393554688 503.321289062 l 2,7,8
 309.211914062 376.897460938 309.211914062 376.897460938 349.965820312 322.834960938 c 128,-1,9
 390.71875 268.772460938 390.71875 268.772460938 476.163085938 268.772460938 c 2,10,-1
 1020.83691406 268.772460938 l 1,11,-1
 1319.56835938 269.099609375 l 2,12,13
 1408 269.3125 1408 269.3125 1474.42675781 279.1875 c 128,-1,14
 1540.85449219 289.061523438 1540.85449219 289.061523438 1580.80273438 306.803710938 c 128,-1,15
 1620.75 324.545898438 1620.75 324.545898438 1641.69628906 346.58203125 c 128,-1,16
 1662.64257812 368.6171875 1662.64257812 368.6171875 1667.16503906 395.779296875 c 1,17,-1
 1526.41796875 395.775390625 l 2,18,19
 1364.03222656 396.024414062 1364.03222656 396.024414062 1256.98632812 497.465820312 c 0,20,21
 1147.57519531 601.1484375 1147.57519531 601.1484375 1166.57617188 834.306640625 c 0,22,23
 1172.81542969 909.32421875 1172.81542969 909.32421875 1195.52636719 969.38671875 c 128,-1,24
 1218.23730469 1029.44921875 1218.23730469 1029.44921875 1258.24023438 1073.08105469 c 0,25,26
 1374.57324219 1201.32421875 1374.57324219 1201.32421875 1561.21875 1197.92675781 c 0,27,28
 1727.89941406 1195.06640625 1727.89941406 1195.06640625 1822.54003906 1112.62402344 c 128,-1,29
 1917.18164062 1030.18261719 1917.18164062 1030.18261719 1927.09472656 875.89453125 c 0,30,31
 1936.00390625 737.215820312 1936.00390625 737.215820312 1935.84960938 691.8125 c 2,32,-1
 1935.79785156 676.604492188 l 2,33,34
 1932.88867188 673.354492188 1932.88867188 673.354492188 1932.75878906 656.23828125 c 128,-1,35
 1932.62890625 639.123046875 1932.62890625 639.123046875 1933.93945312 607.59765625 c 128,-1,36
 1935.25 576.072265625 1935.25 576.072265625 1935.25 558.709960938 c 2,37,-1
 1935.25 417.114257812 l 2,38,39
 1935.11230469 208.336914062 1935.11230469 208.336914062 1787.57128906 103.254882812 c 128,-1,40
 1640.03027344 -1.8271484375 1640.03027344 -1.8271484375 1364.32421875 -1.099609375 c 2,41,-1
 1020.79003906 -0.193359375 l 1,42,-1
 471.50390625 -0.193359375 l 2,0,1
1681.46289062 666.000976562 m 1,43,44
 1682.85839844 726.7578125 1682.85839844 726.7578125 1679.48046875 776.546875 c 128,-1,45
 1676.10253906 826.334960938 1676.10253906 826.334960938 1670.20117188 854.877929688 c 128,-1,46
 1664.29882812 883.420898438 1664.29882812 883.420898438 1656.82128906 895.719726562 c 0,47,48
 1643.30761719 917.947265625 1643.30761719 917.947265625 1620.53027344 929.822265625 c 128,-1,49
 1597.75390625 941.697265625 1597.75390625 941.697265625 1560.51367188 943.549804688 c 0,50,51
 1482.95996094 947.405273438 1482.95996094 947.405273438 1446.35351562 912.435546875 c 128,-1,52
 1409.74707031 877.46484375 1409.74707031 877.46484375 1403.76953125 790.818359375 c 0,53,54
 1400.42382812 746.74609375 1400.42382812 746.74609375 1409.2421875 721.888671875 c 128,-1,55
 1418.05957031 697.030273438 1418.05957031 697.030273438 1436.05078125 684.895507812 c 0,56,57
 1460.02050781 669.474609375 1460.02050781 669.474609375 1520.19433594 663.84375 c 128,-1,58
 1580.36816406 658.213867188 1580.36816406 658.213867188 1681.46289062 666.000976562 c 1,43,44
EndSplineSet
Substitution2: "'init' Initial Forms in Arabic lookup 13 subtable" uni06A1.init
Substitution2: "'medi' Medial Forms in Arabic lookup 11 subtable" uni06A1.medi
Substitution2: "'fina' Terminal Forms in Arabic lookup 9 subtable" uni06A1.fina
EndChar

StartChar: uni06A9
Encoding: 1705 1705 83
Width: 1921
VWidth: 2669
GlyphClass: 2
Flags: W
AnchorPoint: "Anchor-10" 468.27 1485.98 basechar 0
AnchorPoint: "Anchor-7" 447.7 -287.88 basechar 0
LayerCount: 2
Fore
SplineSet
514.833007812 268.866210938 m 2,0,-1
 1324.98925781 268.994140625 l 2,1,2
 1423.3359375 269.002929688 1423.3359375 269.002929688 1462.58789062 294.484375 c 128,-1,3
 1501.83984375 319.96484375 1501.83984375 319.96484375 1502.30371094 370.166015625 c 0,4,5
 1502.48925781 385.620117188 1502.48925781 385.620117188 1476.87402344 428.875976562 c 128,-1,6
 1451.25878906 472.131835938 1451.25878906 472.131835938 1401.07128906 529.512695312 c 2,7,-1
 1121.92578125 847.771484375 l 2,8,9
 1062.80957031 915.170898438 1062.80957031 915.170898438 1032.93798828 955.919921875 c 128,-1,10
 1003.06640625 996.668945312 1003.06640625 996.668945312 1008.30029297 1069.2163086 c 0,11,12
 1019.00739632 1217.62840809 1019.00739632 1217.62840809 1153.87890625 1267.33007812 c 2,13,-1
 1870.74707031 1529.31445312 l 1,14,-1
 1870.74707031 1259.98046875 l 1,15,-1
 1269.14941406 1055.96386719 l 1,16,-1
 1575.33203125 710.436523438 l 2,17,18
 1761.71972656 500.241210938 1761.71972656 500.241210938 1741.68554688 328.113769531 c 128,-1,19
 1721.65136719 155.986328125 1721.65136719 155.986328125 1581.14160156 61.6875 c 0,20,21
 1488.04980469 0 1488.04980469 0 1375 0 c 2,22,-1
 522.258789062 -0.099609375 l 2,23,24
 90.0509103457 -0.185862370331 90.0509103457 -0.185862370331 89.9560546875 492.553710938 c 2,25,-1
 89.955078125 750.008789062 l 1,26,-1
 348.055664062 748.559570312 l 1,27,-1
 348.055664062 502.444335938 l 2,28,29
 348.055664062 376.633789062 348.055664062 376.633789062 388.802734375 322.775390625 c 128,-1,30
 429.549804688 268.91796875 429.549804688 268.91796875 514.833007812 268.866210938 c 2,0,-1
EndSplineSet
Substitution2: "'init' Initial Forms in Arabic lookup 13 subtable" uniFB90
Substitution2: "'medi' Medial Forms in Arabic lookup 11 subtable" uniFB91
Substitution2: "'fina' Terminal Forms in Arabic lookup 9 subtable" uniFB8F
EndChar

StartChar: afii57514
Encoding: 1722 1722 85
Width: 1496
VWidth: 2669
GlyphClass: 2
Flags: W
AnchorPoint: "Anchor-10" 600.163 990.68 basechar 0
AnchorPoint: "Anchor-7" 707.352 -691.244 basechar 0
LayerCount: 2
Fore
SplineSet
1183.1640625 697.3203125 m 1,0,-1
 1444.06933594 697.453125 l 1,1,-1
 1444.06933594 139.284179688 l 2,2,3
 1444.03320312 -162.626953125 1444.03320312 -162.626953125 1284.75292969 -321.833984375 c 128,-1,4
 1125.47265625 -481.041992188 1125.47265625 -481.041992188 818.763671875 -486.461914062 c 2,5,-1
 784.202148438 -487.072265625 l 1,6,-1
 738.83203125 -487.072265625 l 2,7,8
 402.391601562 -487.03515625 402.391601562 -487.03515625 227.134765625 -327.0625 c 128,-1,9
 51.876953125 -167.090820312 51.876953125 -167.090820312 51.876953125 143.522460938 c 2,10,-1
 51.876953125 362.8671875 l 2,11,12
 51.94921875 439.276367188 51.94921875 439.276367188 87.9267578125 486.458984375 c 128,-1,13
 123.903320312 533.642578125 123.903320312 533.642578125 191.729492188 533.642578125 c 2,14,-1
 309.977539062 533.642578125 l 1,15,-1
 309.977539062 144.733398438 l 2,16,17
 309.98828125 -40.41015625 309.98828125 -40.41015625 413.860351562 -129.258789062 c 128,-1,18
 517.733398438 -218.106445312 517.733398438 -218.106445312 741.075195312 -218.106445312 c 2,19,-1
 783.784179688 -218.106445312 l 1,20,-1
 826.592773438 -217.500976562 l 2,21,22
 1010.63671875 -214.951171875 1010.63671875 -214.951171875 1097.09277344 -126.303710938 c 128,-1,23
 1183.54882812 -37.6552734375 1183.54882812 -37.6552734375 1183.54882812 148.940429688 c 2,24,-1
 1183.1640625 697.3203125 l 1,0,-1
EndSplineSet
Substitution2: "'init' Initial Forms in Arabic lookup 13 subtable" uni06BA.init
Substitution2: "'medi' Medial Forms in Arabic lookup 11 subtable" uni06BA.medi
Substitution2: "'fina' Terminal Forms in Arabic lookup 9 subtable" uniFB9F
EndChar

StartChar: uni06F4
Encoding: 1780 1780 92
Width: 1423
VWidth: 2669
GlyphClass: 2
Flags: W
LayerCount: 2
Fore
SplineSet
604.358398438 676.498046875 m 1,0,1
 663 435 663 435 663.451171875 99.275390625 c 0,2,3
 663 74 663 74 663.263671875 48.890625 c 2,4,-1
 662.971679688 9.1845703125 l 1,5,-1
 409.130859375 9.1845703125 l 1,6,-1
 408.9609375 49.0146484375 l 2,7,8
 408 336 408 336 378.440429688 508.31640625 c 0,9,10
 349 678 349 678 297.950195312 872.110351562 c 0,11,12
 245.254761961 1068.78139361 245.254761961 1068.78139361 122.173828125 1364.92382812 c 2,13,-1
 99.1689453125 1420.27539062 l 1,14,-1
 379.709960938 1420.27539062 l 1,15,-1
 389.094726562 1393.51074219 l 2,16,17
 438 1254 438 1254 476.712890625 1138.5546875 c 1,18,19
 589 1438 589 1438 933.848632812 1451.80957031 c 4,20,21
 1031.6174007 1455.0536675 1031.6174007 1455.0536675 1170.796875 1414.89453125 c 2,22,-1
 1199.70703125 1406.55273438 l 1,23,-1
 1199.70703125 1183.78808594 l 1,24,-1
 1149.95410156 1196.29589844 l 2,25,26
 1040 1224 1040 1224 960.994140625 1223.88867188 c 0,27,28
 813 1224 813 1224 740.1171875 1149.97460938 c 0,29,30
 667 1076 667 1076 667.36328125 998.884765625 c 0,31,32
 667 835 667 835 958.182617188 835.182617188 c 0,33,34
 1026.13772448 835.004871044 1026.13772448 835.004871044 1223.75097656 863.715820312 c 2,35,-1
 1268.79199219 870.259765625 l 1,36,-1
 1272.31835938 642.736328125 l 1,37,-1
 1240.77050781 635.494140625 l 2,38,39
 835 542 835 542 604.358398438 676.498046875 c 1,0,1
EndSplineSet
EndChar

StartChar: uni06F5
Encoding: 1781 1781 93
Width: 1423
VWidth: 2669
GlyphClass: 2
Flags: W
LayerCount: 2
Fore
SplineSet
812.04296875 373.39453125 m 2,0,1
 828.376883121 317.477908011 828.376883121 317.477908011 860.345703125 292.958984375 c 0,2,3
 919 249 919 249 1012.67480469 280.9375 c 0,4,5
 1126 320 1126 320 1050.07617188 537.845703125 c 0,6,7
 981 734 981 734 713.870117188 1076.85742188 c 5,8,9
 446 709 446 709 389.129882812 533.150390625 c 0,10,11
 320 319 320 319 439.594726562 282.60546875 c 0,12,13
 466 274 466 274 508.131220119 274.48828125 c 0,14,15
 593.332523998 274.003795512 593.332523998 274.003795512 631.723632812 376.240234375 c 2,16,-1
 641.463867188 402.178710938 l 1,17,-1
 803.634765625 402.178710938 l 1,18,-1
 812.04296875 373.39453125 l 2,0,1
716.216796875 133.0703125 m 1,19,20
 641 5 641 5 473.411580533 4.73388671875 c 0,21,22
 139 5 139 5 121.436523438 332.75 c 0,23,24
 104 666 104 666 643.596679688 1365.47070312 c 4,25,26
 715 1459 715 1459 791.030273438 1366.03222656 c 4,27,28
 1340 693 1340 693 1304.47265625 335.70703125 c 0,29,30
 1272 11 1272 11 968.1953125 5.2900390625 c 0,31,32
 793 2 793 2 716.216796875 133.0703125 c 1,19,20
EndSplineSet
EndChar

StartChar: uni06F6
Encoding: 1782 1782 94
Width: 1423
VWidth: 2669
GlyphClass: 2
Flags: W
LayerCount: 2
Fore
SplineSet
718.743164062 1431.89746094 m 4,0,1
 885 1437 885 1437 994.763671875 1380.50195312 c 1,2,-1
 994.763671875 1138.29882812 l 1,3,-1
 940.944335938 1158.11230469 l 2,4,5
 638 1270 638 1270 533.26171875 1086.27734375 c 0,6,7
 505 1037 505 1037 505.3671875 959.55078125 c 0,8,9
 505 796 505 796 755.215820312 796.608398438 c 0,10,11
 908.256450441 797.000657309 908.256450441 797.000657309 1018.41601562 834.272460938 c 2,12,-1
 1071.23535156 852.143554688 l 1,13,-1
 1071.23535156 600.469726562 l 1,14,15
 818 522 818 522 688.328125 312.536132812 c 0,16,17
 596.818982115 164.707574432 596.818982115 164.707574432 559.095703125 37.7890625 c 2,18,-1
 550.59375 9.1845703125 l 1,19,-1
 297.049804688 9.1845703125 l 1,20,-1
 309.600585938 58.9638671875 l 2,21,22
 343 191 343 191 418.01953125 349.59765625 c 0,23,24
 498 516 498 516 581.140625 603.5078125 c 1,25,26
 437 634 437 634 358.04296875 723.20703125 c 0,27,28
 256 839 256 839 271.6171875 1030.40234375 c 0,29,30
 284 1181 284 1181 381.337890625 1290.58007812 c 0,31,32
 500.970001112 1425.21384962 500.970001112 1425.21384962 718.743164062 1431.89746094 c 4,0,1
EndSplineSet
EndChar

StartChar: uniFB8F
Encoding: 64399 64399 109
Width: 2090
VWidth: 2669
GlyphClass: 2
Flags: W
AnchorPoint: "Anchor-7" 452.26 -262.88 basechar 0
AnchorPoint: "Anchor-10" 484.93 1452.29 basechar 0
LayerCount: 2
Fore
SplineSet
2087.76074219 0.6044921875 m 2,0,1
 1886.04369042 0.6044921875 1886.04369042 0.6044921875 1726.51269531 191.350585938 c 1,2,3
 1630.30664062 -0 1630.30664062 -0 1399.16113281 0 c 2,4,-1
 483.271484375 -0.099609375 l 2,5,6
 51.0509004685 -0.176049273115 51.0509004685 -0.176049273115 50.9560546875 492.553710938 c 2,7,-1
 50.955078125 750.783203125 l 1,8,-1
 309.055664062 750.783203125 l 1,9,-1
 309.055664062 503.444335938 l 2,10,11
 309.055664062 377.103515625 309.055664062 377.103515625 349.831054688 323.012695312 c 128,-1,12
 390.60546875 268.920898438 390.60546875 268.920898438 475.834960938 268.866210938 c 2,13,-1
 1349.15039062 268.994140625 l 2,14,15
 1450.75655198 269.003865193 1450.75655198 269.003865193 1480.21958458 289.555643534 c 128,-1,16
 1509.68261719 310.107421875 1509.68261719 310.107421875 1521.05850779 334.225093523 c 128,-1,17
 1532.43439839 358.342765171 1532.43439839 358.342765171 1518.58067262 398.774334018 c 128,-1,18
 1504.72694686 439.205902865 1504.72694686 439.205902865 1425.27441406 529.465820312 c 2,19,-1
 1146.08691406 847.771484375 l 2,20,21
 1090.09351086 911.609412171 1090.09351086 911.609412171 1058.5604273 954.133807648 c 128,-1,22
 1027.02734375 996.658203125 1027.02734375 996.658203125 1032.60058594 1069.71923828 c 0,23,24
 1044.04877083 1219.79637669 1044.04877083 1219.79637669 1178.16894531 1268.37792969 c 2,25,-1
 1894.90820312 1529.23339844 l 1,26,-1
 1894.90820312 1259.98046875 l 1,27,-1
 1293.41699219 1056 l 1,28,-1
 1878.89160156 397.580078125 l 2,29,30
 1993.15722656 269.078125 1993.15722656 269.078125 2080.46484375 269.450195312 c 2,31,-1
 2145.91601562 269.450195312 l 1,32,-1
 2145.91601562 0.6044921875 l 1,33,-1
 2087.76074219 0.6044921875 l 2,0,1
EndSplineSet
EndChar

StartChar: uniFB9F
Encoding: 64415 64415 117
Width: 1649
VWidth: 2669
GlyphClass: 2
Flags: W
AnchorPoint: "Anchor-10" 327.219 861.21 basechar 0
AnchorPoint: "Anchor-7" 286.055 -686.985 basechar 0
LayerCount: 2
Fore
SplineSet
1528.06152344 -0.4951171875 m 2,0,1
 1461.83274351 -0.102093219166 1461.83274351 -0.102093219166 1394.56640625 48.2275390625 c 1,2,3
 1380.95461129 -291.791062801 1380.95461129 -291.791062801 1101.05371094 -410.48046875 c 0,4,5
 963.811523438 -468.676757812 963.811523438 -468.676757812 767.159179688 -470.462890625 c 2,6,-1
 700.1015625 -471.072265625 l 1,7,-1
 647.522460938 -471.072265625 l 2,8,9
 356.608398438 -471.034179688 356.608398438 -471.034179688 204.243164062 -330.489257812 c 128,-1,10
 51.876953125 -189.944335938 51.876953125 -189.944335938 51.876953125 81.5224609375 c 2,11,-1
 51.876953125 362.8671875 l 2,12,13
 51.94921875 439.276367188 51.94921875 439.276367188 87.9267578125 486.458984375 c 128,-1,14
 123.903320312 533.642578125 123.903320312 533.642578125 191.729492188 533.642578125 c 2,15,-1
 309.977539062 533.642578125 l 1,16,-1
 309.977539062 82.734375 l 2,17,18
 309.987304688 -63.41796875 309.987304688 -63.41796875 391.034179688 -132.763671875 c 128,-1,19
 472.081054688 -202.110351562 472.081054688 -202.110351562 649.764648438 -202.106445312 c 2,20,-1
 699.869140625 -202.10546875 l 1,21,-1
 775.336914062 -201.500976562 l 2,22,23
 965.76953125 -199.852539062 965.76953125 -199.852539062 1052.65917969 -129.151367188 c 128,-1,24
 1139.54882812 -58.4501953125 1139.54882812 -58.4501953125 1139.54882812 86.943359375 c 2,25,-1
 1139.16699219 697.3203125 l 1,26,-1
 1400.06933594 697.453125 l 1,27,-1
 1400.06933594 469.169921875 l 2,28,29
 1400.06933594 362.79296875 1400.06933594 362.79296875 1446.99804688 315.572265625 c 128,-1,30
 1493.92675781 268.350585938 1493.92675781 268.350585938 1599.38867188 268.350585938 c 2,31,-1
 1706.96191406 268.350585938 l 1,32,-1
 1706.96191406 -0.4951171875 l 1,33,-1
 1528.06152344 -0.4951171875 l 2,0,1
EndSplineSet
EndChar

StartChar: uniFBE8
Encoding: 64488 64488 120
Width: 688
VWidth: 2669
GlyphClass: 2
Flags: W
AnchorPoint: "Anchor-10" 386.535 1295 basechar 0
AnchorPoint: "Anchor-7" 425.255 -109.815 basechar 0
LayerCount: 2
Fore
SplineSet
636.208984375 460.07421875 m 2,0,1
 635.756123079 -0.879254190991 635.756123079 -0.879254190991 245.05078125 -1.099609375 c 2,2,-1
 -54.984375 -1.099609375 l 1,3,-1
 -54.984375 267.866210938 l 1,4,-1
 229.43359375 267.866210938 l 2,5,6
 378.109375 268.294777873 378.109375 268.294777873 378.109375 454.043945312 c 2,7,-1
 378.109375 749.783203125 l 1,8,-1
 636.208984375 749.783203125 l 1,9,-1
 636.208984375 460.07421875 l 2,0,1
EndSplineSet
EndChar

StartChar: uniFBE9
Encoding: 64489 64489 121
Width: 893
VWidth: 2669
GlyphClass: 2
Flags: W
AnchorPoint: "Anchor-10" 376.226 1198.2 basechar 0
AnchorPoint: "Anchor-7" 354.445 -114.655 basechar 0
LayerCount: 2
Fore
SplineSet
514.256835938 115.66015625 m 1,0,1
 403.2109375 -1.099609375 403.2109375 -1.099609375 217.678710938 -1.099609375 c 2,2,-1
 -50.884765625 -1.099609375 l 1,3,-1
 -50.884765625 267.866210938 l 1,4,-1
 160.98828125 267.866210938 l 2,5,6
 275.3125 267.876953125 275.3125 267.876953125 330.866210938 313.659179688 c 0,7,8
 383.373046875 356.9296875 383.373046875 356.9296875 383.373046875 446.5546875 c 2,9,-1
 383.373046875 704.094726562 l 1,10,-1
 647.377929688 704.094726562 l 1,11,-1
 647.377929688 446.541015625 l 2,12,13
 647.352539062 434.698242188 647.352539062 434.698242188 648.270507812 423.734375 c 128,-1,14
 649.188476562 412.76953125 649.188476562 412.76953125 651.014648438 402.877929688 c 128,-1,15
 652.840820312 392.986328125 652.840820312 392.986328125 655.465820312 384.087890625 c 128,-1,16
 658.091796875 375.189453125 658.091796875 375.189453125 661.56640625 367.025390625 c 0,17,18
 675.049804688 335.345703125 675.049804688 335.345703125 702.104492188 314.084960938 c 0,19,20
 730.637695312 291.663085938 730.637695312 291.663085938 773.823242188 280.1484375 c 0,21,22
 819.888671875 267.866210938 819.888671875 267.866210938 881.861328125 267.866210938 c 2,23,-1
 945.388671875 267.866210938 l 1,24,-1
 945.388671875 -1.099609375 l 1,25,-1
 810.651367188 -1.099609375 l 2,26,27
 627.911132812 -1.099609375 627.911132812 -1.099609375 514.256835938 115.66015625 c 1,0,1
EndSplineSet
EndChar

StartChar: uniFE73
Encoding: 65139 65139 129
Width: 693
VWidth: 2629
GlyphClass: 2
Flags: W
AnchorPoint: "Anchor-10" 255.056 1533.29 basechar 0
AnchorPoint: "Anchor-7" 255.056 -149.815 basechar 0
LayerCount: 2
Fore
SplineSet
344.637695312 409.49609375 m 2,0,1
 344.637695312 367.749023438 344.637695312 367.749023438 362.731445312 328.80859375 c 128,-1,2
 380.825195312 289.868164062 380.825195312 289.868164062 416.728515625 253.966796875 c 0,3,4
 482.341796875 188.350585938 482.341796875 188.350585938 622.75 188.350585938 c 2,5,-1
 690.323242188 188.350585938 l 1,6,-1
 690.323242188 9.1845703125 l 1,7,-1
 551.54296875 9.1845703125 l 2,8,9
 379.927734375 9.1845703125 379.927734375 9.1845703125 269.463867188 119.6484375 c 0,10,11
 165.473632812 223.638671875 165.473632812 223.638671875 165.473632812 393.959960938 c 2,12,-1
 165.473632812 420.100585938 l 1,13,-1
 344.637695312 420.100585938 l 1,14,-1
 344.637695312 409.49609375 l 2,0,1
EndSplineSet
EndChar

StartChar: uniFE8E
Encoding: 65166 65166 155
Width: 557
VWidth: 2669
GlyphClass: 2
Flags: W
AnchorPoint: "Anchor-10" 253.529 1658.6 basechar 0
AnchorPoint: "Anchor-7" 268.05 -264.695 basechar 0
LayerCount: 2
Fore
SplineSet
378.606445312 481.32421875 m 6,0,1
 378.606445313 267.861114959 378.606445313 267.861114959 545.375976562 267.866210938 c 2,2,-1
 608.970703125 267.866210938 l 1,3,-1
 608.970703125 -1.099609375 l 1,4,-1
 552.817382812 -1.099609375 l 2,5,6
 120.506835937 -0.985350731066 120.506835937 -0.985350731066 120.506835938 471.994140625 c 6,7,-1
 120.506835938 1423.90527344 l 1,8,-1
 378.606445312 1423.90527344 l 1,9,-1
 378.606445312 481.32421875 l 6,0,1
EndSplineSet
EndChar

StartChar: uniFEA2
Encoding: 65186 65186 175
Width: 1430
VWidth: 2669
GlyphClass: 2
Flags: W
AnchorPoint: "Anchor-10" 693.568 1544.06 basechar 0
AnchorPoint: "Anchor-7" 491.066 -884.385 basechar 0
LayerCount: 2
Fore
SplineSet
1160.5703125 563.573242188 m 1,0,1
 1156.96301974 404.014302705 1156.96301974 404.014302705 1216.22955674 336.181467759 c 128,-1,2
 1275.49609375 268.348632812 1275.49609375 268.348632812 1399.13671875 268.348632812 c 2,3,-1
 1485.60742188 268.348632812 l 1,4,-1
 1485.60742188 -0.4951171875 l 1,5,-1
 1428.59570312 -0.4951171875 l 2,6,7
 1202.44726562 -0.244140625 1202.44726562 -0.244140625 1080.91699219 129.970703125 c 128,-1,8
 959.38671875 260.185546875 959.38671875 260.185546875 950.579101562 506.72265625 c 1,9,10
 312.862643127 268.516971995 312.862643127 268.516971995 298.938476562 -107.788085938 c 0,11,12
 286.464192143 -424.765962994 286.464192143 -424.765962994 593.46484375 -498.013671875 c 0,13,14
 695.348632812 -522.323242188 695.348632812 -522.323242188 835.391601562 -522.240234375 c 2,15,-1
 1313.53613281 -521.95703125 l 1,16,-1
 1313.53613281 -778.915039062 l 1,17,-1
 822.02734375 -777.919921875 l 2,18,19
 406.9453125 -776.962890625 406.9453125 -776.962890625 222.608398438 -600.662109375 c 128,-1,20
 38.271484375 -424.361328125 38.271484375 -424.361328125 51.2158203125 -120.750488281 c 128,-1,21
 64.16015625 182.860351562 64.16015625 182.860351562 269.5234375 388.868164062 c 128,-1,22
 474.885742188 594.875976562 474.885742188 594.875976562 862.721679688 716.9921875 c 1,23,24
 633.655119357 796.253100119 633.655119357 796.253100119 564.82804796 804.93123756 c 128,-1,25
 496.000976562 813.609375 496.000976562 813.609375 474.395507812 812.149414062 c 0,26,27
 390.820119113 806.501917854 390.820119113 806.501917854 322.9609375 651.344726562 c 2,28,-1
 307.744140625 616.551757812 l 1,29,-1
 93.1318359375 697.420898438 l 1,30,-1
 107.71875 735.06640625 l 2,31,32
 138.59765625 814.762695312 138.59765625 814.762695312 166.223632812 866.130859375 c 0,33,34
 228.81640625 985.099609375 228.81640625 985.099609375 333.46484375 1032.38574219 c 128,-1,35
 438.11328125 1079.671875 438.11328125 1079.671875 555.020507812 1055.83837891 c 128,-1,36
 671.927734375 1032.00488281 671.927734375 1032.00488281 895.284179688 948.102539062 c 2,37,-1
 1294.92382812 797.979492188 l 1,38,-1
 1294.81835938 579.7265625 l 1,39,-1
 1258.49121094 576.392578125 l 2,40,41
 1208.93742755 571.846431875 1208.93742755 571.846431875 1160.5703125 563.573242188 c 1,0,1
EndSplineSet
EndChar

StartChar: uniFEA3
Encoding: 65187 65187 176
Width: 1361
VWidth: 2669
GlyphClass: 2
Flags: W
AnchorPoint: "Anchor-10" 500.94 1314.63 basechar 0
AnchorPoint: "Anchor-7" 433.18 -265.905 basechar 0
LayerCount: 2
Fore
SplineSet
-50.884765625 -1.0986328125 m 1,0,-1
 -50.884765625 267.852539062 l 1,1,-1
 962.366210938 268.336914062 l 1,2,3
 828.026354539 388.883599877 828.026354539 388.883599877 724.503899926 489.502835095 c 128,-1,4
 620.981445312 590.122070312 620.981445312 590.122070312 572.885742188 617.014160156 c 0,5,6
 474.98855886 671.752103017 474.98855886 671.752103017 377.874023438 600.432617188 c 0,7,8
 322.525390625 559.783203125 322.525390625 559.783203125 258.455078125 486.1484375 c 2,9,-1
 232.546875 456.373046875 l 1,10,-1
 41.587890625 618.09765625 l 1,11,-1
 64.509765625 648.299804688 l 2,12,13
 116.712890625 717.084960938 116.712890625 717.084960938 213.35546875 810.073730469 c 128,-1,14
 309.998046875 903.0625 309.998046875 903.0625 480.76171875 904.350585938 c 128,-1,15
 651.578125 905.638671875 651.578125 905.638671875 902.56640625 670.243164062 c 0,16,17
 1087.93744698 494.98838564 1087.93744698 494.98838564 1289.53320312 305.623046875 c 1,18,19
 1277.83320207 185.11604367 1277.83320207 185.11604367 1229.23496041 121.746986679 c 0,20,21
 1144.58893375 11.3738804888 1144.58893375 11.3738804888 1007.81640625 -1.1201171875 c 1,22,-1
 -50.884765625 -1.0986328125 l 1,0,-1
EndSplineSet
EndChar

StartChar: uniFEA4
Encoding: 65188 65188 177
Width: 1410
VWidth: 2669
GlyphClass: 2
Flags: W
AnchorPoint: "Anchor-10" 463.43 1293.91 basechar 0
AnchorPoint: "Anchor-7" 504.57 -263.595 basechar 0
LayerCount: 2
Fore
SplineSet
1395.95214844 0 m 2,0,1
 1252 0 1252 0 1139.97167969 85.53125 c 1,2,3
 1044 -4 1044 -4 913.252929688 0 c 1,4,-1
 -50.884765625 0 l 1,5,-1
 -50.884765625 267.852539062 l 1,6,-1
 962.716796875 268.3359375 l 1,7,8
 814 403 814 403 724.798828125 489.139648438 c 0,9,10
 636 576 636 576 570.229492188 613.493164062 c 0,11,12
 505 651 505 651 470.622070312 646.184570312 c 0,13,14
 385.457482041 633.07044567 385.457482041 633.07044567 258.525390625 486.25390625 c 2,15,-1
 232.629882812 456.301757812 l 1,16,-1
 41.59375 618.094726562 l 1,17,-1
 64.505859375 648.295898438 l 2,18,19
 116 716 116 716 219.5546875 816.450683594 c 0,20,21
 323 916 323 916 480.1953125 910.427734375 c 1,22,23
 648.924915835 917.996631863 648.924915835 917.996631863 902.966796875 669.857421875 c 2,24,-1
 1276.6953125 304.8125 l 2,25,26
 1312.9187599 269.08013872 1312.9187599 269.08013872 1370.36621094 268.760742188 c 6,27,-1
 1459.77050781 268.263671875 l 1,28,-1
 1459.77148438 0 l 1,29,-1
 1395.95214844 0 l 2,0,1
EndSplineSet
EndChar

StartChar: uniFEAA
Encoding: 65194 65194 183
Width: 1296
VWidth: 2669
GlyphClass: 2
Flags: W
AnchorPoint: "Anchor-10" 441.638 1394.4 basechar 0
AnchorPoint: "Anchor-7" 370.865 -258.04 basechar 0
LayerCount: 2
Fore
SplineSet
929.22265625 136.643554688 m 1,0,1
 825.006870109 14.9135192865 825.006870109 14.9135192865 607.055664062 -1.1123046875 c 1,2,-1
 83.607421875 -1.09375 l 1,3,-1
 83.607421875 267.950195312 l 1,4,-1
 396.630859375 267.859375 l 1,5,6
 617.99970526 266.112018767 617.99970526 266.112018767 673.83984375 286.682128906 c 4,7,8
 766 319 766 319 709.65999789 418.083091872 c 0,9,10
 690.586023169 450.820181717 690.586023169 450.820181717 624.6953125 527.5 c 2,11,-1
 325.66015625 875.508789062 l 1,12,-1
 513.87109375 1062.20507812 l 1,13,-1
 1005.06835938 457.194335938 l 2,14,15
 1156.4215689 270.557348413 1156.4215689 270.557348413 1289.59277344 268.717773438 c 2,16,-1
 1342.25683594 267.990234375 l 1,17,-1
 1342.25683594 -0.4951171875 l 1,18,-1
 1260.01171875 -0.4951171875 l 1,19,20
 1080.51757812 0.9697265625 1080.51757812 0.9697265625 929.22265625 136.643554688 c 1,0,1
EndSplineSet
EndChar

StartChar: uniFEAE
Encoding: 65198 65198 187
Width: 939
VWidth: 2669
GlyphClass: 2
Flags: W
AnchorPoint: "Anchor-10" 437.57 1014.88 basechar 0
AnchorPoint: "Anchor-7" 317.689 -743.915 basechar 0
LayerCount: 2
Fore
SplineSet
494.416992188 17.880859375 m 6,0,-1
 494.41796875 639.200195312 l 5,1,-1
 758.567382812 640.709960938 l 5,2,-1
 758.567382812 393.495117188 l 6,3,4
 761.333984375 328.536132812 761.333984375 328.536132812 801.294921875 298.201171875 c 132,-1,5
 841.256835938 267.866210938 841.256835938 267.866210938 934.766601562 267.866210938 c 6,6,-1
 994.456054688 267.866210938 l 5,7,-1
 994.456054688 -1.099609375 l 5,8,-1
 933.709960938 -1.099609375 l 6,9,10
 832.473632812 -1.02734375 832.473632812 -1.02734375 759.77734375 40.869140625 c 5,11,-1
 759.77734375 19.0673828125 l 6,12,13
 760.014648438 -259.380859375 760.014648438 -259.380859375 609.245117188 -399.947265625 c 4,14,15
 460.083007812 -539.748046875 460.083007812 -539.748046875 164.05859375 -539.600585938 c 6,16,-1
 20.51171875 -539.529296875 l 5,17,-1
 20.5166015625 -271.72265625 l 5,18,-1
 159.18359375 -271.8203125 l 6,19,20
 331.967773438 -271.985351562 331.967773438 -271.985351562 412.916992188 -201.03515625 c 4,21,22
 494.045898438 -129.84375 494.045898438 -129.84375 494.416992188 17.880859375 c 6,0,-1
EndSplineSet
PairPos2: "'kern' Horizontal Kerning lookup 15-2" uniFB90 dx=-150 dy=0 dh=-150 dv=0 dx=0 dy=0 dh=0 dv=0
PairPos2: "'kern' Horizontal Kerning lookup 15-2" uniFB8E dx=-150 dy=0 dh=-150 dv=0 dx=0 dy=0 dh=0 dv=0
PairPos2: "'kern' Horizontal Kerning lookup 15-2" uni06A9 dx=-150 dy=0 dh=-150 dv=0 dx=0 dy=0 dh=0 dv=0
PairPos2: "'kern' Horizontal Kerning lookup 15-2" uni064A dx=-50 dy=0 dh=-50 dv=0 dx=0 dy=0 dh=0 dv=0
PairPos2: "'kern' Horizontal Kerning lookup 15-2" uni0649 dx=-50 dy=0 dh=-50 dv=0 dx=0 dy=0 dh=0 dv=0
PairPos2: "'kern' Horizontal Kerning lookup 15-2" uni0648 dx=-50 dy=0 dh=-50 dv=0 dx=0 dy=0 dh=0 dv=0
PairPos2: "'kern' Horizontal Kerning lookup 15-2" uniFEEB dx=-150 dy=0 dh=-150 dv=0 dx=0 dy=0 dh=0 dv=0
PairPos2: "'kern' Horizontal Kerning lookup 15-2" uni0647 dx=-150 dy=0 dh=-150 dv=0 dx=0 dy=0 dh=0 dv=0
PairPos2: "'kern' Horizontal Kerning lookup 15-2" uniFEE7 dx=-150 dy=0 dh=-150 dv=0 dx=0 dy=0 dh=0 dv=0
PairPos2: "'kern' Horizontal Kerning lookup 15-2" uni0646 dx=-50 dy=0 dh=-50 dv=0 dx=0 dy=0 dh=0 dv=0
PairPos2: "'kern' Horizontal Kerning lookup 15-2" uniFEE3 dx=-150 dy=0 dh=-150 dv=0 dx=0 dy=0 dh=0 dv=0
PairPos2: "'kern' Horizontal Kerning lookup 15-2" uni0645 dx=-150 dy=0 dh=-150 dv=0 dx=0 dy=0 dh=0 dv=0
PairPos2: "'kern' Horizontal Kerning lookup 15-2" uni0644 dx=-50 dy=0 dh=-50 dv=0 dx=0 dy=0 dh=0 dv=0
PairPos2: "'kern' Horizontal Kerning lookup 15-2" uniFEDB dx=-150 dy=0 dh=-150 dv=0 dx=0 dy=0 dh=0 dv=0
PairPos2: "'kern' Horizontal Kerning lookup 15-2" uni0643 dx=-150 dy=0 dh=-150 dv=0 dx=0 dy=0 dh=0 dv=0
PairPos2: "'kern' Horizontal Kerning lookup 15-2" uniFED7 dx=-150 dy=0 dh=-150 dv=0 dx=0 dy=0 dh=0 dv=0
PairPos2: "'kern' Horizontal Kerning lookup 15-2" uni0642 dx=-50 dy=0 dh=-50 dv=0 dx=0 dy=0 dh=0 dv=0
PairPos2: "'kern' Horizontal Kerning lookup 15-2" uniFED3 dx=-150 dy=0 dh=-150 dv=0 dx=0 dy=0 dh=0 dv=0
PairPos2: "'kern' Horizontal Kerning lookup 15-2" uni0641 dx=-150 dy=0 dh=-150 dv=0 dx=0 dy=0 dh=0 dv=0
PairPos2: "'kern' Horizontal Kerning lookup 15-2" uniFECF dx=-150 dy=0 dh=-150 dv=0 dx=0 dy=0 dh=0 dv=0
PairPos2: "'kern' Horizontal Kerning lookup 15-2" uniFECB dx=-150 dy=0 dh=-150 dv=0 dx=0 dy=0 dh=0 dv=0
PairPos2: "'kern' Horizontal Kerning lookup 15-2" uniFEC7 dx=-150 dy=0 dh=-150 dv=0 dx=0 dy=0 dh=0 dv=0
PairPos2: "'kern' Horizontal Kerning lookup 15-2" uni0638 dx=-150 dy=0 dh=-150 dv=0 dx=0 dy=0 dh=0 dv=0
PairPos2: "'kern' Horizontal Kerning lookup 15-2" uniFEC3 dx=-150 dy=0 dh=-150 dv=0 dx=0 dy=0 dh=0 dv=0
PairPos2: "'kern' Horizontal Kerning lookup 15-2" uni0637 dx=-150 dy=0 dh=-150 dv=0 dx=0 dy=0 dh=0 dv=0
PairPos2: "'kern' Horizontal Kerning lookup 15-2" uniFEBF dx=-150 dy=0 dh=-150 dv=0 dx=0 dy=0 dh=0 dv=0
PairPos2: "'kern' Horizontal Kerning lookup 15-2" uni0636 dx=-150 dy=0 dh=-150 dv=0 dx=0 dy=0 dh=0 dv=0
PairPos2: "'kern' Horizontal Kerning lookup 15-2" uniFEBB dx=-150 dy=0 dh=-150 dv=0 dx=0 dy=0 dh=0 dv=0
PairPos2: "'kern' Horizontal Kerning lookup 15-2" uni0635 dx=-150 dy=0 dh=-150 dv=0 dx=0 dy=0 dh=0 dv=0
PairPos2: "'kern' Horizontal Kerning lookup 15-2" uniFEB7 dx=-150 dy=0 dh=-150 dv=0 dx=0 dy=0 dh=0 dv=0
PairPos2: "'kern' Horizontal Kerning lookup 15-2" uni0634 dx=-150 dy=0 dh=-150 dv=0 dx=0 dy=0 dh=0 dv=0
PairPos2: "'kern' Horizontal Kerning lookup 15-2" uniFEB3 dx=-150 dy=0 dh=-150 dv=0 dx=0 dy=0 dh=0 dv=0
PairPos2: "'kern' Horizontal Kerning lookup 15-2" uni0633 dx=-150 dy=0 dh=-150 dv=0 dx=0 dy=0 dh=0 dv=0
PairPos2: "'kern' Horizontal Kerning lookup 15-2" uni0632 dx=-50 dy=0 dh=-50 dv=0 dx=0 dy=0 dh=0 dv=0
PairPos2: "'kern' Horizontal Kerning lookup 15-2" uni0631 dx=-50 dy=0 dh=-50 dv=0 dx=0 dy=0 dh=0 dv=0
PairPos2: "'kern' Horizontal Kerning lookup 15-2" uniFEA7 dx=-150 dy=0 dh=-150 dv=0 dx=0 dy=0 dh=0 dv=0
PairPos2: "'kern' Horizontal Kerning lookup 15-2" uniFEA3 dx=-150 dy=0 dh=-150 dv=0 dx=0 dy=0 dh=0 dv=0
PairPos2: "'kern' Horizontal Kerning lookup 15-2" uniFE9F dx=-150 dy=0 dh=-150 dv=0 dx=0 dy=0 dh=0 dv=0
PairPos2: "'kern' Horizontal Kerning lookup 15-2" uniFE9B dx=-150 dy=0 dh=-150 dv=0 dx=0 dy=0 dh=0 dv=0
PairPos2: "'kern' Horizontal Kerning lookup 15-2" uni062B dx=-150 dy=0 dh=-150 dv=0 dx=0 dy=0 dh=0 dv=0
PairPos2: "'kern' Horizontal Kerning lookup 15-2" uniFE97 dx=-150 dy=0 dh=-150 dv=0 dx=0 dy=0 dh=0 dv=0
PairPos2: "'kern' Horizontal Kerning lookup 15-2" uni062A dx=-150 dy=0 dh=-150 dv=0 dx=0 dy=0 dh=0 dv=0
PairPos2: "'kern' Horizontal Kerning lookup 15-2" uni0629 dx=-150 dy=0 dh=-150 dv=0 dx=0 dy=0 dh=0 dv=0
PairPos2: "'kern' Horizontal Kerning lookup 15-2" uniFE91 dx=-50 dy=0 dh=-50 dv=0 dx=0 dy=0 dh=0 dv=0
PairPos2: "'kern' Horizontal Kerning lookup 15-2" uni0628 dx=-150 dy=0 dh=-150 dv=0 dx=0 dy=0 dh=0 dv=0
PairPos2: "'kern' Horizontal Kerning lookup 15-2" uni0627 dx=-200 dy=0 dh=-200 dv=0 dx=0 dy=0 dh=0 dv=0
PairPos2: "'kern' Horizontal Kerning lookup 15-2" uni0622 dx=-200 dy=0 dh=-200 dv=0 dx=0 dy=0 dh=0 dv=0
PairPos2: "'kern' Horizontal Kerning lookup 15-2" uni0621 dx=-150 dy=0 dh=-150 dv=0 dx=0 dy=0 dh=0 dv=0
PairPos2: "'kern' Horizontal Kerning lookup 15-2" uniFB94 dx=-150 dy=0 dh=-150 dv=0 dx=0 dy=0 dh=0 dv=0
PairPos2: "'kern' Horizontal Kerning lookup 15-2" uniFB92 dx=-150 dy=0 dh=-150 dv=0 dx=0 dy=0 dh=0 dv=0
PairPos2: "'kern' Horizontal Kerning lookup 15-2" afii57509 dx=-150 dy=0 dh=-150 dv=0 dx=0 dy=0 dh=0 dv=0
PairPos2: "'kern' Horizontal Kerning lookup 15-2" afii57508 dx=-50 dy=0 dh=-50 dv=0 dx=0 dy=0 dh=0 dv=0
PairPos2: "'kern' Horizontal Kerning lookup 15-2" uniFB7C dx=-150 dy=0 dh=-150 dv=0 dx=0 dy=0 dh=0 dv=0
PairPos2: "'kern' Horizontal Kerning lookup 15-2" afii57506 dx=-150 dy=0 dh=-150 dv=0 dx=0 dy=0 dh=0 dv=0
PairPos2: "'kern' Horizontal Kerning lookup 15-2" afii57440 dx=-150 dy=0 dh=-150 dv=0 dx=0 dy=0 dh=0 dv=0
EndChar

StartChar: uniFEB2
Encoding: 65202 65202 191
Width: 2749
VWidth: 2669
GlyphClass: 2
Flags: W
AnchorPoint: "Anchor-10" 732.05 1097.76 basechar 0
AnchorPoint: "Anchor-7" 296.45 -608.335 basechar 0
LayerCount: 2
Fore
SplineSet
1423.94433594 47.81640625 m 1,0,1
 1399.94352145 -447.778015284 1399.94352145 -447.778015284 778.311523438 -466.791015625 c 1,2,-1
 749.728515625 -466.791015625 l 2,3,4
 425.171875 -466.899414062 425.171875 -466.899414062 254.524414062 -328.331054688 c 128,-1,5
 83.876953125 -189.763671875 83.876953125 -189.763671875 83.876953125 81.5224609375 c 2,6,-1
 83.876953125 362.864257812 l 2,7,8
 83.9482421875 439.274414062 83.9482421875 439.274414062 119.92578125 486.458007812 c 128,-1,9
 155.903320312 533.642578125 155.903320312 533.642578125 223.729492188 533.642578125 c 2,10,-1
 341.977539062 533.642578125 l 1,11,-1
 341.977539062 82.732421875 l 2,12,13
 341.987304688 -58.55078125 341.987304688 -58.55078125 439.670898438 -128.188476562 c 128,-1,14
 537.354492188 -197.825195312 537.354492188 -197.825195312 751.955078125 -197.825195312 c 2,15,-1
 777.630859375 -197.825195312 l 1,16,-1
 805.8125 -197.225585938 l 2,17,18
 1076.8828125 -191.689453125 1076.8828125 -191.689453125 1144.08691406 -45.0185546875 c 0,19,20
 1168.9765625 10.4521484375 1168.9765625 10.4521484375 1169.16015625 86.9462890625 c 2,21,-1
 1168.82519531 697.310546875 l 1,22,-1
 1438.76171875 697.547851562 l 1,23,-1
 1439.46777344 413.43359375 l 2,24,25
 1439.79897889 294.262434552 1439.79897889 294.262434552 1529.40625 267.293945312 c 0,26,27
 1560.73826138 257.866648257 1560.73826138 257.866648257 1615.97801741 256.846410066 c 0,28,29
 1733.4916985 254.676017689 1733.4916985 254.676017689 1732.87695312 445.84765625 c 2,30,-1
 1732.04492188 704.78515625 l 1,31,-1
 1985.19824219 704.78515625 l 1,32,-1
 1985.96777344 439.77734375 l 2,33,34
 1986.4296875 339.298828125 1986.4296875 339.298828125 2021.01074219 298.0078125 c 128,-1,35
 2055.59277344 256.716796875 2055.59277344 256.716796875 2122.90966797 257.702148438 c 128,-1,36
 2190.2265625 258.6875 2190.2265625 258.6875 2220.16308594 304.526367188 c 128,-1,37
 2250.09863281 350.365234375 2250.09863281 350.365234375 2250.09863281 461.303710938 c 2,38,-1
 2250.09863281 706.783203125 l 1,39,-1
 2508.19824219 706.783203125 l 1,40,-1
 2508.19824219 467.47265625 l 2,41,42
 2508.19824219 362.330078125 2508.19824219 362.330078125 2556.27441406 315.340820312 c 128,-1,43
 2604.35058594 268.350585938 2604.35058594 268.350585938 2712.8671875 268.350585938 c 2,44,-1
 2813.9296875 268.350585938 l 1,45,-1
 2813.9296875 -0.4951171875 l 1,46,-1
 2678.24707031 -0.4951171875 l 2,47,48
 2483.35251835 -0.0283507733405 2483.35251835 -0.0283507733405 2384.26074219 121.377929688 c 1,49,50
 2272.7421875 -1.0029296875 2272.7421875 -1.0029296875 2126.20214844 -1.099609375 c 0,51,52
 1937.45410156 -1.0126953125 1937.45410156 -1.0126953125 1852.81933594 134.561523438 c 1,53,54
 1772.03125 -2.8125 1772.03125 -2.8125 1609.47265625 -1.09765625 c 0,55,56
 1494.7421875 0.3203125 1494.7421875 0.3203125 1423.94433594 47.81640625 c 1,0,1
EndSplineSet
EndChar

StartChar: uniFEB3
Encoding: 65203 65203 192
Width: 1665
VWidth: 2669
GlyphClass: 2
Flags: W
AnchorPoint: "Anchor-10" 762.555 1184.88 basechar 0
AnchorPoint: "Anchor-7" 927.12 -300.39 basechar 0
LayerCount: 2
Fore
SplineSet
900.446289062 131.505859375 m 1,0,1
 821.696690104 -1.00879553468 821.696690104 -1.00879553468 640.489946614 -1.00586261109 c 128,-1,2
 459.283203125 -1.0029296875 459.283203125 -1.0029296875 367.563476562 127.267578125 c 1,3,4
 247.609375 -1.099609375 247.609375 -1.099609375 86.4169921875 -1.099609375 c 2,5,-1
 -55.3642578125 -1.099609375 l 1,6,-1
 -55.3642578125 267.866210938 l 1,7,-1
 15.1904296875 267.866210938 l 2,8,9
 131.815429688 267.926757812 131.815429688 267.926757812 182.59765625 311.861328125 c 128,-1,10
 233.379882812 355.795898438 233.379882812 355.795898438 233.583984375 451.365234375 c 2,11,-1
 234.109375 697.524414062 l 1,12,-1
 491.201171875 697.524414062 l 1,13,-1
 491.904296875 446.752929688 l 2,14,15
 492.649355766 297.62737372 492.649355766 297.62737372 583.793945312 274.0546875 c 0,16,17
 606.5390625 268.171875 606.5390625 268.171875 636.61328125 268.205078125 c 0,18,19
 710.581054688 268.12109375 710.581054688 268.12109375 743.802734375 307.482421875 c 128,-1,20
 777.024414062 346.84375 777.024414062 346.84375 776.717773438 441.651367188 c 2,21,-1
 775.888671875 698.735351562 l 1,22,-1
 1033.43261719 698.735351562 l 1,23,-1
 1034.203125 443.206054688 l 2,24,25
 1034.55371094 348.400390625 1034.55371094 348.400390625 1070.72851562 308.244140625 c 128,-1,26
 1106.90234375 268.087890625 1106.90234375 268.087890625 1176.39160156 268.091308594 c 128,-1,27
 1245.88085938 268.094726562 1245.88085938 268.094726562 1273.80859375 306.790039062 c 128,-1,28
 1301.73632812 345.485351562 1301.73632812 345.485351562 1301.73632812 442.053710938 c 2,29,-1
 1301.73632812 747.383789062 l 1,30,-1
 1559.83691406 747.383789062 l 1,31,-1
 1559.83691406 441.077148438 l 2,32,33
 1559.9609375 135.998046875 1559.9609375 135.998046875 1376.79882812 39.20703125 c 0,34,35
 1299.84472656 -0.8427734375 1299.84472656 -0.8427734375 1195.82617188 -1.099609375 c 0,36,37
 986.561568086 -0.923133912202 986.561568086 -0.923133912202 900.446289062 131.505859375 c 1,0,1
EndSplineSet
EndChar

StartChar: uniFEB4
Encoding: 65204 65204 193
Width: 1815
VWidth: 2664
GlyphClass: 2
Flags: W
AnchorPoint: "Anchor-10" 871.805 1178.83 basechar 0
AnchorPoint: "Anchor-7" 884.355 -259.25 basechar 0
LayerCount: 2
Fore
SplineSet
1713.17675781 -1.099609375 m 2,0,1
 1545.07267059 -1.099609375 1545.07267059 -1.099609375 1453.59179688 124.29296875 c 1,2,3
 1379 -1 1379 -1 1197.72073386 -0.487372516834 c 0,4,5
 1017 -0 1017 -0 925.384765625 135.084960938 c 1,6,7
 847 3 847 3 665.628843776 2.95983148926 c 0,8,9
 485 3 485 3 390.01171875 127.418945312 c 1,10,11
 300.930957215 -1.099609375 300.930957215 -1.099609375 87.3701171875 -1.099609375 c 2,12,-1
 -49.5224609375 -1.099609375 l 1,13,-1
 -49.5224609375 267.86328125 l 1,14,-1
 44.2900390625 267.865234375 l 2,15,16
 257.435325546 268.117847757 257.435325546 268.117847757 255.752929688 424.116210938 c 6,17,-1
 252.774414062 700.295898438 l 1,18,-1
 520.978515625 700.295898438 l 1,19,-1
 520.524414062 432.893554688 l 2,20,21
 520 269 520 269 667.411132812 268.75 c 0,22,23
 799.530218248 268.999114213 799.530218248 268.999114213 799.329101562 433.502929688 c 2,24,-1
 799.002929688 700.295898438 l 1,25,-1
 1053.16992188 700.295898438 l 1,26,-1
 1054.78808594 435.768554688 l 2,27,28
 1056 269 1056 269 1198.09894694 268.865052477 c 0,29,30
 1321.48325815 269.000530626 1321.48325815 269.000530626 1321.96582031 428.96875 c 2,31,-1
 1322.79394531 703.490234375 l 1,32,-1
 1564.78515625 703.490234375 l 1,33,-1
 1564.76074219 467.395507812 l 2,34,35
 1565.19081787 268.955078125 1565.19081787 268.955078125 1767.39453125 268.955078125 c 2,36,-1
 1867.63378906 268.955078125 l 1,37,-1
 1867.63378906 -1.099609375 l 1,38,-1
 1713.17675781 -1.099609375 l 2,0,1
EndSplineSet
EndChar

StartChar: uniFEBA
Encoding: 65210 65210 199
Width: 2855
VWidth: 2669
GlyphClass: 2
Flags: W
AnchorPoint: "Anchor-10" 699.38 1218.76 basechar 0
AnchorPoint: "Anchor-7" 306.13 -677.305 basechar 0
LayerCount: 2
Fore
SplineSet
1751.94042969 281.079101562 m 1,0,-1
 2082.55175781 281.079101562 l 2,1,2
 2189.50976562 280.813476562 2189.50976562 280.813476562 2263.67724609 312.772949219 c 128,-1,3
 2337.84472656 344.732421875 2337.84472656 344.732421875 2364.33886719 391.678710938 c 128,-1,4
 2390.83398438 438.625 2390.83398438 438.625 2386.66210938 519.86328125 c 0,5,6
 2378.86644704 671.667016843 2378.86644704 671.667016843 2261.92724609 668.620605469 c 0,7,8
 2162.84947608 666.039506548 2162.84947608 666.039506548 2030.23479663 553.293679055 c 128,-1,9
 1897.62011719 440.547851562 1897.62011719 440.547851562 1751.94042969 281.079101562 c 1,0,-1
1424.83886719 82.140625 m 2,10,11
 1425.01373268 -447.011227319 1425.01373268 -447.011227319 778.311523438 -466.791015625 c 1,12,-1
 749.731445312 -466.791015625 l 2,13,14
 314.616504612 -466.936988957 314.616504612 -466.936988957 160.98828125 -222.241210938 c 0,15,16
 83.876953125 -99.4189453125 83.876953125 -99.4189453125 83.876953125 81.5224609375 c 2,17,-1
 83.876953125 362.8671875 l 2,18,19
 83.9482421875 439.276367188 83.9482421875 439.276367188 119.92578125 486.458984375 c 128,-1,20
 155.903320312 533.642578125 155.903320312 533.642578125 223.729492188 533.642578125 c 2,21,-1
 341.977539062 533.642578125 l 1,22,-1
 341.977539062 82.734375 l 2,23,24
 341.987304688 -58.5498046875 341.987304688 -58.5498046875 439.670898438 -128.1875 c 128,-1,25
 537.354492188 -197.825195312 537.354492188 -197.825195312 751.955078125 -197.825195312 c 2,26,-1
 777.631835938 -197.825195312 l 1,27,-1
 805.83203125 -197.225585938 l 2,28,29
 995.903320312 -193.34375 995.903320312 -193.34375 1082.53125 -123.534179688 c 128,-1,30
 1169.16015625 -53.724609375 1169.16015625 -53.724609375 1169.16015625 86.943359375 c 2,31,-1
 1168.77734375 697.3203125 l 1,32,-1
 1429.67871094 697.453125 l 1,33,-1
 1429.67871094 528.795898438 l 2,34,35
 1429.91480482 389.843927116 1429.91480482 389.843927116 1515.96972656 372.453125 c 1,36,37
 1844.9219141 755.094018718 1844.9219141 755.094018718 2059.81054688 873.55859375 c 0,38,39
 2203.71386719 952.747070312 2203.71386719 952.747070312 2400.04101562 901.154296875 c 0,40,41
 2650.76450008 834.860719746 2650.76450008 834.860719746 2653.53515625 476.129882812 c 0,42,43
 2653.95820682 418.734694182 2653.95820682 418.734694182 2643.68554688 366.712890625 c 1,44,45
 2720.93288445 267.85546875 2720.93288445 267.85546875 2839.29589844 267.85546875 c 2,46,-1
 2910.6171875 267.85546875 l 1,47,-1
 2910.6171875 -0.990234375 l 1,48,-1
 2813.40332031 -0.990234375 l 2,49,50
 2625.23339844 -1 2625.23339844 -1 2524.4140625 144.55859375 c 1,51,52
 2376.25074767 -0.20689857276 2376.25074767 -0.20689857276 2162.94433594 -0.3046875 c 2,53,-1
 1751.28027344 -0.4951171875 l 2,54,55
 1527.27050781 -0.0771484375 1527.27050781 -0.0771484375 1424.83886719 83.2275390625 c 1,56,-1
 1424.83886719 82.140625 l 2,10,11
EndSplineSet
EndChar

StartChar: uniFEBB
Encoding: 65211 65211 200
Width: 1735
VWidth: 2669
GlyphClass: 2
Flags: W
AnchorPoint: "Anchor-10" 644.443 1325.61 basechar 0
AnchorPoint: "Anchor-7" 644.443 -237.47 basechar 0
LayerCount: 2
Fore
SplineSet
741.631835938 281.57421875 m 1,0,-1
 1072.24316406 281.57421875 l 2,1,2
 1179.20141261 281.309120966 1179.20141261 281.309120966 1267.76171875 319.90234375 c 0,3,4
 1384.11111917 369.197770109 1384.11111917 369.197770109 1376.54492188 516.744140625 c 0,5,6
 1372.18164062 601.596679688 1372.18164062 601.596679688 1339.12402344 636.065429688 c 128,-1,7
 1306.06738281 670.534179688 1306.06738281 670.534179688 1235.63769531 668.61328125 c 0,8,9
 1092.08141844 665.195009123 1092.08141844 665.195009123 741.631835938 281.57421875 c 1,0,-1
741 0 m 2,10,11
 539.41495936 0 539.41495936 0 400.21484375 183.264648438 c 1,12,13
 245.015625 -0.099609375 245.015625 -0.099609375 54.7978515625 -0.099609375 c 2,14,-1
 -55.3642578125 -0.099609375 l 1,15,-1
 -55.3642578125 268.866210938 l 1,16,-1
 47.623046875 268.866210938 l 2,17,18
 150.017578125 269.357421875 150.017578125 269.357421875 197.16015625 323.022460938 c 128,-1,19
 244.303710938 376.6875 244.303710938 376.6875 244.303710938 498.282226562 c 2,20,-1
 244.303710938 705.958007812 l 1,21,-1
 489.921875 705.958007812 l 1,22,-1
 491.368164062 547.568359375 l 2,23,24
 492.578849263 421.158189746 492.578849263 421.158189746 536.75 409.290039062 c 1,25,26
 845.181735991 763.121193651 845.181735991 763.121193651 1049.56445312 874.088867188 c 0,27,28
 1193.98144531 953.950195312 1193.98144531 953.950195312 1389.94921875 901.591796875 c 0,29,30
 1639.69922377 833.653898859 1639.69922377 833.653898859 1643.2265625 476.671875 c 0,31,32
 1645.16308594 207.430664062 1645.16308594 207.430664062 1419.22753906 72.1015625 c 0,33,34
 1298.4296875 0.2578125 1298.4296875 0.2578125 1152.63574219 0.1904296875 c 2,35,-1
 741 0 l 2,10,11
EndSplineSet
EndChar

StartChar: uniFEBC
Encoding: 65212 65212 201
Width: 1845
VWidth: 2669
GlyphClass: 2
Flags: W
AnchorPoint: "Anchor-10" 706.035 1327.67 basechar 0
AnchorPoint: "Anchor-7" 736.285 -276.19 basechar 0
LayerCount: 2
Fore
SplineSet
741.631835938 281.57421875 m 1,0,-1
 1072.24316406 281.57421875 l 2,1,2
 1179.20141261 281.309120966 1179.20141261 281.309120966 1267.76171875 319.90234375 c 0,3,4
 1384.11111917 369.197770109 1384.11111917 369.197770109 1376.54492188 516.744140625 c 0,5,6
 1372.18164062 601.596679688 1372.18164062 601.596679688 1339.12402344 636.065429688 c 128,-1,7
 1306.06738281 670.534179688 1306.06738281 670.534179688 1235.63769531 668.61328125 c 0,8,9
 1092.08141844 665.195009123 1092.08141844 665.195009123 741.631835938 281.57421875 c 1,0,-1
1633.4609375 367.095703125 m 1,10,11
 1710.58860349 268.350585938 1710.58860349 268.350585938 1828.98730469 268.350585938 c 2,12,-1
 1900.30859375 268.350585938 l 1,13,-1
 1900.30859375 -0.4951171875 l 1,14,-1
 1803.04199219 -0.4951171875 l 2,15,16
 1614.26464844 -0.015625 1614.26464844 -0.015625 1514.203125 144.794921875 c 1,17,18
 1366.73938825 0.687346954403 1366.73938825 0.687346954403 1152.63574219 0.1904296875 c 2,19,-1
 741 0 l 2,20,21
 539.916992188 0 539.916992188 0 401.237304688 181.91796875 c 1,22,23
 260.88671875 -0.099609375 260.88671875 -0.099609375 54.7978515625 -0.099609375 c 2,24,-1
 -55.3642578125 -0.099609375 l 1,25,-1
 -55.3642578125 268.866210938 l 1,26,-1
 47.623046875 268.866210938 l 2,27,28
 150.017578125 269.357421875 150.017578125 269.357421875 197.16015625 323.022460938 c 128,-1,29
 244.303710938 376.6875 244.303710938 376.6875 244.303710938 498.282226562 c 2,30,-1
 244.303710938 705.958007812 l 1,31,-1
 489.921875 705.958007812 l 1,32,-1
 491.368164062 547.568359375 l 2,33,34
 492.578964864 421.159425124 492.578964864 421.159425124 536.7265625 409.295898438 c 1,35,36
 643.405273438 531.8671875 643.405273438 531.8671875 724.032226562 610.59765625 c 0,37,38
 982.81351181 864.070112445 982.81351181 864.070112445 1114.21001115 902.246240349 c 128,-1,39
 1245.6065105 940.422368252 1245.6065105 940.422368252 1380.43899744 904.246340376 c 0,40,41
 1639.69994443 834.685721432 1639.69994443 834.685721432 1643.22558594 476.771484375 c 0,42,43
 1643.92438756 419.389271486 1643.92438756 419.389271486 1633.4609375 367.095703125 c 1,10,11
EndSplineSet
EndChar

